<svg xmlns="http://www.w3.org/2000/svg" width="208.5" height="42.55" viewBox="0 0 208.5 42.55"><defs><style>.a{fill:none;stroke:#b7b7b7;stroke-miterlimit:10;stroke-width:0.78px;opacity:0.5;}.b{font-size:15px;fill:#fff;font-family:Montserrat-Light, Montserrat;font-weight:300;}.c{fill:#e41e2a;}</style></defs><title>KH_Sprite</title><line class="a" x1="118.32" y1="8.34" x2="118.32" y2="29.29"/><text class="b" transform="translate(131.36 23.26)">Nielsen</text><path class="c" d="M60.57,11.63c-.46,1.34-.92,2.66-1.37,4-.18.52-.38,1.05-.54,1.58a.34.34,0,0,1-.39.28,11.61,11.61,0,0,0-1.18,0,.31.31,0,0,1-.35-.26q-1.44-4.29-2.9-8.56c-.09-.25,0-.32.22-.31q.73,0,1.47,0c.26,0,.36.09.43.33.54,1.79,1.09,3.57,1.64,5.36,0,.11.07.21.11.32s.14-.15.16-.23c.59-1.79,1.19-3.57,1.76-5.37.11-.31.24-.47.59-.43s.9-.14,1.22.09.31.72.44,1.1c.51,1.5,1,3,1.5,4.52l.12.32c.14-.07.14-.2.18-.31.54-1.78,1.09-3.55,1.62-5.32.08-.27.18-.4.48-.38a12.16,12.16,0,0,0,1.35,0c.3,0,.34.08.25.36-.62,1.8-1.23,3.61-1.85,5.42-.34,1-.7,2-1,3.05a.35.35,0,0,1-.41.3c-.46,0-1,.13-1.36-.07s-.35-.79-.49-1.21c-.49-1.39-1-2.79-1.45-4.19A.67.67,0,0,0,60.57,11.63Z"/><path class="c" d="M79.12,24.4c.16.08.26.14.36.18A2.15,2.15,0,0,1,80.75,27a2.17,2.17,0,0,1-1.54,1.9,4.08,4.08,0,0,1-1.47.28c-1.44,0-2.87,0-4.31,0-.31,0-.37-.1-.37-.39,0-2.76,0-5.53,0-8.29,0-.29.08-.38.37-.38,1.38,0,2.77,0,4.15,0a2.9,2.9,0,0,1,2.12.84,2.21,2.21,0,0,1-.27,3.23Zm-2.63,3v0c.43,0,.86,0,1.3,0a1,1,0,0,0,1-.75,1,1,0,0,0-.91-1.19,22.4,22.4,0,0,0-2.59-.07c-.23,0-.3.11-.29.31,0,.48,0,.95,0,1.43,0,.24.1.31.32.31Zm-.22-5.58v0h-1c-.23,0-.32.09-.31.32v1.34c0,.21.08.31.29.3a17.49,17.49,0,0,0,2-.05c.66-.1,1-.42,1-1s-.38-.84-1-.89C76.94,21.81,76.6,21.83,76.27,21.83Z"/><path class="c" d="M41.25,13.84a.72.72,0,0,0,.08-.5c0-1.53,0-3.05,0-4.57,0-.32.08-.46.42-.43a7.1,7.1,0,0,0,1.13,0c.33,0,.39.11.39.41,0,2.05,0,4.11,0,6.16,0,.72,0,1.43,0,2.14,0,.25-.06.38-.33.34a.11.11,0,0,0-.08,0,1.88,1.88,0,0,1-2.06-1c-1-1.5-2.2-2.92-3.31-4.38-.07-.09-.12-.22-.27-.26-.12.13-.06.3-.06.44,0,1.59,0,3.19,0,4.78,0,.31-.07.43-.39.4a11.61,11.61,0,0,0-1.18,0c-.3,0-.37-.1-.37-.38q0-4.16,0-8.3c0-.27.07-.37.35-.37,1.45,0,1.45,0,2.32,1.11q1.56,2.06,3.13,4.1A3.56,3.56,0,0,0,41.25,13.84Z"/><path class="c" d="M53.92,12.86a4.67,4.67,0,0,1-4.85,4.7,4.62,4.62,0,0,1-4.77-4.79,4.68,4.68,0,0,1,4.87-4.59A4.62,4.62,0,0,1,53.92,12.86Zm-2.07,0A2.76,2.76,0,0,0,49.12,10a2.73,2.73,0,0,0-2.76,2.85,2.77,2.77,0,0,0,2.79,2.88A2.71,2.71,0,0,0,51.85,12.88Z"/><path class="c" d="M83.38,14.38c0-.87,0-1.74,0-2.6,0-.26.07-.34.33-.33.45,0,.89,0,1.34,0,.27,0,.33.11.32.35,0,1.13,0,2.26,0,3.39,0,.35.1.48.45.45a16.48,16.48,0,0,0,1.72-.06,2.57,2.57,0,0,0,2.14-2.74,2.56,2.56,0,0,0-2.18-2.66A29.34,29.34,0,0,0,84,10.11c-.7,0-.6,0-.59-.57,0-.39-.18-.89.08-1.13s.72-.07,1.1-.06A25.59,25.59,0,0,1,88,8.43a4.4,4.4,0,0,1,3.79,4.42A4.42,4.42,0,0,1,88,17.3a23.89,23.89,0,0,1-3.59.08c-1,0-1,0-1-1Z"/><path class="c" d="M100.72,14.41v2.65c0,.14,0,.33-.2.32a30.44,30.44,0,0,1-4.48-.1,4.41,4.41,0,0,1-3.68-4.45A4.4,4.4,0,0,1,96.1,8.44a34,34,0,0,1,4.4-.09c.16,0,.23.07.22.22v0c0,.47.18,1.05-.08,1.38s-.83.08-1.28.1c-.85,0-1.7-.06-2.55.05A2.61,2.61,0,0,0,94.43,13,2.6,2.6,0,0,0,97,15.62c.46,0,.92,0,1.38,0,.27,0,.33-.11.33-.35,0-1.15,0-2.3,0-3.44,0-.32.08-.42.4-.4a7.62,7.62,0,0,0,1.17,0c.32,0,.44.07.43.42C100.7,12.71,100.72,13.56,100.72,14.41Z"/><path class="c" d="M55,24.6c0-1.37,0-2.74,0-4.11,0-.3.05-.43.39-.41a11.28,11.28,0,0,0,1.3,0c.24,0,.3.08.3.32,0,1,0,1.9,0,2.85,0,.31.06.44.41.44,1,0,2,0,2.93,0,.29,0,.39-.09.39-.38,0-.94,0-1.87,0-2.81,0-.35.12-.43.44-.41a7.1,7.1,0,0,0,1.13,0c.33,0,.42.1.42.42q0,3.32,0,6.63c0,.55,0,1.11,0,1.67,0,.26-.09.35-.34.34a10.59,10.59,0,0,0-1.26,0c-.29,0-.39-.08-.38-.38,0-1,0-1.9,0-2.85,0-.33-.1-.43-.43-.42-1,0-1.92,0-2.89,0-.34,0-.42.11-.41.43,0,.95,0,1.9,0,2.85,0,.3-.09.38-.37.37a8.28,8.28,0,0,0-1.22,0c-.31,0-.4-.07-.4-.4C55,27.36,55,26,55,24.6Z"/><path class="c" d="M75.49,12.85c0-1.37,0-2.74,0-4.1,0-.31.07-.41.4-.41h6c.35,0,.45.11.41.43s.19,1-.09,1.25-.8.06-1.22.07c-1.06,0-2.13,0-3.19,0-.31,0-.42.1-.4.41a6.68,6.68,0,0,1,0,1c0,.36.08.49.46.48,1.13,0,2.27,0,3.4,0,.4,0,.51.13.47.5a5.06,5.06,0,0,0,0,.87c0,.3-.09.39-.38.38-1.17,0-2.34,0-3.52,0-.33,0-.45.1-.43.43a6.61,6.61,0,0,1,0,1.09c0,.34.08.45.44.45,1.34,0,2.69,0,4,0,.36,0,.54.07.49.48s.17.92-.08,1.17-.79.09-1.2.09H75.93c-.34,0-.45-.07-.45-.43C75.5,15.59,75.49,14.22,75.49,12.85Z"/><path class="c" d="M101.73,12.87c0-1.36,0-2.72,0-4.07,0-.38.11-.47.47-.46h5.92c.35,0,.46.11.43.45a6.46,6.46,0,0,0,0,.88c0,.32-.08.43-.42.43-1.32,0-2.65,0-4,0-.37,0-.51.1-.47.47s-.19,1,.1,1.33.85.07,1.3.08c.82,0,1.65,0,2.47,0,.3,0,.45.05.42.39s.16,1-.08,1.26-.82.08-1.25.09c-.86,0-1.73,0-2.6,0-.27,0-.37.09-.36.37s0,.78,0,1.17.07.43.42.43c1.37,0,2.74,0,4.1,0,.34,0,.45.09.42.42a4.71,4.71,0,0,0,0,.92c0,.35-.11.42-.43.41q-3,0-6,0c-.33,0-.43-.08-.43-.42C101.74,15.6,101.73,14.23,101.73,12.87Z"/><path class="c" d="M34.57,8.35,32,11.05c-.28.3-.55.61-.85.88s-.18.34,0,.55L34.43,17l.29.42H32.43c-.14,0-.18-.16-.26-.25C31.38,16,30.58,15,29.81,13.86c-.21-.3-.31-.24-.56,0a2,2,0,0,0-.77,1.9c.06.44,0,.9,0,1.34,0,.27-.08.34-.34.33-.42,0-.84,0-1.25,0s-.41-.07-.4-.39c0-1.86,0-3.72,0-5.58,0-.91,0-1.81,0-2.72,0-.28.08-.37.35-.36s.81,0,1.22,0,.43.07.42.41c0,1,0,2,0,3v.41c.18,0,.22-.1.29-.18,1.06-1.13,2.12-2.26,3.16-3.41a.73.73,0,0,1,.58-.25Z"/><path class="c" d="M71.78,23.27a22.17,22.17,0,0,1-.06,2.78,3.46,3.46,0,0,1-3.67,3.23,3.8,3.8,0,0,1-3.43-1.38,3.52,3.52,0,0,1-.69-2.07c0-1.8,0-3.61,0-5.41,0-.26.08-.35.33-.34a9.93,9.93,0,0,0,1.22,0c.31,0,.4.09.4.4q0,2.06,0,4.11a8,8,0,0,0,.08,1.3,1.86,1.86,0,0,0,2.12,1.58,1.83,1.83,0,0,0,1.74-1.91c0-1.66,0-3.32,0-5,0-.42.13-.52.52-.49a8.52,8.52,0,0,0,1.13,0c.27,0,.36.08.36.36C71.77,21.32,71.78,22.2,71.78,23.27Z"/><path class="c" d="M68.22,12.87c0-1.37,0-2.74,0-4.11,0-.33.1-.44.43-.42a7.1,7.1,0,0,0,1.13,0c.33,0,.43.08.43.42,0,2.09,0,4.19,0,6.29,0,.58,0,.58.6.58h3.4c.53,0,.53,0,.53.55,0,.31,0,.61,0,.92s-.07.29-.29.29q-3,0-5.91,0c-.3,0-.3-.16-.3-.37Z"/><path class="c" d="M11.83,30.13c-1.24,0-2.49,0-3.73,0a1.58,1.58,0,0,1-1.38-.66Q3.6,25.62.43,21.78A1.68,1.68,0,0,1,1.21,19,1.63,1.63,0,0,1,3,19.62l2.34,2.87c.06.07.1.17.22.2a.88.88,0,0,0,0-.36V6.92a1.36,1.36,0,0,1,1.2-1.38,1.39,1.39,0,0,1,1.52,1,2.39,2.39,0,0,1,0,.6V19c0,.11-.07.29.09.33a1.23,1.23,0,0,0,.54,0c.11,0,.06-.16.06-.25V12.79a1.37,1.37,0,0,1,1.35-1.44,1.35,1.35,0,0,1,1.4,1.4c0,2,0,4,0,6v.18c0,.44.12.53.57.44.18,0,.12-.18.12-.28V14.7a1.38,1.38,0,0,1,2.75,0c0,1.44,0,2.89,0,4.34,0,.27.1.31.33.3s.38,0,.38-.3c0-.88,0-1.76,0-2.64a1.37,1.37,0,0,1,2-1.24,1.27,1.27,0,0,1,.73,1.18q0,5.6,0,11.18a2.71,2.71,0,0,1-2.58,2.6c-.51,0-1,0-1.55,0h0c0-1,0-1.92,0-2.88,0-.24-.08-.3-.32-.3-.67,0-1.34,0-2,0-.29,0-.35-.09-.34-.35,0-.68,0-1.36,0-2,0-.22-.07-.29-.28-.28H9.42c-.19,0-.26.05-.26.25q0,1.11,0,2.22c0,.2.07.26.27.26h2.12c.21,0,.28.05.28.27,0,.95,0,1.9,0,2.85Zm2.85-5.62h.69c.14,0,.19-.05.19-.18V23c0-.13,0-.19-.18-.19H14c-.14,0-.18,0-.18.19v1.37c0,.16.07.2.2.19Z"/><path class="c" d="M1.76,6.75A5.07,5.07,0,0,1,7,1.64a5,5,0,0,1,5,4.32,5,5,0,0,1-1.16,4.12c-.11.14-.2.17-.33,0s-.43-.31-.49-.51.22-.36.35-.54A4.11,4.11,0,1,0,3.06,5.2,4.06,4.06,0,0,0,4.5,10.09c.25.18.31.29.13.57-.35.55-.34.57-.87.15A5,5,0,0,1,1.76,6.75Z"/><path class="c" d="M6.77,0a6.71,6.71,0,0,1,6.76,6,6.63,6.63,0,0,1-1.53,5l-.1.1c-.06.08-.12.15-.23.05s0-.16,0-.24a6.57,6.57,0,0,0,1.1-1.74A6.46,6.46,0,1,0,.46,5.74a6.31,6.31,0,0,0,2.85,6.4c.08,0,.24.06.18.21s-.21.09-.32,0A6.47,6.47,0,0,1,.87,9.83,6.73,6.73,0,0,1,5.67.09,5.48,5.48,0,0,1,6.77,0Z"/><path class="c" d="M14.53,30.13c0,.76,0,1.52,0,2.29,0,.28-.06.38-.36.37q-1,0-1.95,0c-.31,0-.36-.09-.36-.37,0-.77,0-1.53,0-2.29h2.7Z"/><path class="c" d="M7.24,34.07c0-.32,0-.65,0-1,0-.15,0-.2.2-.2h2c.15,0,.19.06.19.2q0,1,0,2c0,.15-.05.2-.2.2h-2c-.15,0-.19-.06-.19-.2C7.25,34.74,7.24,34.41,7.24,34.07Z"/><path class="c" d="M15.88,33c.3,0,.61,0,.92,0,.15,0,.22.05.21.21v1.87c0,.18-.07.23-.23.23H14.94c-.17,0-.23-.06-.23-.24q0-.91,0-1.83c0-.2.07-.25.25-.24S15.57,33,15.88,33Z"/><path class="c" d="M12.63,36.78c0,.69,0,.69-.68.69s-.67,0-.67-.66,0-.69.71-.69S12.63,36.12,12.63,36.78Z"/></svg>