<svg xmlns="http://www.w3.org/2000/svg" width="20.6" height="21.04" viewBox="0 0 20.6 21.04"><defs><style>.a{fill:#999;}</style></defs><title>KH_Sprite</title><path class="a" d="M4,14.69H3.28v-1H4Zm0-3H3.28v-2H4ZM4,7.77H3.28V6.59a5.93,5.93,0,0,1,.06-.84l.74.1a6,6,0,0,0,0,.74Zm.58-3.68-.67-.33A6.39,6.39,0,0,1,5.13,2.07l.54.52A6,6,0,0,0,4.61,4.09ZM7.14,1.48,6.79.82a7.1,7.1,0,0,1,2-.7l.14.74A6.34,6.34,0,0,0,7.14,1.48ZM20.6.75h-2V0h2Zm-3.93,0h-2V0h2Zm-3.94,0h-2V0h2Z"/><polygon class="a" points="3.66 21.04 0 12.09 3.66 14.21 7.32 12.09 3.66 21.04"/></svg>