<svg xmlns="http://www.w3.org/2000/svg" xmlns:xlink="http://www.w3.org/1999/xlink" width="44.75" height="36.5" viewBox="0 0 44.75 36.5"><defs><style>.a{fill:url(#a);}.b{fill:none;stroke:#fff;stroke-linecap:round;stroke-linejoin:round;stroke-width:0.75px;}</style><linearGradient id="a" x1="22.38" y1="36.5" x2="22.38" gradientUnits="userSpaceOnUse"><stop offset="0"/><stop offset="1" stop-opacity="0"/></linearGradient></defs><title>KH_Sprite</title><rect class="a" width="44.75" height="36.5"/><polyline class="b" points="34.17 28.25 10.59 28.25 10.59 8.25"/><path class="b" d="M27.86,17.36a3.76,3.76,0,0,1,3.76,3.87A3.81,3.81,0,0,1,28,24.89a3.76,3.76,0,0,1-3.87-3.77h0a3.76,3.76,0,0,0,3.74-3.75Z"/><path class="b" d="M16.33,11.73A1.51,1.51,0,1,1,15.08,13,1.52,1.52,0,0,1,16.33,11.73Z"/><path class="b" d="M14.93,21.19a1.89,1.89,0,0,1,2.33,2.33,1.89,1.89,0,1,1-2.33-2.33Z"/><path class="b" d="M28.7,9.13a2.26,2.26,0,0,1,2.49,2.76,2.22,2.22,0,0,1-1.68,1.68,2.26,2.26,0,0,1-2.76-2.49A2.29,2.29,0,0,1,28.7,9.13Z"/><path class="b" d="M23.94,12.85A4.08,4.08,0,0,1,27.26,15a3.64,3.64,0,0,1,.58,2.34,3.76,3.76,0,0,0-3.74,3.75,3.74,3.74,0,0,1-2.55-.74,4.06,4.06,0,0,1-2-3.32A4.14,4.14,0,0,1,23.94,12.85Z"/></svg>