<svg xmlns="http://www.w3.org/2000/svg" xmlns:xlink="http://www.w3.org/1999/xlink" width="44.75" height="36.5" viewBox="0 0 44.75 36.5"><defs><style>.a{fill:url(#a);}.b{fill:#fff;}</style><linearGradient id="a" x1="22.38" y1="36.5" x2="22.38" gradientUnits="userSpaceOnUse"><stop offset="0"/><stop offset="1" stop-opacity="0"/></linearGradient></defs><title>KH_Sprite</title><rect class="a" width="44.75" height="36.5"/><path class="b" d="M22.38,9.25a9,9,0,1,0,9,9A9,9,0,0,0,22.38,9.25Zm0,16.82a7.82,7.82,0,1,1,7.82-7.82A7.83,7.83,0,0,1,22.38,26.07Z"/><path class="b" d="M24.12,21.54,24,22c-.35.14-.63.25-.84.32a2.29,2.29,0,0,1-.73.11,1.47,1.47,0,0,1-1-.31,1,1,0,0,1-.36-.8,2.53,2.53,0,0,1,0-.38c0-.13,0-.27.08-.44L21.63,19a4.34,4.34,0,0,0,.1-.43,1.59,1.59,0,0,0,0-.36.59.59,0,0,0-.12-.42.68.68,0,0,0-.47-.12,1.12,1.12,0,0,0-.35.06l-.31.1.12-.48a8.42,8.42,0,0,1,.83-.3,2.27,2.27,0,0,1,.74-.13,1.39,1.39,0,0,1,1,.31,1,1,0,0,1,.35.79,3.58,3.58,0,0,1,0,.36,2.19,2.19,0,0,1-.08.47L23,20.37a3.92,3.92,0,0,0-.1.43,2,2,0,0,0,0,.36c0,.21,0,.35.14.42a.73.73,0,0,0,.48.12,1.34,1.34,0,0,0,.36-.06ZM24.23,15a.92.92,0,0,1-.3.69,1.06,1.06,0,0,1-.74.29,1,1,0,0,1-.74-.29.92.92,0,0,1,0-1.38,1,1,0,0,1,.74-.29,1,1,0,0,1,.74.29A.92.92,0,0,1,24.23,15Z"/><path class="b" d="M24.12,21.54,24,22c-.35.14-.63.25-.84.32a2.29,2.29,0,0,1-.73.11,1.47,1.47,0,0,1-1-.31,1,1,0,0,1-.36-.8,2.53,2.53,0,0,1,0-.38c0-.13,0-.27.08-.44L21.63,19a4.34,4.34,0,0,0,.1-.43,1.59,1.59,0,0,0,0-.36.59.59,0,0,0-.12-.42.68.68,0,0,0-.47-.12,1.12,1.12,0,0,0-.35.06l-.31.1.12-.48a8.42,8.42,0,0,1,.83-.3,2.27,2.27,0,0,1,.74-.13,1.39,1.39,0,0,1,1,.31,1,1,0,0,1,.35.79,3.58,3.58,0,0,1,0,.36,2.19,2.19,0,0,1-.08.47L23,20.37a3.92,3.92,0,0,0-.1.43,2,2,0,0,0,0,.36c0,.21,0,.35.14.42a.73.73,0,0,0,.48.12,1.34,1.34,0,0,0,.36-.06ZM24.23,15a.92.92,0,0,1-.3.69,1.06,1.06,0,0,1-.74.29,1,1,0,0,1-.74-.29.92.92,0,0,1,0-1.38,1,1,0,0,1,.74-.29,1,1,0,0,1,.74.29A.92.92,0,0,1,24.23,15Z"/></svg>