<svg id="Layer_1" data-name="Layer 1" xmlns="http://www.w3.org/2000/svg" xmlns:xlink="http://www.w3.org/1999/xlink" width="20" height="20" viewBox="0 0 20 20"><defs><style>.cls-1{fill:none;}.cls-2{fill:#fff;}.cls-3{fill:url(#radial-gradient);}.cls-4{fill:url(#linear-gradient);}.cls-5{fill:#343434;}.cls-6{opacity:0.2;}.cls-7{clip-path:url(#clip-path);}.cls-8{fill:url(#radial-gradient-2);}.cls-9{fill:url(#radial-gradient-3);}</style><radialGradient id="radial-gradient" cx="5.72" cy="172.2" r="12.99" gradientTransform="matrix(1, 0, 0, -1, 0, 181.56)" gradientUnits="userSpaceOnUse"><stop offset="0.03" stop-color="#fff"/><stop offset="0.29" stop-color="#fbfdfd"/><stop offset="0.53" stop-color="#f0f5f7"/><stop offset="0.76" stop-color="#dee9ec"/><stop offset="0.98" stop-color="#c4d8dd"/><stop offset="1" stop-color="#c2d7dc"/></radialGradient><linearGradient id="linear-gradient" x1="5.68" y1="171.09" x2="18.85" y2="171.09" gradientTransform="matrix(1, 0, 0, -1, 0, 181.56)" xlink:href="#radial-gradient"/><clipPath id="clip-path"><polygon class="cls-1" points="79.02 146.92 -225.44 146.92 -225.44 52.46 79.02 52.5 79.02 146.92"/></clipPath><radialGradient id="radial-gradient-2" cx="872.16" cy="56.96" r="139.05" gradientTransform="matrix(1.95, 0, 0, -1.36, -1687.27, 186.39)" gradientUnits="userSpaceOnUse"><stop offset="0" stop-color="#e7e7e7"/><stop offset="0.62" stop-color="#cbcbcb"/><stop offset="0.69" stop-color="#c7c7c7"/><stop offset="0.76" stop-color="#bbb"/><stop offset="0.82" stop-color="#ababab"/><stop offset="1" stop-color="#c3c3c3"/></radialGradient><radialGradient id="radial-gradient-3" cx="850.49" cy="91.41" r="116.5" gradientTransform="matrix(1.95, 0, 0, -1.36, -1687.27, 186.39)" gradientUnits="userSpaceOnUse"><stop offset="0.22" stop-color="#fefefe"/><stop offset="0.39" stop-color="#f5f5f5"/><stop offset="0.66" stop-color="#ddd"/><stop offset="0.77" stop-color="#d2d2d2"/><stop offset="0.86" stop-color="#dadada"/><stop offset="1" stop-color="#ddd"/></radialGradient></defs><title>Weather_dashboard_Sprite</title><circle class="cls-2" cx="10" cy="10" r="10"/><path class="cls-3" d="M18.85,10A8.85,8.85,0,1,1,10,1.15,8.85,8.85,0,0,1,18.85,10Z"/><path class="cls-4" d="M14.08,2.15a8.85,8.85,0,1,1-8.4,15.58,8.85,8.85,0,1,0,8.4-15.58Z"/><path class="cls-5" d="M14.31,5.3H10.76a.42.42,0,0,0-.39.26.42.42,0,0,0,.09.45l1.48,1.47L10.27,9.15a.43.43,0,0,0-.13.3.41.41,0,0,0,.13.29.4.4,0,0,0,.29.12.42.42,0,0,0,.3-.12l2-2a.42.42,0,0,0,0-.59L11.8,6.09h2.12V8.16a.42.42,0,0,0-.3-.12.4.4,0,0,0-.29.12.43.43,0,0,0-.13.3.41.41,0,0,0,.13.29l.75.75a.42.42,0,0,0,.3.12h.12a.4.4,0,0,0,.26-.38V5.71a.42.42,0,0,0-.43-.41Z"/><path class="cls-5" d="M9.44,10.14a.43.43,0,0,0-.3.13l-2,2a.4.4,0,0,0-.12.29.42.42,0,0,0,.12.3L8.2,13.91H6.08V11.78h0a.43.43,0,0,0,.3.13.41.41,0,0,0,.29-.13.39.39,0,0,0,0-.55l0,0-.76-.76a.38.38,0,0,0-.29-.12H5.5a.42.42,0,0,0-.26.39v3.53a.41.41,0,0,0,.41.41H9.21a.41.41,0,0,0,.43-.39.39.39,0,0,0-.13-.32L8,12.47,9.7,10.8a.41.41,0,0,0,0-.58h0A.42.42,0,0,0,9.44,10.14Z"/><g class="cls-6"><g class="cls-7"><path class="cls-8" d="M-163.73,12.89c1.95.26,31.42,3.46,54.18-1.7C-79,5.56-51.49-6.87-20.21-10.22c2.45.13,4.88.33,7.26.59C-1.1-9,13.87-6,32.05,2A195.86,195.86,0,0,0-20.59-18,138.71,138.71,0,0,0-61.2-20.08c-19.43,1.69-26.12,6.11-41,7.73-9.16,1-15,.57-16.09-2.08s7.76-5.7,14.39-7.21c-25.71,3.47-49.3,11.07-69.28,21.78-.14.1-.27.21-.4.32C-182.73,8.18-170.77,11.93-163.73,12.89Z"/><path class="cls-9" d="M-213.67,42.69c9.17-6.9,16.72-11.21,24-14a54,54,0,0,1,17.42-4.64c2.61-.26,5.2-.42,7.76-.5s5.17-.4,8-.59c38.33,2.9,74.65,19,113.3,20.85,21.9.44,115.6-5.76,123.36,2.42-10.52-17.07-26.76-32-47-43.67C23.82-1.36,6-11.44-20.12-10.22c-36.66,1.68-60,14.64-90.57,20.27-14.93,2.76-30.3,4.16-46.6,2.62q-2.88-.27-5.81-.66c-7-1-19.54-3.83-10.37-11.57l.39-.32c-24.36,13-43.36,30.58-54.31,50.89C-224.44,50.78-223.37,50-213.67,42.69Z"/></g></g></svg>