<svg id="Layer_1" data-name="Layer 1" xmlns="http://www.w3.org/2000/svg" xmlns:xlink="http://www.w3.org/1999/xlink" width="44.75" height="50.99" viewBox="0 0 44.75 50.99"><defs><style>.cls-1{fill:url(#linear-gradient);}.cls-2{fill:#fff;}</style><linearGradient id="linear-gradient" x1="22.38" y1="294.07" x2="22.38" y2="345.06" gradientTransform="matrix(1, 0, 0, -1, 0, 345.06)" gradientUnits="userSpaceOnUse"><stop offset="0"/><stop offset="1" stop-opacity="0"/></linearGradient></defs><title>Weather_dashboard_Sprite</title><rect class="cls-1" width="44.75" height="50.99"/><path class="cls-2" d="M21.58,35.53a1.79,1.79,0,0,1-1.69-1.44c-.06-.32-.11-.63-.16-1a1.15,1.15,0,0,1-.39-.37.51.51,0,0,1,0-.45.52.52,0,0,1,.49-.35,1,1,0,0,1,.24,0,1,1,0,0,1,.74.86,4.65,4.65,0,0,0,.18,1,.51.51,0,0,0,.53.49h1.8a.52.52,0,0,0,.5-.45c.06-.31.11-.62.16-.92v-.19a1,1,0,0,1,.62-.77l.88-.36a.8.8,0,0,1,.34-.07.87.87,0,0,1,.52.17l.23.17.65.46a.74.74,0,0,0,.43.17.65.65,0,0,0,.45-.24c.39-.38.75-.74,1.08-1.09a.56.56,0,0,0,.15-.78l-.08-.09c-.21-.32-.41-.59-.59-.84a.9.9,0,0,1-.11-1c.13-.32.25-.6.35-.86a.91.91,0,0,1,.78-.61c.34,0,.67-.1,1-.17a.56.56,0,0,0,.51-.61h0V24.53c0-.39-.24-.46-.32-.48a10.9,10.9,0,0,0-1.26-.28.91.91,0,0,1-.75-.6c-.1-.26-.21-.53-.34-.85a.91.91,0,0,1,.1-1l.57-.8a.67.67,0,0,0,.17-.49.54.54,0,0,1,.5-.63h0a.56.56,0,0,1,.61.51v0a1.74,1.74,0,0,1-.32,1.17l-.22.31a5.09,5.09,0,0,0-.31.45v.23a1.2,1.2,0,0,0,.21.51.73.73,0,0,0,.33.08l.33.06h.1a4.79,4.79,0,0,1,.73.24,1.56,1.56,0,0,1,1,1.53v1.56a1.78,1.78,0,0,1-1.43,1.77h-.28a2.57,2.57,0,0,0-.7.13l-.13.19a1.19,1.19,0,0,0-.21.52,1,1,0,0,0,.26.4l.16.2a1.83,1.83,0,0,1,.42,1.62,2.29,2.29,0,0,1-.44.83c-.34.38-.72.75-1.06,1.07l-.12.12a1.65,1.65,0,0,1-1.05.48v.07h-.16l-.27-.11a5.65,5.65,0,0,1-.67-.29,7.49,7.49,0,0,1-.65-.45l-.12-.09-.17-.19.05.18c-.66.27-.66.27-.76,1a1.84,1.84,0,0,1-1.27,1.63,2,2,0,0,1-.6.06H21.58Z"/><path class="cls-2" d="M15,20.09a.54.54,0,0,1-.36-.14.51.51,0,0,1-.2-.38.63.63,0,0,1,.21-.48c.39-.4.8-.82,1.23-1.23a1.69,1.69,0,0,1,1-.44v-.07h.21l.29.11a5.79,5.79,0,0,1,.68.29,3.08,3.08,0,0,1,.48.32l.3.22a1.35,1.35,0,0,0,.34-.11l.33-.14s.07,0,.1-.15v-.16A6.57,6.57,0,0,1,20,16.5a1.5,1.5,0,0,1,1.6-1h1.59a1.8,1.8,0,0,1,1.75,1.38c.08.39.15.71.19,1v.24l.1-.16a1,1,0,0,0,.53.18,1.3,1.3,0,0,0,.75-.34,2,2,0,0,1,1.24-.49,2,2,0,0,1,1.5.81.54.54,0,0,1,0,.76l0,0a.52.52,0,0,1-.39.17.55.55,0,0,1-.39-.16l-.15-.14-.15-.15a.68.68,0,0,0-.42-.21.73.73,0,0,0-.37.14c-.3.19-.59.41-.86.61a1.06,1.06,0,0,1-.59.21.9.9,0,0,1-.4-.09L24.6,19a.9.9,0,0,1-.59-.77c-.05-.33-.1-.66-.16-1a.6.6,0,0,0-.62-.58H21.59c-.4,0-.46.22-.48.29a9.82,9.82,0,0,0-.31,1.3,1,1,0,0,1-.63.78l-.8.34a.87.87,0,0,1-.42.1.94.94,0,0,1-.58-.21c-.27-.21-.55-.4-.79-.57a.78.78,0,0,0-.44-.18.66.66,0,0,0-.45.25c-.37.35-.74.72-1.11,1.1A.65.65,0,0,1,15,20.09Z"/><path class="cls-2" d="M22.3,29.1H22a.66.66,0,0,1-.5-.23.57.57,0,0,1-.1-.42A.54.54,0,0,1,22,28h.44a2.38,2.38,0,0,0,.91-.18,2.44,2.44,0,0,0-.84-4.7,2.31,2.31,0,0,0-2.24,1.28,2.34,2.34,0,0,0,.2,2.63.57.57,0,0,1,0,.82l0,0a.54.54,0,0,1-.34.12.7.7,0,0,1-.53-.33,3.42,3.42,0,0,1-.7-1.84A3.75,3.75,0,0,1,22.11,22h.26a3.68,3.68,0,0,1,3.57,3A3.62,3.62,0,0,1,22.82,29a2.69,2.69,0,0,1-.4,0Z"/><path class="cls-2" d="M17.14,33.7A1.72,1.72,0,0,1,16,33.23c-.43-.4-.85-.83-1.21-1.21a1.64,1.64,0,0,1-.47-1L14.12,31l.08-.18.12-.33c.09-.21.17-.43.28-.63a5.58,5.58,0,0,1,.44-.64l.09-.12c0-.16-.12-.31-.15-.48s-.15-.31-.5-.35a4.61,4.61,0,0,1-1.16-.3,1.56,1.56,0,0,1-.93-1.45,5.81,5.81,0,0,1,0-.59.53.53,0,0,1,.51-.55h0a.55.55,0,0,1,.59.51h0v.47c0,.43.13.59.53.69a8.84,8.84,0,0,0,.92.17h.17a.89.89,0,0,1,.72.57l.08.18c.09.23.19.47.29.7a.9.9,0,0,1-.11,1c-.21.28-.42.57-.62.87a.53.53,0,0,0,0,.74l0,0c.38.41.78.81,1.19,1.19a.56.56,0,0,0,.38.19.72.72,0,0,0,.37-.13l.51-.36.43-.3a.62.62,0,0,1,.37-.16.75.75,0,0,1,.58.31.62.62,0,0,1-.17.68c-.33.25-.69.5-1.11.77A1.81,1.81,0,0,1,17.14,33.7Z"/><path class="cls-2" d="M12.93,25.38c-.21,0-.35-.18-.47-.34a.48.48,0,0,1-.08-.31,1.77,1.77,0,0,1,1.38-1.67,4.54,4.54,0,0,1,.51-.09,1.7,1.7,0,0,0,.51-.1c.35-.68.35-.68,0-1.26a6.65,6.65,0,0,1-.39-.63.58.58,0,0,1,0-.41.6.6,0,0,1,.55-.39.56.56,0,0,1,.48.28c.23.35.48.74.75,1.11a.92.92,0,0,1,.1.93l-.06.16c-.1.23-.19.47-.28.7a1,1,0,0,1-.78.61l-1,.17a.58.58,0,0,0-.55.61h0a.39.39,0,0,1-.1.31.74.74,0,0,1-.46.31h-.06Z"/></svg>