<svg id="Layer_1" data-name="Layer 1" xmlns="http://www.w3.org/2000/svg" xmlns:xlink="http://www.w3.org/1999/xlink" width="196.44" height="22.45" viewBox="0 0 196.44 22.45"><defs><style>.cls-1,.cls-3{fill:none;}.cls-2{fill:#fff;}.cls-3{stroke:#d5211e;stroke-linecap:round;stroke-miterlimit:10;}.cls-4{opacity:0.2;}.cls-5{clip-path:url(#clip-path);}.cls-6{fill:url(#radial-gradient);}.cls-7{fill:url(#radial-gradient-2);}</style><clipPath id="clip-path"><polygon class="cls-1" points="304.96 146.92 0.5 146.92 0.5 52.46 304.96 52.5 304.96 146.92"/></clipPath><radialGradient id="radial-gradient" cx="1098.1" cy="56.96" r="139.05" gradientTransform="matrix(1.95, 0, 0, -1.36, -1901.91, 186.39)" gradientUnits="userSpaceOnUse"><stop offset="0" stop-color="#e7e7e7"/><stop offset="0.62" stop-color="#cbcbcb"/><stop offset="0.69" stop-color="#c7c7c7"/><stop offset="0.76" stop-color="#bbb"/><stop offset="0.82" stop-color="#ababab"/><stop offset="1" stop-color="#c3c3c3"/></radialGradient><radialGradient id="radial-gradient-2" cx="1076.43" cy="91.41" r="116.5" gradientTransform="matrix(1.95, 0, 0, -1.36, -1901.91, 186.39)" gradientUnits="userSpaceOnUse"><stop offset="0.22" stop-color="#fefefe"/><stop offset="0.39" stop-color="#f5f5f5"/><stop offset="0.66" stop-color="#ddd"/><stop offset="0.77" stop-color="#d2d2d2"/><stop offset="0.86" stop-color="#dadada"/><stop offset="1" stop-color="#ddd"/></radialGradient></defs><title>Weather_dashboard_Sprite</title><path class="cls-2" d="M11.73,0h173a11.23,11.23,0,0,1,11.23,11.23h0a11.23,11.23,0,0,1-11.23,11.23h-173A11.23,11.23,0,0,1,.5,11.22h0A11.23,11.23,0,0,1,11.73,0Z"/><path class="cls-3" d="M2.42,17.42A11.18,11.18,0,0,1,.5,11.16h0A11.12,11.12,0,0,1,2.33,5"/><path class="cls-3" d="M194,5a11.22,11.22,0,0,1,1.92,6.27h0a11.09,11.09,0,0,1-1.83,6.12"/><g class="cls-4"><g class="cls-5"><path class="cls-6" d="M62.21,12.89c1.95.26,31.42,3.46,54.18-1.7,30.55-5.63,58.06-18.06,89.34-21.41,2.45.13,4.88.33,7.26.59C224.84-9,239.81-6,258,2a195.86,195.86,0,0,0-52.64-20,138.71,138.71,0,0,0-40.61-2.07c-19.43,1.69-26.12,6.11-41,7.73-9.16,1-15,.57-16.09-2.08s7.76-5.7,14.39-7.21C96.33-18.17,72.74-10.57,52.76.14c-.14.1-.27.21-.4.32C43.21,8.18,55.17,11.93,62.21,12.89Z"/><path class="cls-7" d="M12.27,42.69c9.17-6.9,16.72-11.21,24-14a54,54,0,0,1,17.42-4.64c2.61-.26,5.2-.42,7.76-.5s5.17-.4,8-.59c38.33,2.9,74.65,19,113.3,20.85,21.9.44,115.6-5.76,123.36,2.42-10.52-17.07-26.76-32-47-43.67-9.35-3.92-27.16-14-53.29-12.78-36.66,1.68-60,14.64-90.57,20.27-14.93,2.76-30.3,4.16-46.6,2.62q-2.88-.27-5.81-.66C55.84,11,43.3,8.18,52.47.44l.39-.32C28.5,13.12,9.5,30.7-1.45,51,1.5,50.78,2.57,50,12.27,42.69Z"/></g></g></svg>