<svg xmlns="http://www.w3.org/2000/svg" width="20.6" height="21.04" viewBox="0 0 20.6 21.04"><defs><style>.a{fill:#999;}</style></defs><title>KH_Sprite</title><path class="a" d="M16.56,13.66h.75v1h-.75Zm0-3.93h.75v2h-.75Zm0-3.14a6,6,0,0,0,0-.74l.74-.1a5.92,5.92,0,0,1,0,.84V7.77h-.75Zm-1.63-4,.54-.52a6.39,6.39,0,0,1,1.19,1.69L16,4.09A6,6,0,0,0,14.93,2.59ZM11.72.86l.14-.73a6.77,6.77,0,0,1,2,.69l-.35.66A6.34,6.34,0,0,0,11.72.86ZM0,0H2V.75H0ZM3.93,0h2V.75h-2ZM7.86,0h2V.75h-2Z"/><polygon class="a" points="16.94 21.04 20.6 12.09 16.94 14.21 13.28 12.09 16.94 21.04"/></svg>