<svg xmlns="http://www.w3.org/2000/svg" xmlns:xlink="http://www.w3.org/1999/xlink" width="149.9" height="10.17" viewBox="0 0 149.9 10.17"><defs><style>.a,.ef{fill:none;}.b{isolation:isolate;}.c{fill:url(#a);}.d{opacity:0.4;}.e{clip-path:url(#b);}.f{opacity:0.95;mix-blend-mode:multiply;}.g{fill:#fff;opacity:0;}.h{fill:#fefefe;opacity:0.01;}.i{fill:#fdfdfd;opacity:0.02;}.j{fill:#fcfcfc;opacity:0.02;}.k{fill:#fbfbfb;opacity:0.03;}.l{fill:#fafafa;opacity:0.04;}.m{fill:#f9f9f9;opacity:0.05;}.n{fill:#f8f8f8;opacity:0.05;}.o{fill:#f7f7f7;opacity:0.06;}.p{fill:#f6f6f6;opacity:0.07;}.q{fill:#f5f5f5;opacity:0.08;}.r{fill:#f4f4f4;opacity:0.09;}.s{fill:#f3f3f3;opacity:0.09;}.t{fill:#f2f2f2;opacity:0.1;}.u{fill:#f1f1f1;opacity:0.11;}.v{fill:#f0f0f0;opacity:0.12;}.w{fill:#efefef;opacity:0.13;}.x{fill:#eee;opacity:0.13;}.y{fill:#ededed;opacity:0.14;}.z{fill:#ececec;opacity:0.15;}.aa{fill:#ebebeb;opacity:0.16;}.ab{fill:#eaeaea;opacity:0.16;}.ac{fill:#e9e9e9;opacity:0.17;}.ad{fill:#e8e8e8;opacity:0.18;}.ae{fill:#e7e7e7;opacity:0.19;}.af{fill:#e6e6e6;opacity:0.2;}.ag{fill:#e5e5e5;opacity:0.2;}.ah{fill:#e4e4e4;opacity:0.21;}.ai{fill:#e3e3e3;opacity:0.22;}.aj{fill:#e2e2e2;opacity:0.23;}.ak{fill:#e1e1e1;opacity:0.23;}.al{fill:#e0e0e0;opacity:0.24;}.am{fill:#dfdfdf;opacity:0.25;}.an{fill:#dedede;opacity:0.26;}.ao{fill:#ddd;opacity:0.27;}.ap{fill:#dcdcdc;opacity:0.27;}.aq{fill:#dbdbdb;opacity:0.28;}.ar{fill:#dadada;opacity:0.29;}.as{fill:#d9d9d9;opacity:0.3;}.at{fill:#d8d8d8;opacity:0.3;}.au{fill:#d7d7d7;opacity:0.31;}.av{fill:#d6d6d6;opacity:0.32;}.aw{fill:#d5d5d5;opacity:0.33;}.ax{fill:#d4d4d4;opacity:0.34;}.ay{fill:#d3d3d3;opacity:0.34;}.az{fill:#d2d2d2;opacity:0.35;}.ba{fill:#d1d1d1;opacity:0.36;}.bb{fill:#d0d0d0;opacity:0.37;}.bc{fill:#cfcfcf;opacity:0.38;}.bd{fill:#cecece;opacity:0.38;}.be{fill:#cdcdcd;opacity:0.39;}.bf{fill:#ccc;opacity:0.4;}.bg{fill:#cbcbcb;opacity:0.41;}.bh{fill:#cacaca;opacity:0.41;}.bi{fill:#c9c9c9;opacity:0.42;}.bj{fill:#c8c8c8;opacity:0.43;}.bk{fill:#c7c7c7;opacity:0.44;}.bl{fill:#c6c6c6;opacity:0.45;}.bm{fill:#c5c5c5;opacity:0.45;}.bn{fill:#c4c4c4;opacity:0.46;}.bo{fill:#c3c3c3;opacity:0.47;}.bp{fill:#c2c2c2;opacity:0.48;}.bq{fill:#c1c1c1;opacity:0.48;}.br{fill:silver;opacity:0.49;}.bs{fill:#bfbfbf;opacity:0.5;}.bt{fill:#bebebe;opacity:0.51;}.bu{fill:#bdbdbd;opacity:0.52;}.bv{fill:#bcbcbc;opacity:0.52;}.bw{fill:#bbb;opacity:0.53;}.bx{fill:#bababa;opacity:0.54;}.by{fill:#b9b9b9;opacity:0.55;}.bz{fill:#b8b8b8;opacity:0.55;}.ca{fill:#b7b7b7;opacity:0.56;}.cb{fill:#b6b6b6;opacity:0.57;}.cc{fill:#b5b5b5;opacity:0.58;}.cd{fill:#b4b4b4;opacity:0.59;}.ce{fill:#b3b3b3;opacity:0.59;}.cf{fill:#b2b2b2;opacity:0.6;}.cg{fill:#b1b1b1;opacity:0.61;}.ch{fill:#b0b0b0;opacity:0.62;}.ci{fill:#afafaf;opacity:0.63;}.cj{fill:#aeaeae;opacity:0.63;}.ck{fill:#adadad;opacity:0.64;}.cl{fill:#acacac;opacity:0.65;}.cm{fill:#ababab;opacity:0.66;}.cn{fill:#aaa;opacity:0.66;}.co{fill:#a9a9a9;opacity:0.67;}.cp{fill:#a8a8a8;opacity:0.68;}.cq{fill:#a7a7a7;opacity:0.69;}.cr{fill:#a6a6a6;opacity:0.7;}.cs{fill:#a5a5a5;opacity:0.7;}.ct{fill:#a4a4a4;opacity:0.71;}.cu{fill:#a3a3a3;opacity:0.72;}.cv{fill:#a2a2a2;opacity:0.73;}.cw{fill:#a1a1a1;opacity:0.73;}.cx{fill:#a0a0a0;opacity:0.74;}.cy{fill:#9f9f9f;opacity:0.75;}.cz{fill:#9e9e9e;opacity:0.76;}.da{fill:#9d9d9d;opacity:0.77;}.db{fill:#9c9c9c;opacity:0.77;}.dc{fill:#9b9b9b;opacity:0.78;}.dd{fill:#9a9a9a;opacity:0.79;}.de{fill:#999;opacity:0.8;}.df{fill:#989898;opacity:0.8;}.dg{fill:#979797;opacity:0.81;}.dh{fill:#969696;opacity:0.82;}.di{fill:#959595;opacity:0.83;}.dj{fill:#949494;opacity:0.84;}.dk{fill:#939393;opacity:0.84;}.dl{fill:#929292;opacity:0.85;}.dm{fill:#919191;opacity:0.86;}.dn{fill:#909090;opacity:0.87;}.do{fill:#8f8f8f;opacity:0.88;}.dp{fill:#8e8e8e;opacity:0.88;}.dq{fill:#8d8d8d;opacity:0.89;}.dr{fill:#8c8c8c;opacity:0.9;}.ds{fill:#8b8b8b;opacity:0.91;}.dt{fill:#8a8a8a;opacity:0.91;}.du{fill:#898989;opacity:0.92;}.dv{fill:#888;opacity:0.93;}.dw{fill:#878787;opacity:0.94;}.dx{fill:#868686;opacity:0.95;}.dy{fill:#858585;opacity:0.95;}.dz{fill:#848484;opacity:0.96;}.ea{fill:#838383;opacity:0.97;}.eb{fill:#828282;opacity:0.98;}.ec{fill:#818181;opacity:0.98;}.ed{fill:gray;opacity:0.99;}.ee{fill:#7f7f7f;}.ef{stroke:#fff;stroke-miterlimit:10;stroke-width:1.5px;}</style><linearGradient id="a" x1="2806.04" y1="3334.28" x2="2806.04" y2="3484.16" gradientTransform="translate(-2731.09 -3406.14)" gradientUnits="userSpaceOnUse"><stop offset="0" stop-color="#e8e8e8" stop-opacity="0.05"/><stop offset="1" stop-color="#231f20" stop-opacity="0.1"/></linearGradient><clipPath id="b"><polygon class="a" points="0.02 10.17 149.9 10.11 149.88 3.92 0 3.99 0.02 10.17"/></clipPath></defs><title>KH_Sprite</title><g class="b"><rect class="c" x="71.87" y="-71.86" width="6.16" height="149.88" transform="translate(78.03 -71.87) rotate(90)"/><g class="d"><g class="e"><g class="f"><path class="g" d="M4.61,2.87c8.11-1.51,131.66-1.53,139.78-.05,2.25.41,6.77.25,6.42,1.34-.58,1.86-9.94,3.08-13.48,3-5.12-.16-18.5-.2-20.55-.2S51.13,7,46,7.16c-3.54.13-48-1.08-48.6-2.93C-2.94,3.14,2.36,3.28,4.61,2.87Z"/><path class="h" d="M4.94,2.87C13,1.37,136.22,1.35,144.32,2.82c2.25.41,6.76.25,6.42,1.33-.59,1.85-9.93,3.07-13.46,3-5.11-.16-18.46-.21-20.5-.21S51.16,7,46.05,7.14C42.53,7.26-1.64,6.07-2.24,4.22-2.59,3.14,2.7,3.28,4.94,2.87Z"/><path class="i" d="M5.27,2.87c8.08-1.49,130.9-1.51,139-.05,2.24.41,6.74.25,6.4,1.33-.58,1.83-9.91,3-13.43,2.93-5.09-.16-18.41-.2-20.45-.2s-65.58,0-70.68.23c-3.51.12-47.39-1.06-48-2.89C-2.23,3.14,3,3.28,5.27,2.87Z"/><path class="j" d="M5.61,2.87c8.05-1.48,130.52-1.5,138.58-.05,2.24.4,6.73.25,6.39,1.32-.58,1.83-9.89,3-13.39,2.91-5.09-.15-18.38-.2-20.41-.19s-65.54,0-70.63.22C42.65,7.21-.94,6-1.53,4.21-1.88,3.14,3.38,3.28,5.61,2.87Z"/><path class="k" d="M5.94,2.87c8-1.47,130.14-1.49,138.19-.05,2.23.4,6.71.25,6.37,1.32-.58,1.81-9.86,3-13.36,2.89-5.08-.16-18.33-.2-20.36-.2s-65.51,0-70.58.23C42.7,7.18-.58,6-1.18,4.2-1.53,3.14,3.72,3.27,5.94,2.87Z"/><path class="l" d="M6.27,2.87c8-1.46,129.76-1.48,137.79-.05,2.22.4,6.7.26,6.36,1.31-.58,1.81-9.84,3-13.33,2.87-5.06-.15-18.29-.2-20.31-.19S51.31,6.86,46.25,7C42.76,7.15-.23,6-.82,4.2-1.17,3.15,4.05,3.27,6.27,2.87Z"/><path class="m" d="M6.61,2.87C14.6,1.41,136,1.4,144,2.82c2.21.39,6.68.26,6.34,1.31-.57,1.79-9.82,3-13.3,2.85-5-.16-18.24-.2-20.26-.2S51.35,6.83,46.3,7C42.82,7.13.12,6-.47,4.19-.82,3.15,4.39,3.27,6.61,2.87Z"/><path class="n" d="M6.94,2.87c8-1.45,129-1.47,137-.05,2.21.39,6.67.26,6.33,1.3C149.69,5.9,140.46,7.06,137,7c-5-.16-18.2-.2-20.21-.19s-65.4,0-70.43.22C42.87,7.1.47,6-.12,4.19-.46,3.15,4.73,3.26,6.94,2.87Z"/><path class="o" d="M7.28,2.87c8-1.44,128.62-1.46,136.58-.05,2.21.39,6.66.26,6.32,1.3-.57,1.77-9.77,2.91-13.24,2.8-5-.15-18.15-.19-20.16-.19S51.42,6.78,46.4,7C42.93,7.07.82,6,.24,4.18-.11,3.15,5.07,3.26,7.28,2.87Z"/><path class="p" d="M7.61,2.86c7.94-1.42,128.24-1.44,136.19,0,2.2.39,6.64.26,6.3,1.29-.57,1.76-9.75,2.89-13.21,2.79-5-.16-18.11-.2-20.11-.19s-65.32,0-70.33.22C43,7.05,1.17,5.94.59,4.18.24,3.15,5.41,3.26,7.61,2.86Z"/><path class="q" d="M7.94,2.86c7.92-1.41,127.86-1.43,135.79,0,2.2.38,6.63.26,6.3,1.29-.57,1.74-9.74,2.87-13.19,2.76-5-.15-18.06-.19-20.06-.19s-65.29.05-70.29.22c-3.44.12-45-1-45.55-2.73C.6,3.15,5.75,3.26,7.94,2.86Z"/><path class="r" d="M8.28,2.86c7.9-1.4,127.48-1.42,135.39,0,2.19.38,6.61.26,6.28,1.28-.57,1.74-9.72,2.85-13.16,2.75-5-.16-18-.2-20-.19s-65.25,0-70.24.21C43.1,7,1.88,5.9,1.29,4.17,1,3.15,6.09,3.25,8.28,2.86Z"/><path class="s" d="M8.61,2.86c7.88-1.39,127.1-1.41,135,0,2.19.38,6.6.27,6.27,1.28-.57,1.72-9.69,2.82-13.12,2.72-5-.15-18-.19-20-.19s-65.21,0-70.19.22C43.16,7,2.23,5.89,1.65,4.16,1.31,3.16,6.43,3.25,8.61,2.86Z"/><path class="t" d="M8.94,2.86c7.87-1.39,126.72-1.4,134.6,0,2.18.38,6.58.27,6.25,1.27-.57,1.72-9.67,2.81-13.09,2.7-5-.15-17.94-.18-19.92-.18s-65.18,0-70.14.21C43.22,6.94,2.58,5.87,2,4.16,1.66,3.16,6.77,3.25,8.94,2.86Z"/><path class="u" d="M9.28,2.86c7.84-1.38,126.34-1.39,134.19,0,2.17.37,6.57.27,6.24,1.27-.56,1.7-9.65,2.78-13.06,2.68-5-.15-17.89-.19-19.87-.19s-65.14,0-70.09.22c-3.42.11-43.76-1-44.34-2.65C2,3.16,7.11,3.24,9.28,2.86Z"/><path class="v" d="M9.61,2.86c7.83-1.37,126-1.39,133.79,0,2.17.37,6.56.27,6.23,1.26-.56,1.69-9.62,2.76-13,2.66-4.94-.15-17.85-.18-19.82-.18s-65.1.05-70,.21c-3.41.11-43.46-.93-44-2.62C2.37,3.16,7.45,3.24,9.61,2.86Z"/><path class="w" d="M10,2.86c7.8-1.36,125.57-1.38,133.39,0,2.16.37,6.54.27,6.21,1.26-.56,1.68-9.6,2.74-13,2.64-4.93-.15-17.8-.19-19.77-.19s-65.07,0-70,.21c-3.4.12-43.16-.92-43.73-2.6C2.72,3.16,7.78,3.24,10,2.86Z"/><path class="x" d="M10.28,2.86c7.78-1.35,125.2-1.37,133,0,2.16.36,6.53.27,6.2,1.25-.56,1.67-9.58,2.72-13,2.62-4.91-.15-17.76-.18-19.72-.18s-65,0-69.94.21C43.45,6.83,4,5.81,3.41,4.14,3.07,3.16,8.12,3.24,10.28,2.86Z"/><path class="y" d="M10.61,2.86c7.77-1.34,124.82-1.36,132.6,0,2.15.36,6.51.28,6.18,1.25-.55,1.65-9.56,2.69-12.94,2.59-4.9-.14-17.71-.18-19.67-.18s-65,0-69.9.21C43.5,6.8,4.34,5.79,3.77,4.13,3.43,3.16,8.46,3.23,10.61,2.86Z"/><path class="z" d="M11,2.86c7.74-1.33,124.44-1.35,132.19,0,2.15.36,6.5.28,6.18,1.24-.56,1.65-9.54,2.68-12.92,2.58-4.89-.15-17.67-.18-19.62-.18s-65,0-69.85.2c-3.37.12-42.24-.89-42.81-2.53C3.78,3.16,8.8,3.23,11,2.86Z"/><path class="aa" d="M11.28,2.86c7.73-1.33,124.06-1.34,131.8,0,2.14.36,6.48.28,6.16,1.24-.56,1.63-9.52,2.65-12.89,2.55-4.87-.14-17.62-.18-19.57-.18s-64.92.05-69.8.21C43.62,6.75,5,5.76,4.47,4.12,4.14,3.17,9.14,3.23,11.28,2.86Z"/><path class="ab" d="M11.61,2.86c7.71-1.32,123.68-1.33,131.4,0,2.14.35,6.48.28,6.15,1.23-.56,1.63-9.5,2.63-12.86,2.53-4.86-.14-17.58-.17-19.52-.17s-64.88,0-69.75.2c-3.36.11-41.64-.87-42.21-2.49C4.49,3.17,9.48,3.22,11.61,2.86Z"/><path class="ac" d="M12,2.86c7.69-1.31,123.3-1.32,131,0,2.14.35,6.47.28,6.14,1.23-.55,1.61-9.48,2.61-12.82,2.51-4.86-.14-17.54-.18-19.48-.17s-64.85,0-69.7.2c-3.35.1-41.34-.87-41.9-2.48C4.84,3.17,9.82,3.22,12,2.86Z"/><path class="ad" d="M12.28,2.86c7.67-1.3,122.92-1.32,130.6,0C145,3.17,149.33,3.1,149,4c-.55,1.6-9.45,2.59-12.79,2.49-4.85-.14-17.5-.17-19.43-.17s-64.81,0-69.65.2c-3.34.11-41-.85-41.6-2.45C5.2,3.17,10.16,3.22,12.28,2.86Z"/><path class="ae" d="M12.62,2.86c7.65-1.29,122.53-1.31,130.19,0,2.12.35,6.44.28,6.11,1.22-.55,1.59-9.43,2.56-12.76,2.47-4.83-.14-17.45-.18-19.38-.17s-64.78,0-69.6.19c-3.33.11-40.73-.84-41.3-2.43C5.55,3.17,10.5,3.22,12.62,2.86Z"/><path class="af" d="M13,2.86c7.63-1.28,122.16-1.3,129.8,0,2.11.34,6.42.29,6.09,1.21-.55,1.58-9.41,2.55-12.73,2.45-4.82-.14-17.41-.17-19.33-.17s-64.74,0-69.55.2c-3.33.1-40.43-.84-41-2.41C5.91,3.17,10.84,3.21,13,2.86Z"/><path class="ag" d="M13.28,2.86c7.61-1.27,121.78-1.29,129.4,0,2.11.34,6.41.29,6.08,1.21-.54,1.57-9.39,2.52-12.7,2.42-4.81-.13-17.36-.17-19.28-.16s-64.7,0-69.51.19C44,6.59,7.15,5.66,6.59,4.09,6.26,3.17,11.18,3.21,13.28,2.86Z"/><path class="ah" d="M13.62,2.86c7.59-1.27,121.39-1.28,129,0,2.1.34,6.39.29,6.06,1.2-.54,1.56-9.36,2.5-12.67,2.41-4.79-.14-17.32-.17-19.23-.17s-64.67,0-69.46.19C44,6.56,7.5,5.64,6.94,4.08,6.61,3.17,11.51,3.21,13.62,2.86Z"/><path class="ai" d="M14,2.86c7.57-1.26,121-1.27,128.6,0,2.1.34,6.38.29,6.06,1.2-.55,1.54-9.35,2.47-12.65,2.38-4.78-.13-17.27-.17-19.18-.16s-64.63,0-69.41.19c-3.29.1-39.52-.8-40.07-2.35C7,3.18,11.85,3.2,14,2.86Z"/><path class="aj" d="M14.28,2.86c7.56-1.25,120.64-1.26,128.2,0,2.1.33,6.37.29,6.05,1.19-.55,1.54-9.33,2.46-12.62,2.37-4.77-.14-17.23-.17-19.13-.17s-64.59,0-69.36.19C44.13,6.51,8.2,5.61,7.65,4.07,7.32,3.18,12.19,3.2,14.28,2.86Z"/><path class="ak" d="M14.62,2.86c7.53-1.24,120.26-1.25,127.8,0,2.09.33,6.35.29,6,1.19-.54,1.52-9.31,2.43-12.59,2.34-4.75-.13-17.18-.17-19.08-.16s-64.56,0-69.31.19C44.19,6.48,8.56,5.59,8,4.07,7.67,3.18,12.53,3.2,14.62,2.86Z"/><path class="al" d="M15,2.86c7.52-1.23,119.88-1.25,127.4,0,2.09.34,6.34.31,6,1.19-.54,1.51-9.28,2.41-12.56,2.32-4.74-.13-17.14-.16-19-.16s-64.52,0-69.26.19c-3.27.1-38.61-.77-39.17-2.29C8,3.18,12.87,3.2,15,2.86Z"/><path class="am" d="M15.29,2.86c7.49-1.22,119.49-1.24,127,0,2.08.33,6.32.31,6,1.19-.54,1.5-9.26,2.39-12.52,2.3-4.74-.13-17.1-.16-19-.16s-64.48,0-69.21.18c-3.27.1-38.31-.76-38.86-2.26C8.38,3.18,13.21,3.19,15.29,2.86Z"/><path class="an" d="M15.62,2.86c7.48-1.21,119.12-1.23,126.6,0,2.07.33,6.31.31,6,1.18-.54,1.49-9.24,2.37-12.49,2.28-4.72-.13-17.06-.16-18.94-.16s-64.45,0-69.16.19c-3.26.1-38-.76-38.56-2.25C8.74,3.18,13.55,3.19,15.62,2.86Z"/><path class="ao" d="M16,2.86c7.46-1.2,118.74-1.22,126.21,0,2.06.33,6.29.31,6,1.18-.53,1.48-9.22,2.34-12.46,2.26-4.71-.13-17-.16-18.89-.16s-64.41,0-69.12.18c-3.24.1-37.7-.74-38.25-2.22C9.09,3.18,13.89,3.19,16,2.86Z"/><path class="ap" d="M16.29,2.85c7.43-1.19,118.35-1.2,125.8,0,2.06.33,6.28.31,6,1.17-.53,1.47-9.19,2.33-12.43,2.24-4.7-.13-17-.16-18.84-.16s-64.37,0-69.07.18c-3.23.1-37.4-.73-37.94-2.2C9.44,3.19,14.23,3.18,16.29,2.85Z"/><path class="aq" d="M16.62,2.85c7.42-1.18,118-1.19,125.4,0,2.06.32,6.27.31,6,1.17-.54,1.45-9.18,2.3-12.41,2.21C130.89,6.07,118.65,6,116.78,6s-64.34,0-69,.18c-3.23.1-37.09-.73-37.64-2.18C9.8,3.19,14.57,3.18,16.62,2.85Z"/><path class="ar" d="M17,2.85c7.4-1.17,117.6-1.18,125,0,2,.32,6.25.31,5.94,1.16-.54,1.45-9.16,2.28-12.38,2.2C130.85,6,118.64,6,116.78,6s-64.3,0-69,.18C44.59,6.29,11,5.48,10.47,4,10.15,3.19,14.91,3.18,17,2.85Z"/><path class="as" d="M17.29,2.85c7.38-1.16,117.21-1.18,124.6,0,2.05.32,6.24.32,5.93,1.16-.53,1.43-9.13,2.26-12.35,2.17C130.81,6,118.64,6,116.78,6s-64.26,0-68.92.18c-3.21.09-36.49-.71-37-2.14C10.51,3.19,15.25,3.18,17.29,2.85Z"/><path class="at" d="M17.62,2.85C25,1.7,134.46,1.68,141.83,2.81c2,.32,6.22.32,5.91,1.15-.53,1.42-9.11,2.24-12.32,2.16C130.78,6,118.63,6,116.78,6s-64.23,0-68.87.18c-3.21.1-36.19-.7-36.73-2.12C10.86,3.19,15.58,3.17,17.62,2.85Z"/><path class="au" d="M18,2.85c7.34-1.14,116.45-1.16,123.8,0,2,.31,6.21.32,5.9,1.15-.53,1.41-9.09,2.21-12.29,2.13-4.63-.12-16.74-.15-18.59-.15S52.59,6,48,6.11c-3.2.1-35.89-.68-36.43-2.09C11.21,3.19,15.92,3.17,18,2.85Z"/><path class="av" d="M18.29,2.85c7.32-1.13,116.08-1.15,123.41,0,2,.31,6.19.32,5.88,1.14-.53,1.4-9.07,2.2-12.26,2.11-4.62-.12-16.7-.15-18.54-.14S52.63,6,48,6.09C44.82,6.18,12.42,5.41,11.88,4,11.57,3.19,16.26,3.17,18.29,2.85Z"/><path class="aw" d="M18.62,2.85c7.31-1.13,115.7-1.14,123,0,2,.31,6.18.32,5.87,1.14-.52,1.39-9,2.17-12.22,2.09-4.61-.12-16.66-.15-18.5-.15s-64.12,0-68.73.17c-3.17.09-35.28-.66-35.81-2C11.92,3.19,16.6,3.16,18.62,2.85Z"/><path class="ax" d="M19,2.85c7.28-1.12,115.31-1.13,122.6,0,2,.3,6.17.32,5.86,1.13-.52,1.38-9,2.15-12.19,2.07-4.6-.12-16.62-.15-18.45-.14S52.7,5.9,48.1,6c-3.17.1-35-.65-35.51-2C12.27,3.2,16.94,3.16,19,2.85Z"/><path class="ay" d="M19.29,2.85c7.26-1.11,114.94-1.12,122.21,0,2,.3,6.15.33,5.84,1.13-.52,1.36-9,2.13-12.16,2-4.59-.11-16.57-.14-18.4-.14s-64,0-68.63.17C45,6.1,13.48,5.36,12.94,4,12.63,3.2,17.28,3.16,19.29,2.85Z"/><path class="az" d="M19.62,2.85c7.25-1.1,114.56-1.11,121.81,0,2,.3,6.14.33,5.84,1.12-.53,1.36-9,2.11-12.14,2-4.57-.12-16.53-.15-18.35-.14s-64,0-68.58.16c-3.15.09-34.37-.63-34.9-2C13,3.2,17.62,3.16,19.62,2.85Z"/><path class="ba" d="M20,2.85c7.22-1.09,114.17-1.11,121.41,0,2,.3,6.12.33,5.82,1.12-.53,1.34-9,2.08-12.11,2-4.56-.11-16.48-.14-18.3-.14s-64,0-68.53.17c-3.15.09-34.07-.63-34.6-2C13.34,3.2,18,3.15,20,2.85Z"/><path class="bb" d="M20.29,2.85c7.21-1.08,113.8-1.1,121,0,2,.29,6.11.33,5.81,1.11-.52,1.34-8.94,2.07-12.08,2-4.55-.12-16.44-.15-18.25-.14s-63.93,0-68.48.16C45.16,6,14.53,5.31,14,4,13.69,3.2,18.3,3.15,20.29,2.85Z"/><path class="bc" d="M20.63,2.85c7.18-1.07,113.41-1.09,120.61,0,2,.29,6.09.33,5.79,1.11-.52,1.32-8.92,2-12.05,2-4.54-.11-16.39-.14-18.2-.14s-63.9,0-68.43.16C45.22,6,14.88,5.3,14.35,4,14,3.2,18.64,3.15,20.63,2.85Z"/><path class="bd" d="M21,2.85c7.17-1.07,113-1.08,120.21,0,2,.29,6.08.33,5.78,1.1-.52,1.31-8.9,2-12,1.94-4.52-.11-16.35-.13-18.15-.13s-63.86,0-68.38.16C45.28,6,15.24,5.28,14.71,4,14.4,3.2,19,3.14,21,2.85Z"/><path class="be" d="M21.29,2.85C28.44,1.79,134,1.78,141.1,2.81c2,.29,6.07.33,5.77,1.1-.52,1.3-8.87,2-12,1.92-4.51-.11-16.3-.14-18.1-.14s-63.82,0-68.33.16C45.33,5.94,15.59,5.26,15.06,4,14.75,3.2,19.31,3.14,21.29,2.85Z"/><path class="bf" d="M21.63,2.85c7.13-1,112.27-1.06,119.41,0,2,.28,6.05.34,5.75,1.09-.51,1.29-8.85,2-12,1.9-4.5-.11-16.26-.13-18.05-.13S53,5.7,48.49,5.82c-3.1.09-32.55-.57-33.08-1.86C15.11,3.21,19.65,3.14,21.63,2.85Z"/><path class="bg" d="M22,2.85c7.11-1,111.9-1,119,0,2,.28,6,.34,5.74,1.09-.51,1.27-8.83,1.95-11.92,1.88-4.49-.11-16.22-.14-18-.14S53,5.67,48.54,5.8C45.45,5.88,16.29,5.23,15.77,4,15.46,3.21,20,3.14,22,2.85Z"/><path class="bh" d="M22.3,2.85c7.08-1,111.51-1,118.61,0,2,.28,6,.34,5.72,1.08-.51,1.27-8.81,1.94-11.89,1.86-4.48-.11-16.18-.13-18-.13s-63.71,0-68.19.15C45.5,5.86,16.64,5.22,16.12,4,15.81,3.21,20.33,3.13,22.3,2.85Z"/><path class="bi" d="M22.63,2.85c7.07-1,111.13-1,118.21,0,2,.28,6,.34,5.72,1.08-.52,1.25-8.79,1.91-11.87,1.83-4.47-.1-16.13-.13-17.91-.13s-63.68,0-68.14.16C45.56,5.83,17,5.2,16.47,3.94,16.17,3.21,20.67,3.13,22.63,2.85Z"/><path class="bj" d="M23,2.85c7.05-1,110.76-1,117.82,0,1.95.27,6,.34,5.7,1.07-.51,1.25-8.77,1.89-11.84,1.82-4.45-.11-16.09-.13-17.86-.13s-63.64,0-68.09.15c-3.07.08-31.35-.54-31.86-1.78C16.52,3.21,21,3.13,23,2.85Z"/><path class="bk" d="M23.3,2.85c7-1,110.37-1,117.41,0,1.95.27,6,.34,5.69,1.07-.51,1.23-8.75,1.86-11.81,1.79-4.44-.1-16-.13-17.81-.13s-63.6,0-68,.15c-3.06.09-31-.52-31.56-1.76C16.87,3.21,21.35,3.12,23.3,2.85Z"/><path class="bl" d="M23.63,2.85c7-1,110-1,117,0,2,.27,6,.34,5.68,1.06-.51,1.22-8.73,1.85-11.78,1.78-4.43-.11-16-.13-17.76-.13s-63.57,0-68,.15c-3.06.08-30.74-.52-31.26-1.74C17.23,3.21,21.69,3.12,23.63,2.85Z"/><path class="bm" d="M24,2.85c7-1,109.62-1,116.62,0,1.94.26,6,.35,5.66,1.06-.51,1.21-8.7,1.82-11.75,1.75-4.41-.1-16-.13-17.71-.13s-63.53,0-67.94.15c-3.05.08-30.44-.51-31-1.72C17.58,3.22,22,3.12,24,2.85Z"/><path class="bn" d="M24.3,2.85c7-1,109.23-1,116.21,0,1.94.26,6,.35,5.65,1-.5,1.2-8.68,1.8-11.72,1.73-4.4-.1-15.91-.12-17.66-.12s-63.49,0-67.9.14c-3,.09-30.13-.49-30.64-1.69C17.94,3.22,22.37,3.12,24.3,2.85Z"/><path class="bo" d="M24.63,2.85c7-1,108.86-1,115.82,0,1.92.26,5.93.35,5.63,1-.5,1.18-8.66,1.78-11.69,1.71-4.39-.1-15.86-.13-17.61-.12s-63.46,0-67.85.14c-3,.08-29.83-.49-30.34-1.68C18.29,3.22,22.71,3.11,24.63,2.85Z"/><path class="bp" d="M25,2.84c6.93-.95,108.47-1,115.41,0,1.92.26,5.92.35,5.62,1-.5,1.18-8.63,1.76-11.66,1.69-4.37-.1-15.82-.12-17.56-.12s-63.42,0-67.8.14c-3,.08-29.53-.48-30-1.65C18.64,3.22,23,3.11,25,2.84Z"/><path class="bq" d="M25.3,2.84c6.91-.94,108.09-1,115,0,1.91.25,5.9.35,5.6,1-.5,1.17-8.61,1.74-11.62,1.68-4.37-.1-15.78-.13-17.52-.12S53.4,5.42,49,5.54C46,5.62,19.81,5.07,19.3,3.9,19,3.22,23.38,3.11,25.3,2.84Z"/><path class="br" d="M25.63,2.84c6.9-.93,107.72-.95,114.62,0,1.91.25,5.89.35,5.6,1-.5,1.16-8.6,1.72-11.6,1.65-4.36-.1-15.74-.12-17.47-.12s-63.35,0-67.7.14c-3,.08-28.92-.46-29.43-1.61C19.35,3.22,23.72,3.1,25.63,2.84Z"/><path class="bs" d="M26,2.84c6.87-.93,107.33-.94,114.21,0,1.91.25,5.88.36,5.59,1-.5,1.15-8.58,1.7-11.57,1.63-4.34-.09-15.69-.12-17.42-.11s-63.31,0-67.65.13C46.13,5.56,20.51,5,20,3.89,19.71,3.22,24.06,3.1,26,2.84Z"/><path class="bt" d="M26.3,2.84c6.86-.92,107-.93,113.82,0,1.9.25,5.86.36,5.57,1-.5,1.13-8.55,1.67-11.54,1.61-4.33-.1-15.65-.12-17.37-.12s-63.27,0-67.6.14c-3,.07-28.32-.44-28.82-1.57C20.06,3.22,24.4,3.1,26.3,2.84Z"/><path class="bu" d="M26.63,2.84c6.84-.91,106.58-.92,113.42,0,1.9.24,5.85.36,5.56,1-.5,1.13-8.53,1.66-11.51,1.59-4.32-.09-15.6-.12-17.32-.11s-63.24,0-67.55.13c-3,.08-28-.43-28.52-1.55C20.41,3.23,24.74,3.1,26.63,2.84Z"/><path class="bv" d="M27,2.84c6.82-.9,106.19-.91,113,0,1.89.24,5.83.36,5.54,1C145,4.93,137,5.45,134.05,5.39c-4.3-.1-15.56-.12-17.27-.12s-63.2,0-67.51.13c-3,.08-27.71-.41-28.21-1.52C20.77,3.23,25.08,3.09,27,2.84Z"/><path class="bw" d="M27.3,2.84c6.8-.89,105.81-.9,112.62,0,1.89.24,5.82.36,5.53,1C145,4.92,137,5.42,134,5.36c-4.29-.09-15.51-.11-17.22-.11s-63.16,0-67.46.13c-3,.07-27.41-.41-27.91-1.51C21.12,3.23,25.42,3.09,27.3,2.84Z"/><path class="bx" d="M27.64,2.84c6.78-.88,105.43-.9,112.22,0,1.87.23,5.8.36,5.51,1C144.88,4.9,136.91,5.4,134,5.33c-4.28-.09-15.47-.11-17.17-.11s-63.13,0-67.41.13c-2.95.08-27.1-.4-27.6-1.48C21.47,3.23,25.76,3.09,27.64,2.84Z"/><path class="by" d="M28,2.84C34.73,2,133,2,139.79,2.81c1.87.23,5.79.36,5.5,1-.49,1.08-8.44,1.57-11.39,1.51-4.26-.09-15.42-.11-17.12-.11s-63.09,0-67.36.13c-2.94.07-26.8-.39-27.3-1.47C21.83,3.23,26.1,3.08,28,2.84Z"/><path class="bz" d="M28.3,2.84C35.05,2,133,2,139.72,2.81c1.87.23,5.78.37,5.49,1-.48,1.07-8.42,1.54-11.36,1.48-4.25-.09-15.37-.11-17.07-.11s-63,0-67.31.13c-2.94.07-26.5-.38-27-1.45C22.18,3.23,26.44,3.08,28.3,2.84Z"/><path class="ca" d="M28.64,2.84c6.72-.86,104.29-.87,111,0,1.86.23,5.76.37,5.48,1-.49,1.06-8.41,1.53-11.33,1.46-4.25-.09-15.34-.1-17-.1s-63,0-67.26.12c-2.93.08-26.2-.37-26.69-1.42C22.54,3.23,26.77,3.08,28.64,2.84Z"/><path class="cb" d="M29,2.84c6.7-.85,103.91-.86,110.62,0,1.86.22,5.75.37,5.47,1-.49,1-8.38,1.5-11.3,1.44-4.24-.09-15.29-.11-17-.11s-63,0-67.21.13c-2.92.07-25.9-.36-26.39-1.41C22.89,3.23,27.11,3.08,29,2.84Z"/><path class="cc" d="M29.3,2.84C36,2,132.84,2,139.53,2.81c1.85.22,5.73.37,5.45,1-.49,1-8.36,1.48-11.27,1.42-4.22-.09-15.25-.1-16.93-.1s-62.95,0-67.16.12c-2.91.07-25.6-.35-26.09-1.38C23.24,3.24,27.45,3.07,29.3,2.84Z"/><path class="cd" d="M29.64,2.84C36.3,2,132.79,2,139.46,2.81c1.85.22,5.72.37,5.44,1-.48,1-8.34,1.46-11.24,1.4-4.21-.09-15.2-.11-16.88-.11s-62.91,0-67.12.12c-2.9.07-25.29-.34-25.77-1.36C23.6,3.24,27.79,3.07,29.64,2.84Z"/><path class="ce" d="M30,2.84C36.62,2,132.74,2,139.4,2.8c1.84.23,5.7.38,5.42,1-.48,1-8.32,1.44-11.21,1.38-4.2-.09-15.16-.1-16.83-.1s-62.87,0-67.07.12c-2.89.07-25-.33-25.47-1.34C24,3.24,28.13,3.07,30,2.84Z"/><path class="cf" d="M30.31,2.84c6.62-.81,102.39-.83,109,0,1.84.22,5.69.39,5.41,1-.48,1-8.29,1.41-11.18,1.35C129.38,5,118.45,5,116.78,5s-62.84,0-67,.12c-2.88.07-24.68-.32-25.17-1.32C24.31,3.24,28.47,3.06,30.31,2.84Z"/><path class="cg" d="M30.64,2.84c6.61-.81,102-.82,108.62,0,1.83.22,5.68.39,5.4,1-.48,1-8.27,1.4-11.15,1.34C129.34,5,118.44,5,116.78,5s-62.8,0-67,.12c-2.88.06-24.38-.31-24.87-1.3C24.66,3.24,28.81,3.06,30.64,2.84Z"/><path class="ch" d="M31,2.84C37.56,2,132.6,2,139.2,2.8c1.82.22,5.66.39,5.38,1-.47,1-8.25,1.37-11.12,1.31C129.3,5,118.44,5,116.78,5S54,5,49.86,5.09C47,5.16,25.78,4.79,25.3,3.81,25,3.24,29.15,3.06,31,2.84Z"/><path class="ci" d="M31.31,2.84c6.57-.79,101.25-.8,107.82,0,1.82.22,5.65.39,5.37,1-.47,1-8.23,1.35-11.09,1.3-4.14-.09-15-.1-16.63-.1s-62.73,0-66.87.11c-2.86.07-23.78-.29-24.26-1.25C25.37,3.24,29.49,3.06,31.31,2.84Z"/><path class="cj" d="M31.64,2.84c6.55-.78,100.87-.79,107.43,0,1.81.21,5.63.39,5.36,1-.48,1-8.21,1.33-11.06,1.27-4.14-.08-14.94-.1-16.59-.09S54.09,4.94,50,5c-2.85.06-23.48-.28-24-1.24C25.72,3.25,29.83,3.05,31.64,2.84Z"/><path class="ck" d="M32,2.84c6.53-.77,100.5-.78,107,0,1.81.21,5.62.39,5.35.94-.48,1-8.19,1.31-11,1.25-4.13-.08-14.9-.09-16.54-.09S54.13,4.92,50,5c-2.85.07-23.17-.27-23.65-1.21C26.07,3.25,30.17,3.05,32,2.84Z"/><path class="cl" d="M32.31,2.84c6.51-.76,100.11-.77,106.63,0,1.8.21,5.6.39,5.33.94-.47.93-8.17,1.28-11,1.23-4.11-.08-14.85-.1-16.49-.09s-62.62,0-66.73.1c-2.83.07-22.86-.26-23.34-1.19C26.43,3.25,30.5,3.05,32.31,2.84Z"/><path class="cm" d="M32.64,2.84c6.49-.75,99.73-.76,106.23,0,1.8.2,5.59.4,5.32.93-.47.93-8.14,1.27-11,1.21-4.1-.08-14.81-.09-16.44-.09S54.2,4.87,50.1,5c-2.82.06-22.56-.25-23-1.17C26.78,3.25,30.84,3,32.64,2.84Z"/><path class="cn" d="M33,2.84c6.47-.75,99.35-.76,105.82,0,1.8.2,5.58.4,5.31.93-.47.91-8.12,1.24-10.94,1.19-4.09-.08-14.76-.1-16.39-.09s-62.54,0-66.63.1C47.33,5,27.89,4.69,27.42,3.78,27.14,3.25,31.18,3,33,2.84Z"/><path class="co" d="M33.31,2.84c6.45-.74,99-.75,105.43,0,1.79.2,5.56.4,5.29.92-.47.9-8.1,1.22-10.91,1.17-4.07-.08-14.72-.09-16.34-.09s-62.51,0-66.58.11c-2.81.06-22-.24-22.43-1.13C27.49,3.25,31.52,3,33.31,2.84Z"/><path class="cp" d="M33.64,2.84c6.44-.73,98.59-.74,105,0,1.78.2,5.55.4,5.28.92-.46.89-8.08,1.19-10.88,1.14-4.06-.07-14.67-.08-16.29-.08s-62.47,0-66.53.1c-2.8.06-21.66-.22-22.13-1.11C27.84,3.25,31.86,3,33.64,2.84Z"/><path class="cq" d="M34,2.83c6.41-.71,98.21-.72,104.63,0,1.77.19,5.54.4,5.26.91-.46.88-8.05,1.18-10.85,1.13-4.05-.08-14.63-.09-16.24-.09s-62.43,0-66.48.1c-2.79.06-21.36-.21-21.83-1.08C28.2,3.25,32.2,3,34,2.83Z"/><path class="cr" d="M34.31,2.83c6.4-.7,97.83-.71,104.23,0,1.77.19,5.53.4,5.25.91-.46.87-8,1.15-10.82,1.1-4-.07-14.58-.08-16.19-.08s-62.4,0-66.43.1c-2.79.06-21-.21-21.52-1.07C28.55,3.26,32.54,3,34.31,2.83Z"/><path class="cs" d="M34.64,2.83c6.38-.69,97.45-.7,103.84,0,1.76.19,5.51.41,5.24.9-.47.86-8,1.13-10.8,1.09-4-.08-14.54-.09-16.14-.09s-62.36,0-66.38.1c-2.78.06-20.75-.19-21.22-1C28.91,3.26,32.88,3,34.64,2.83Z"/><path class="ct" d="M35,2.83c6.35-.68,97.07-.69,103.43,0,1.76.19,5.5.41,5.23.9-.46.84-8,1.11-10.76,1.06-4-.07-14.5-.08-16.1-.08s-62.32,0-66.33.09c-2.77.06-20.45-.18-20.92-1C29.26,3.26,33.22,3,35,2.83Z"/><path class="cu" d="M35.31,2.83c6.34-.67,96.69-.68,103,0,1.76.18,5.49.41,5.22.89-.46.84-8,1.09-10.73,1-4-.07-14.46-.08-16.05-.08s-62.29,0-66.29.1c-2.76.06-20.14-.17-20.6-1C29.61,3.26,33.56,3,35.31,2.83Z"/><path class="cv" d="M35.65,2.83C42,2.16,132,2.15,138.28,2.8c1.75.18,5.47.41,5.2.89-.46.82-7.95,1.06-10.7,1-4-.07-14.41-.08-16-.08s-62.25,0-66.24.09c-2.75.06-19.84-.16-20.3-1C30,3.26,33.9,3,35.65,2.83Z"/><path class="cw" d="M36,2.83c6.3-.66,95.93-.67,102.23,0,1.75.18,5.46.41,5.19.88-.46.81-7.93,1.05-10.67,1-4-.07-14.37-.08-15.95-.08s-62.21,0-66.19.1c-2.74,0-19.54-.16-20-1C30.32,3.26,34.23,3,36,2.83Z"/><path class="cx" d="M36.31,2.83c6.28-.65,95.55-.66,101.84,0,1.74.17,5.44.41,5.17.88-.45.8-7.91,1-10.64,1-4-.06-14.32-.07-15.9-.07s-62.18,0-66.14.09c-2.73,0-19.23-.14-19.7-.94C30.67,3.26,34.57,3,36.31,2.83Z"/><path class="cy" d="M36.65,2.83c6.26-.64,95.17-.65,101.43,0,1.74.17,5.43.41,5.16.87-.45.79-7.88,1-10.61,1-3.95-.07-14.28-.08-15.85-.08s-62.14,0-66.09.09C48,4.7,31.76,4.51,31.3,3.72,31,3.26,34.91,3,36.65,2.83Z"/><path class="cz" d="M37,2.83c6.24-.63,94.79-.64,101,0,1.72.17,5.41.42,5.14.87-.45.78-7.86,1-10.58.93-3.94-.06-14.23-.07-15.8-.07s-62.1,0-66,.09c-2.72,0-18.63-.13-19.09-.9C31.38,3.27,35.25,3,37,2.83Z"/><path class="da" d="M37.31,2.83c6.23-.62,94.41-.63,100.64,0,1.72.17,5.4.42,5.13.86-.45.77-7.84,1-10.55.92-3.92-.07-14.19-.08-15.75-.07s-62.07,0-66,.08c-2.71,0-18.33-.11-18.79-.88C31.74,3.27,35.59,3,37.31,2.83Z"/><path class="db" d="M37.65,2.83c6.2-.61,94-.62,100.23,0,1.72.16,5.39.42,5.13.86-.45.75-7.83.93-10.53.89-3.91-.06-14.14-.07-15.7-.07s-62,0-65.94.08c-2.71.06-18-.1-18.48-.85C32.09,3.27,35.93,3,37.65,2.83Z"/><path class="dc" d="M38,2.83c6.18-.61,93.65-.62,99.84,0,1.71.16,5.37.42,5.11.85-.45.75-7.8.92-10.5.87-3.9-.06-14.1-.07-15.65-.06s-62,0-65.9.08c-2.69,0-17.72-.1-18.17-.84C32.44,3.27,36.27,3,38,2.83Z"/><path class="dd" d="M38.32,2.83c6.16-.6,93.26-.61,99.43,0,1.71.16,5.36.42,5.1.85-.45.73-7.78.89-10.46.85-3.9-.06-14.06-.07-15.62-.07s-61.95,0-65.84.08c-2.68,0-17.42-.08-17.87-.81C32.8,3.27,36.61,3,38.32,2.83Z"/><path class="de" d="M38.65,2.83c6.14-.59,92.89-.6,99,0,1.7.16,5.34.42,5.08.84-.45.72-7.76.87-10.43.83-3.88-.06-14-.07-15.57-.06s-61.91,0-65.79.08c-2.67,0-17.11-.08-17.56-.8C33.15,3.27,37,3,38.65,2.83Z"/><path class="df" d="M39,2.83c6.13-.58,92.51-.59,98.64,0,1.7.15,5.33.42,5.07.84-.44.71-7.74.85-10.4.81-3.87-.06-14-.07-15.52-.07S54.9,4.39,51,4.46c-2.67,0-16.81-.06-17.26-.77C33.51,3.27,37.29,3,39,2.83Z"/><path class="dg" d="M39.32,2.83c6.1-.57,92.13-.58,98.24,0,1.69.15,5.31.43,5.05.83-.44.7-7.71.83-10.37.79-3.86-.06-13.93-.07-15.47-.06s-61.84,0-65.69.07c-2.66.05-16.51,0-17-.75C33.86,3.28,37.63,3,39.32,2.83Z"/><path class="dh" d="M39.65,2.83c6.09-.56,91.75-.57,97.84,0,1.69.15,5.3.43,5,.83-.44.69-7.69.8-10.34.76-3.84,0-13.88-.06-15.42-.06s-61.8,0-65.64.08c-2.65,0-16.21,0-16.66-.73C34.21,3.28,38,3,39.65,2.83Z"/><path class="di" d="M40,2.83c6.07-.55,91.37-.56,97.44,0,1.68.15,5.29.43,5,.82-.44.68-7.67.79-10.31.75-3.83-.06-13.84-.06-15.37-.06s-61.76,0-65.59.07c-2.64,0-15.91,0-16.35-.71C34.57,3.28,38.3,3,40,2.83Z"/><path class="dj" d="M40.32,2.83c6-.55,91-.55,97,0,1.67.14,5.27.43,5,.82-.43.66-7.64.76-10.28.72-3.82,0-13.79-.06-15.32-.06s-61.73,0-65.54.07c-2.64.05-15.61,0-16-.68C34.92,3.28,38.64,3,40.32,2.83Z"/><path class="dk" d="M40.65,2.83c6-.54,90.61-.55,96.64,0,1.67.14,5.26.43,5,.81-.44.66-7.63.74-10.26.71-3.8-.06-13.75-.06-15.27-.06s-61.69,0-65.5.07c-2.62,0-15.29,0-15.74-.67C35.27,3.28,39,3,40.65,2.83Z"/><path class="dl" d="M41,2.83c6-.53,90.22-.54,96.24,0,1.66.14,5.24.43,5,.81-.44.64-7.61.72-10.23.68-3.79,0-13.7-.06-15.22-.06s-61.65,0-65.45.07c-2.61,0-15,0-15.43-.64C35.63,3.28,39.32,3,41,2.83Z"/><path class="dm" d="M41.32,2.83c6-.52,89.85-.53,95.84,0,1.66.13,5.23.44,5,.8-.44.64-7.59.7-10.2.66-3.78,0-13.66,0-15.17,0s-61.62,0-65.4.07c-2.61,0-14.69,0-15.13-.63C36,3.28,39.66,3,41.32,2.83Z"/><path class="dn" d="M41.65,2.83c6-.51,89.47-.52,95.45,0,1.65.13,5.21.44,5,.8-.43.62-7.56.67-10.16.64-3.77,0-13.62-.06-15.13-.06s-61.58,0-65.35.07c-2.6,0-14.39,0-14.83-.6C36.34,3.28,40,3,41.65,2.83Z"/><path class="do" d="M42,2.83c5.95-.5,89.08-.51,95,0,1.65.13,5.2.44,4.95.79-.43.61-7.54.66-10.13.62-3.76,0-13.58,0-15.08,0s-61.54,0-65.3.06c-2.59,0-14.09,0-14.52-.58C36.69,3.29,40.34,3,42,2.83Z"/><path class="dp" d="M42.32,2.83c5.93-.49,88.71-.5,94.64,0,1.65.13,5.19.44,4.94.79-.43.6-7.52.63-10.1.6-3.75-.05-13.53-.06-15-.06s-61.51,0-65.25.07c-2.58,0-13.79,0-14.22-.56C37,3.29,40.68,3,42.32,2.83Z"/><path class="dq" d="M42.65,2.82c5.92-.48,88.33-.48,94.25,0,1.64.12,5.17.44,4.92.78-.43.59-7.5.61-10.07.58-3.73,0-13.49,0-15,0s-61.47,0-65.2.06c-2.58,0-13.49,0-13.92-.54C37.4,3.29,41,3,42.65,2.82Z"/><path class="dr" d="M43,2.82c5.89-.47,87.95-.47,93.84,0,1.63.12,5.16.44,4.91.78-.42.57-7.47.58-10,.55-3.72,0-13.44,0-14.93,0s-61.43,0-65.15.06c-2.57.05-13.18.06-13.62-.52C37.75,3.29,41.36,3,43,2.82Z"/><path class="ds" d="M43.32,2.82c5.88-.46,87.57-.47,93.45,0,1.62.12,5.14.44,4.89.77-.42.57-7.45.57-10,.54-3.71-.05-13.4-.05-14.88-.05s-61.4,0-65.11.06c-2.55,0-12.87.06-13.3-.5C38.11,3.29,41.69,3,43.32,2.82Z"/><path class="dt" d="M43.66,2.82c5.85-.45,87.18-.46,93,0,1.62.12,5.13.45,4.89.77-.43.55-7.44.54-10,.51-3.69,0-13.35,0-14.83,0s-61.36,0-65.06,0c-2.55,0-12.57.08-13-.48C38.46,3.29,42,3,43.66,2.82Z"/><path class="du" d="M44,2.82c5.84-.44,86.81-.45,92.65,0,1.61.11,5.11.45,4.87.76-.43.55-7.42.52-10,.49-3.68,0-13.31,0-14.78,0s-61.32,0-65,.06c-2.54,0-12.27.08-12.7-.46C38.81,3.29,42.37,3,44,2.82Z"/><path class="dv" d="M44.32,2.82c5.82-.43,86.43-.44,92.25,0,1.61.11,5.1.45,4.86.76-.42.53-7.39.5-9.93.47-3.67,0-13.26-.05-14.73,0s-61.29,0-65,0c-2.53,0-12,.09-12.39-.44C39.17,3.29,42.71,2.94,44.32,2.82Z"/><path class="dw" d="M44.66,2.82c5.79-.42,86-.43,91.84,0,1.61.12,5.09.46,4.85.76-.42.52-7.37.48-9.9.45-3.65,0-13.22,0-14.68,0S55.52,4,51.86,4c-2.52,0-11.67.11-12.09-.41C39.52,3.3,43.05,2.94,44.66,2.82Z"/><path class="dx" d="M45,2.82c5.78-.41,85.67-.42,91.45,0,1.6.11,5.08.46,4.83.76-.42.51-7.35.45-9.86.43-3.65,0-13.18,0-14.64,0s-61.21,0-64.86.05c-2.52,0-11.36.11-11.79-.4C39.87,3.3,43.39,2.94,45,2.82Z"/><path class="dy" d="M45.32,2.82c5.76-.41,85.29-.41,91.05,0,1.6.11,5.07.46,4.82.75-.42.5-7.33.44-9.83.41-3.64,0-13.14,0-14.59,0S55.59,3.91,52,4c-2.51,0-11.06.12-11.48-.37C40.23,3.3,43.73,2.93,45.32,2.82Z"/><path class="dz" d="M45.66,2.82c5.74-.4,84.9-.4,90.65,0,1.59.11,5.05.47,4.8.75-.41.48-7.3.41-9.8.38-3.62,0-13.09,0-14.54,0s-61.14,0-64.76,0c-2.5,0-10.76.14-11.18-.35C40.58,3.3,44.07,2.93,45.66,2.82Z"/><path class="ea" d="M46,2.82c5.72-.39,84.53-.4,90.25,0,1.58.11,5,.47,4.79.74-.41.48-7.28.39-9.77.37-3.61,0-13,0-14.49,0s-61.1,0-64.72.05c-2.49,0-10.45.14-10.87-.33C40.94,3.3,44.41,2.93,46,2.82Z"/><path class="eb" d="M46.33,2.82c5.7-.38,84.14-.39,89.85,0,1.57.1,5,.47,4.77.74-.41.46-7.26.37-9.74.34-3.6,0-13,0-14.44,0s-61.07,0-64.67,0C49.62,3.92,42,4,41.53,3.57,41.29,3.3,44.75,2.93,46.33,2.82Z"/><path class="ec" d="M46.66,2.82c5.68-.37,83.77-.38,89.45,0,1.57.1,5,.47,4.77.73-.42.46-7.25.35-9.72.33-3.59,0-13,0-14.39,0s-61,0-64.62,0c-2.47,0-9.85.16-10.26-.29C41.64,3.3,45.09,2.92,46.66,2.82Z"/><path class="ed" d="M47,2.82c5.67-.36,83.39-.37,89,0,1.57.1,5,.47,4.76.73-.41.44-7.22.32-9.69.3-3.57,0-12.91,0-14.34,0s-61,0-64.57,0c-2.46,0-9.55.17-10-.27C42,3.31,45.42,2.92,47,2.82Z"/><path class="ee" d="M47.33,2.82c5.64-.35,83-.36,88.65,0,1.56.1,5,.47,4.74.72-.41.43-7.2.31-9.66.28-3.56,0-12.87,0-14.29,0s-61,0-64.52,0c-2.46,0-9.24.19-9.66-.24C42.35,3.31,45.76,2.92,47.33,2.82Z"/></g></g></g><line class="ef" x1="149.89" y1="3.08" x2="0.01" y2="3.08"/></g></svg>