<svg xmlns="http://www.w3.org/2000/svg" width="43.08" height="39.2" viewBox="0 0 43.08 39.2"><defs><style>.a{fill:#e24c4b;}.b{fill:#fff;}.c{fill:#3f4448;}</style></defs><title>KH_Sprite</title><path class="a" d="M42.56,33.09,25.07,2a4.07,4.07,0,0,0-7,0L.52,33.09A4.1,4.1,0,0,0,4,39.2H38.9A4.14,4.14,0,0,0,42.56,33.09Z"/><path class="b" d="M21.54,4.07,39,35.13H4L21.54,4.07Z"/><path class="c" d="M18.69,18.31l1.09,7.19A1.76,1.76,0,0,0,21.54,27h0A1.87,1.87,0,0,0,23.3,25.5l1.09-7.19a2.82,2.82,0,0,0-2.85-3.25h0A2.9,2.9,0,0,0,18.69,18.31Z"/><circle class="c" cx="21.54" cy="30.11" r="1.63"/></svg>