<svg xmlns="http://www.w3.org/2000/svg" xmlns:xlink="http://www.w3.org/1999/xlink" width="44.75" height="50.99" viewBox="0 0 44.75 50.99"><defs><style>.a{fill:url(#a);}.b{fill:#d33d3d;}</style><linearGradient id="a" x1="22.38" y1="50.99" x2="22.38" gradientUnits="userSpaceOnUse"><stop offset="0"/><stop offset="1" stop-opacity="0"/></linearGradient></defs><title>KH_Sprite</title><rect class="a" width="44.75" height="50.99"/><path class="b" d="M22.74,16.56V34.47l-1.08-.18-7.33-1.22L13.9,33l-.63-.11V21.32c0-1.06,0-2.12,0-3.19l5.88-1,1.78-.3H21l1.74-.29m.77-1h-.05L20.79,16l-8.07,1.34c-.26.05-.34.13-.34.39,0,1.61,0,3.21,0,4.81,0,3.56,0,7.13,0,10.69,0,.33.06.48.42.51s.92.15,1.38.23l7.34,1.22,2.1.35v-20Z"/><path class="b" d="M15.3,22.13c.08.14.12.23.17.32.55.92,1.09,1.84,1.65,2.75a.37.37,0,0,1,0,.45c-.42.67-.83,1.35-1.24,2l-.69,1.16c.5.06,1,.12,1.4.15.07,0,.17-.1.21-.17l.73-1.31.48-.85c.08.15.14.25.18.34l1,2.06c.05.09.12.22.19.23.48.07,1,.11,1.49.17-.08-.19-.15-.32-.21-.44-.58-1.13-1.15-2.26-1.74-3.38a.53.53,0,0,1,0-.52c.56-1.05,1.11-2.12,1.66-3.18.05-.09.09-.2.16-.35-.45.05-.86.08-1.27.14a.48.48,0,0,0-.31.22c-.34.67-.65,1.35-1,2a2,2,0,0,1-.15.25c-.08-.15-.13-.25-.19-.35L17,22.18c-.05-.08-.16-.2-.23-.19C16.26,22,15.81,22.07,15.3,22.13Z"/><path class="b" d="M22.74,16.56V34.47l-1.08-.18-7.33-1.22L13.9,33l-.63-.11V21.32c0-1.06,0-2.12,0-3.19l5.88-1,1.78-.3H21l1.74-.29m.77-1h-.05L20.79,16l-8.07,1.34c-.26.05-.34.13-.34.39,0,1.61,0,3.21,0,4.81,0,3.56,0,7.13,0,10.69,0,.33.06.48.42.51s.92.15,1.38.23l7.34,1.22,2.1.35v-20Z"/><path class="b" d="M15.3,22.13c.08.14.12.23.17.32.55.92,1.09,1.84,1.65,2.75a.37.37,0,0,1,0,.45c-.42.67-.83,1.35-1.24,2l-.69,1.16c.5.06,1,.12,1.4.15.07,0,.17-.1.21-.17l.73-1.31.48-.85c.08.15.14.25.18.34l1,2.06c.05.09.12.22.19.23.48.07,1,.11,1.49.17-.08-.19-.15-.32-.21-.44-.58-1.13-1.15-2.26-1.74-3.38a.53.53,0,0,1,0-.52c.56-1.05,1.11-2.12,1.66-3.18.05-.09.09-.2.16-.35-.45.05-.86.08-1.27.14a.48.48,0,0,0-.31.22c-.34.67-.65,1.35-1,2a2,2,0,0,1-.15.25c-.08-.15-.13-.25-.19-.35L17,22.18c-.05-.08-.16-.2-.23-.19C16.26,22,15.81,22.07,15.3,22.13Z"/><path class="b" d="M32.08,18.16H24.53a.29.29,0,0,0-.3.3v.7h3.28v2.41H24.23v1h3.28V25H24.23v1h3.28v2.41H24.23v1h3.28v2.41H24.23v.7a.29.29,0,0,0,.3.3h7.55a.3.3,0,0,0,.3-.3V18.46A.3.3,0,0,0,32.08,18.16Zm-.57,13.73H28.23V29.48h3.28Zm0-3.44H28.23V26h3.28Zm0-3.44H28.23V22.6h3.28Zm0-3.44H28.23V19.16h3.28Z"/></svg>