<svg id="Layer_1" data-name="Layer 1" xmlns="http://www.w3.org/2000/svg" xmlns:xlink="http://www.w3.org/1999/xlink" width="12" height="12.03" viewBox="0 0 12 12.03"><defs><style>.cls-1{fill:none;}.cls-2{opacity:0.2;}.cls-3{clip-path:url(#clip-path);}.cls-4{fill:url(#linear-gradient);}.cls-5{fill:url(#linear-gradient-2);}.cls-6{fill:url(#linear-gradient-3);}</style><clipPath id="clip-path"><polygon class="cls-1" points="-12.98 146.92 -317.44 146.92 -317.44 52.46 -12.98 52.5 -12.98 146.92"/></clipPath><linearGradient id="linear-gradient" x1="1895.49" y1="-3789.31" x2="1895.49" y2="-3803" gradientTransform="matrix(0, 1, 1, 0, 3801.31, -1889.49)" gradientUnits="userSpaceOnUse"><stop offset="0" stop-color="#357c3e"/><stop offset="1" stop-color="#41994c"/></linearGradient><linearGradient id="linear-gradient-2" x1="0" y1="175.53" x2="12" y2="175.53" gradientTransform="matrix(1, 0, 0, -1, 0, 181.56)" xlink:href="#linear-gradient"/><linearGradient id="linear-gradient-3" x1="1895.49" y1="-3793.31" x2="1895.49" y2="-3797.31" gradientTransform="matrix(0, 1, 1, 0, 3801.31, -1889.49)" gradientUnits="userSpaceOnUse"><stop offset="0" stop-color="#fff"/><stop offset="1" stop-color="#f5f5f5"/></linearGradient></defs><title>Weather_dashboard_Sprite</title><path class="cls-4" d="M6,0H6a6,6,0,0,1,6,6h0a6,6,0,0,1-6,6H6A6,6,0,0,1,0,6H0A6,6,0,0,1,6,0Z"/><path class="cls-5" d="M6,.78A5.25,5.25,0,1,1,.75,6,5.25,5.25,0,0,1,6,.78M6,0H6A6,6,0,0,0,6,12H6A6,6,0,0,0,6,0Z"/><circle class="cls-6" cx="6" cy="6" r="2"/></svg>