<svg id="Layer_1" data-name="Layer 1" xmlns="http://www.w3.org/2000/svg" width="45.54" height="42.78" viewBox="0 0 45.54 42.78"><defs><style>.cls-1{fill:#5da7bd;}.cls-2{fill:#8ac0cf;}.cls-3{fill:#cae2e9;}</style></defs><title>Weather_dashboard_Sprite</title><path class="cls-1" d="M31.15,5.15V4.92c0-1.84-2.07-3.33-4.61-3.33A6,6,0,0,0,24.29,2a6.47,6.47,0,0,0-4.76-2,5.94,5.94,0,0,0-6.11,4.63c-2.84.6-4.81,2.47-4.81,4.61,0,2.65,3,4.81,6.72,4.81a8.59,8.59,0,0,0,3.6-.76,5,5,0,0,0,3.17,1.38h.6a6.56,6.56,0,0,0,1.08-.09,5.57,5.57,0,0,0,1.93-.72,8.92,8.92,0,0,0,2.35.31c3.7,0,6.71-2.16,6.71-4.81C34.78,7.62,33.37,6,31.15,5.15Z"/><path class="cls-2" d="M34.05,30.07c0,1,.42,1.46.93,1.46s.93-.45.93-1.46-.73-2.4-.93-3.41C34.82,27.67,34.05,29.06,34.05,30.07Z"/><path class="cls-2" d="M28.69,37.73c0,1,.42,1.46.93,1.46s.93-.45.93-1.46-.73-2.4-.93-3.41C29.44,35.33,28.69,36.73,28.69,37.73Z"/><path class="cls-2" d="M20.78,35.3c0,1,.41,1.46.92,1.46s.93-.46.93-1.46-.72-2.41-.93-3.42C21.52,32.9,20.78,34.29,20.78,35.3Z"/><path class="cls-2" d="M15.61,41.32c0,1,.41,1.46.92,1.46s.93-.46.93-1.46-.73-2.4-.93-3.41C16.35,38.92,15.61,40.31,15.61,41.32Z"/><path class="cls-2" d="M11.78,33.56c0,1,.42,1.46.93,1.46s.93-.45.93-1.46-.73-2.4-.93-3.41C12.53,31.17,11.78,32.56,11.78,33.56Z"/><path class="cls-2" d="M40.93,12.37v-.3c0-2.4-2.67-4.35-6-4.35A7.64,7.64,0,0,0,32,8.27a8.35,8.35,0,0,0-6.17-2.58c-4,0-7.34,2.58-7.9,6-3.67.78-6.22,3.22-6.22,6,0,3.47,3.9,6.28,8.69,6.28a11.31,11.31,0,0,0,4.66-1,6.58,6.58,0,0,0,4.11,1.8H30a8.19,8.19,0,0,0,1.4-.13,7,7,0,0,0,2.49-.93,11.72,11.72,0,0,0,3,.4c4.79,0,8.69-2.82,8.69-6.28C45.63,15.6,43.79,13.44,40.93,12.37Z"/><path class="cls-3" d="M22.6,14.34v-.25c0-2-2.08-3.67-4.63-3.67a5.63,5.63,0,0,0-2.25.46A6.23,6.23,0,0,0,11,8.73a6.08,6.08,0,0,0-6.12,5.1C2,14.49,0,16.54,0,18.9c0,2.91,3,5.29,6.74,5.29a8.06,8.06,0,0,0,3.61-.83,5,5,0,0,0,3.19,1.52,5.81,5.81,0,0,0,.59,0,5.68,5.68,0,0,0,1.09-.11A5.17,5.17,0,0,0,17.15,24a8.57,8.57,0,0,0,2.36.33c3.72,0,6.74-2.37,6.74-5.29A5.31,5.31,0,0,0,22.6,14.34Z"/></svg>