<svg id="Layer_1" data-name="Layer 1" xmlns="http://www.w3.org/2000/svg" width="6.88" height="6.88" viewBox="0 0 6.88 6.88"><defs><style>.cls-1{fill:#f03f37;}</style></defs><title>Weather_dashboard_Sprite</title><path class="cls-1" d="M3.44,0A3.44,3.44,0,1,1,0,3.44,3.44,3.44,0,0,1,3.44,0ZM1.21,2.78a.27.27,0,0,0,0,.38l0,0,2,2a.3.3,0,0,0,.41,0l2-2a.28.28,0,0,0,0-.4h0l-.46-.46a.28.28,0,0,0-.4,0h0L3.39,3.69,2,2.32a.28.28,0,0,0-.4,0h0Z"/><path class="cls-1" d="M3.44,0A3.44,3.44,0,1,1,0,3.44,3.44,3.44,0,0,1,3.44,0ZM1.21,2.78a.27.27,0,0,0,0,.38l0,0,2,2a.3.3,0,0,0,.41,0l2-2a.28.28,0,0,0,0-.4h0l-.46-.46a.28.28,0,0,0-.4,0h0L3.39,3.69,2,2.32a.28.28,0,0,0-.4,0h0Z"/></svg>