<svg id="Layer_1" data-name="Layer 1" xmlns="http://www.w3.org/2000/svg" xmlns:xlink="http://www.w3.org/1999/xlink" width="304.46" height="94.46" viewBox="0 0 304.46 94.46"><defs><style>.cls-1{fill:none;}.cls-2{opacity:0.2;}.cls-3{clip-path:url(#clip-path);}.cls-4{fill:url(#radial-gradient);}.cls-5{fill:url(#radial-gradient-2);}.cls-6{fill:url(#radial-gradient-3);}.cls-7{fill:url(#radial-gradient-4);}</style><clipPath id="clip-path"><polygon class="cls-1" points="304.46 94.46 0 94.46 0 0 304.46 0.04 304.46 94.46"/></clipPath><radialGradient id="radial-gradient" cx="1075.93" cy="38.95" r="116.5" gradientTransform="matrix(1.95, 0, 0, -1.36, -1901.44, 62.59)" gradientUnits="userSpaceOnUse"><stop offset="0.01" stop-color="#dbdbdb"/><stop offset="0.22" stop-color="#e6e6e6"/><stop offset="0.77" stop-color="#d6d6d6"/><stop offset="0.9" stop-color="#d0d0d0"/><stop offset="1" stop-color="#c8c8c8"/></radialGradient><radialGradient id="radial-gradient-2" cx="1075.93" cy="38.95" r="116.5" gradientTransform="matrix(1.95, 0, 0, -1.36, -1901.44, 62.59)" gradientUnits="userSpaceOnUse"><stop offset="0.08" stop-color="#efefef"/><stop offset="0.77" stop-color="#c1c1c1"/><stop offset="0.86" stop-color="#c7c7c7"/><stop offset="0.98" stop-color="#d8d8d8"/><stop offset="1" stop-color="#dcdcdc"/></radialGradient><radialGradient id="radial-gradient-3" cx="1075.93" cy="38.95" r="116.5" gradientTransform="matrix(1.95, 0, 0, -1.36, -1901.44, 62.59)" gradientUnits="userSpaceOnUse"><stop offset="0.13" stop-color="#c6c6c6"/><stop offset="0.24" stop-color="#bebebe"/><stop offset="0.55" stop-color="#acacac"/><stop offset="0.77" stop-color="#a6a6a6"/><stop offset="0.84" stop-color="#acacac"/><stop offset="0.94" stop-color="#bdbdbd"/><stop offset="1" stop-color="#c9c9c9"/></radialGradient><radialGradient id="radial-gradient-4" cx="1075.93" cy="47.56" r="125.19" gradientTransform="matrix(1.95, 0, 0, -1.36, -1901.44, 62.59)" gradientUnits="userSpaceOnUse"><stop offset="0.22" stop-color="#bbb"/><stop offset="0.24" stop-color="#b5b5b5"/><stop offset="0.4" stop-color="#8c8c8c"/><stop offset="0.55" stop-color="#6f6f6f"/><stop offset="0.68" stop-color="#5d5d5d"/><stop offset="0.77" stop-color="#575757"/><stop offset="0.81" stop-color="#5d5d5d"/><stop offset="0.86" stop-color="#6e6e6e"/><stop offset="0.92" stop-color="#8a8a8a"/><stop offset="0.98" stop-color="#b0b0b0"/><stop offset="1" stop-color="#bbb"/></radialGradient></defs><title>Weather_dashboard_Sprite</title><g class="cls-2"><g class="cls-3"><path class="cls-4" d="M22.24,23.32C94.37-27,197.7,13.19,241.94,28.73c1.45.51,25.79,9.67,41.86,15.38C306,49.43,314.72,45.88,319,40.05v-.73c0-16.19-4.79-31.6-13.41-45.59-7.76-8.18-22.05-18.39-36.34-20.1a27.85,27.85,0,0,0-5-.16l-.82.05h-.81a27,27,0,0,0-4.87,1,42.26,42.26,0,0,0-7.25,3.12c-16.94,8.76-39.07,11.49-54.65,12.23-5.2.25-10.31.22-15.36,0C141.8-12,107.22-26.72,68.89-29.62,37-31.32,20.89-16.79,11.76-9.89,2.07-2.48,1-1.68-1.95-1.45A86,86,0,0,0-12.42,34.14C-9.36,36.24,0,38.89,22.24,23.32Z"/><path class="cls-5" d="M2.55,50.58a45.89,45.89,0,0,1,7.08-1.09s1.71-.11,5.74,1.32c.42.13.84.27,1.27.43,20.79,7.7,39.12,7.29,56.43,3.53,30.4-7.58,56.13-23.92,90-25.08a106.9,106.9,0,0,1,54.08,12.63c16.17,8.15,30,21.12,43.08,37.08,7.17,7.42,12.22,13.35,23.95,15.47,9.41,1.39,16.88-4.48,22.25-11.38A86.07,86.07,0,0,0,319,40.09c-4.24,5.83-15.62,5.76-28.75,3.25-14.89-2.84-32-8.82-43.46-12.87L242,28.77C197.7,13.23,94.37-26.94,22.24,23.32,0,38.89-9.36,36.24-12.42,34.14c-.11,1.73-.17,3.47-.17,5.22a83.78,83.78,0,0,0,7,33.39C-9,56.58,2.4,50.63,2.55,50.58Z"/><path class="cls-6" d="M15.27,97c18.92,2.92,35.25,15.22,55.51,13.26,9.82-.57,13.59-3.43,14.43-3.79,15.72-6.77,26.85-17.69,43.71-23.42,2.38-.81,4.88-1.65,7.57-2.5a77.32,77.32,0,0,1,12.88-3.49l2.31-.4a165.4,165.4,0,0,1,29.78-2.91l1.42.08c18.1-.11,31.73,2.71,41.11,5.76A75.38,75.38,0,0,1,256.9,99.87c6,6.29,16.07,15.35,27.43,10.18l.22-.18a114.18,114.18,0,0,0,21.88-26.35c-5.37,6.9-12.84,12.77-22.25,11.38-6.62-1-14.2-5.56-22.68-15.94l-.35-.42c-13.12-16-26.85-28-43-36.2a125.78,125.78,0,0,0-55.44-13.65c-32.09,1.42-60.43,19.3-91,25.85-27.21,5.84-47.65-7.5-66.25-5-9.53,1.23-14.1,13.1-10.78,23.78a101.85,101.85,0,0,0,14.7,23.6s.25.3.29.35S15.06,97,15.27,97Z"/><path class="cls-7" d="M128.25,120.22c21.06-2.08,38.49,2.2,58.69,4.45a126.42,126.42,0,0,0,15.44.76h.5c14.8-.5,28.51-5.71,43.59-5h.43a17.89,17.89,0,0,1,1.92.17c5.66.7,11.76,4.26,7.65,9.16a152.2,152.2,0,0,0,28-19.79s-5,3-12.62.47c-4.05-1.33-8.88-4.29-14.92-10.58-10.17-10.6-25.34-31.76-75.44-32.13-58.06-.42-80.53,32-96.25,38.75-.84.36-1.67.69-2.49,1a46.94,46.94,0,0,1-12,2.84c-20.49,2-37-10.63-56.17-13.36a17.12,17.12,0,0,0-5,.23C25,115.66,47.45,130.92,74.48,141.1,80.89,143.66,88.4,124.17,128.25,120.22Z"/></g></g></svg>