<svg id="Layer_1" data-name="Layer 1" xmlns="http://www.w3.org/2000/svg" width="47.55" height="43.3" viewBox="0 0 47.55 43.3"><defs><style>.cls-1{fill:#ffb85a;}.cls-2{fill:#8ac0cf;}.cls-3{fill:#cae2e9;}</style></defs><title>Weather_dashboard_Sprite</title><path class="cls-1" d="M36.65,16.09A15,15,0,1,0,31.4,36.64h0A15,15,0,0,0,36.65,16.09Z"/><path class="cls-1" d="M11.73,12.09l.36-.37L7.32,7a.25.25,0,0,0-.35,0H7a.27.27,0,0,0,0,.37Z"/><path class="cls-1" d="M15.8,4.56a.24.24,0,0,0-.14.31v0l1.44,3.48.47-.19L16.14,4.7A.27.27,0,0,0,15.8,4.56Z"/><path class="cls-1" d="M23.75,0a.25.25,0,0,0-.25.25V7H24V.24A.25.25,0,0,0,23.75,0Z"/><path class="cls-1" d="M8.18,17.57c.07-.15.13-.31.2-.47L4.9,15.7a.27.27,0,0,0-.34.14.26.26,0,0,0,.13.33h0Z"/><path class="cls-1" d="M39.32,17.58l3.48-1.45a.25.25,0,1,0-.19-.47L39.13,17.1Z"/><path class="cls-1" d="M7,23.49H.26a.26.26,0,0,0-.26.26H0A.26.26,0,0,0,.26,24H7C7,23.83,7,23.7,7,23.49Z"/><path class="cls-1" d="M40.55,7.32A.26.26,0,0,0,40.18,7L35.41,11.7l.37.37Z"/><path class="cls-1" d="M31.84,4.89a.26.26,0,0,0-.13-.33h0a.26.26,0,0,0-.33.13h0L29.92,8.18l.48.19Z"/><path class="cls-1" d="M47.25,23.49h-6.7V24H47.3a.25.25,0,0,0,.25-.25.26.26,0,0,0-.26-.26Z"/><path class="cls-1" d="M35.78,35.41l-.36.36,4.76,4.77a.25.25,0,0,0,.18.08.27.27,0,0,0,.19-.08.25.25,0,0,0,0-.35h0Z"/><path class="cls-1" d="M39.32,29.92c-.06.16-.13.32-.19.47l3.48,1.44a.14.14,0,0,0,.09,0,.26.26,0,0,0,.24-.16.26.26,0,0,0-.13-.33h0Z"/><path class="cls-1" d="M8.18,29.92,4.7,31.36a.25.25,0,0,0-.16.32v0a.26.26,0,0,0,.24.16.17.17,0,0,0,.1,0l3.48-1.44C8.31,30.24,8.25,30.08,8.18,29.92Z"/><path class="cls-1" d="M29.92,39.32l1.45,3.48a.25.25,0,0,0,.23.15h.1a.24.24,0,0,0,.14-.32h0L30.4,39.15Z"/><path class="cls-1" d="M7,40.18a.25.25,0,0,0,0,.35H7a.24.24,0,0,0,.36,0l4.77-4.77-.36-.36Z"/><path class="cls-1" d="M15.67,42.6a.24.24,0,0,0,.11.32h.12a.28.28,0,0,0,.24-.15l1.41-3.46-.47-.2Z"/><path class="cls-2" d="M41.47,28.79v-.34c0-2.77-2.57-5-5.72-5a6.39,6.39,0,0,0-2.78.63,7.41,7.41,0,0,0-5.9-3,7.8,7.8,0,0,0-7.56,7c-3.53.91-6,3.73-6,7,0,4,3.73,7.27,8.31,7.27a9.31,9.31,0,0,0,4.47-1.14,5.82,5.82,0,0,0,3.93,2.08,4.57,4.57,0,0,0,.74,0,6.7,6.7,0,0,0,1.34-.14,5.67,5.67,0,0,0,2.38-1.08,9.33,9.33,0,0,0,2.92.46c4.58,0,8.31-3.25,8.31-7.26A7.23,7.23,0,0,0,41.47,28.79Z"/><path class="cls-3" d="M24.61,32.86v-.25A3.89,3.89,0,0,0,20.55,29a4.61,4.61,0,0,0-2,.46A5.34,5.34,0,0,0,14.3,27.3a5.59,5.59,0,0,0-5.44,5,5.36,5.36,0,0,0-4.28,5c0,2.88,2.68,5.22,6,5.22a6.55,6.55,0,0,0,3.21-.82,4.12,4.12,0,0,0,2.83,1.5h.53a4.54,4.54,0,0,0,2.68-.87,6.72,6.72,0,0,0,2.09.33c3.3,0,6-2.35,6-5.23A5.2,5.2,0,0,0,24.61,32.86Z"/></svg>