<svg id="Layer_1" data-name="Layer 1" xmlns="http://www.w3.org/2000/svg" width="214.53" height="37.47" viewBox="0 0 214.53 37.47"><defs><style>.cls-1{fill:none;stroke:#b7b7b7;stroke-miterlimit:10;stroke-width:0.78px;}.cls-2{fill:#fff;}.cls-3{fill:#e41e2a;}</style></defs><title>Weather_dashboard_Sprite</title><line class="cls-1" x1="118.35" y1="8.34" x2="118.35" y2="29.29"/><path class="cls-2" d="M135.35,12.44v5.39h6.29V12.44H144V25.05h-2.41V19.93h-6.29v5.12h-2.41V12.44Z"/><path class="cls-2" d="M149.57,12.44v5.39h6.29V12.44h2.41V25.05h-2.41V19.93h-6.29v5.12h-2.41V12.44Z"/><path class="cls-2" d="M176.93,16.78c0,2.88-1.81,4.56-5,4.56h-2.76v3.71h-2.41V12.44h5.17C175.12,12.44,176.93,14,176.93,16.78Zm-2.28.07c0-1.54-1-2.3-2.83-2.3h-2.63v4.66h2.63C173.62,19.21,174.65,18.44,174.65,16.85Z"/><path class="cls-2" d="M184.53,25.05V23.88a3.77,3.77,0,0,1-3.12,1.27c-2.07,0-3.36-1.27-3.36-3s1.31-2.89,3.65-2.9h2.81V19c0-1.11-.74-1.78-2.18-1.78a5.74,5.74,0,0,0-2.86.9l-.85-1.62a7.91,7.91,0,0,1,4.23-1.19c2.52,0,4,1.28,4,3.42V25Zm0-3.35v-.87H182.1c-1.24,0-1.82.35-1.82,1.19s.65,1.33,1.71,1.33a2.35,2.35,0,0,0,2.52-1.65Z"/><path class="cls-2" d="M198.82,19v6h-2.36V19.72a2,2,0,0,0-1.8-2.17h-.34a2.53,2.53,0,0,0-2.53,2.51,2.17,2.17,0,0,0,0,.26v4.74h-2.34V15.41h2.34v1.8a3.7,3.7,0,0,1,3.46-1.89,3.37,3.37,0,0,1,3.57,3.16A3,3,0,0,1,198.82,19Z"/><path class="cls-2" d="M210,21.05h-7.11a2.69,2.69,0,0,0,2.75,2.2,3.57,3.57,0,0,0,2.6-1.08l1.26,1.31a5.34,5.34,0,0,1-4,1.66,4.66,4.66,0,0,1-5-4.3,5.56,5.56,0,0,1,0-.58A4.69,4.69,0,0,1,205,15.34h.47C208.85,15.34,210.31,17.56,210,21.05Zm-2.12-1.57a2.29,2.29,0,0,0-2.25-2.32h-.22a2.52,2.52,0,0,0-2.57,2.32Z"/><path class="cls-2" d="M214.53,11.69V25.05h-2.34V11.69Z"/><path class="cls-3" d="M60.6,11.63c-.46,1.34-.92,2.66-1.37,4-.18.52-.38,1-.54,1.58a.33.33,0,0,1-.39.28,11.61,11.61,0,0,0-1.18,0,.31.31,0,0,1-.35-.26c-1-2.86-1.92-5.71-2.9-8.56-.09-.25,0-.32.22-.31h1.47a.38.38,0,0,1,.43.33c.54,1.79,1.09,3.57,1.64,5.36a1,1,0,0,0,.11.32c.13,0,.14-.15.16-.23.59-1.79,1.19-3.57,1.76-5.37.11-.31.24-.47.59-.43s.9-.14,1.22.09.31.72.44,1.1c.51,1.5,1,3,1.5,4.52l.12.32c.14-.07.14-.2.18-.31.54-1.78,1.09-3.55,1.62-5.32.08-.27.18-.4.48-.38a10.14,10.14,0,0,0,1.35,0c.3,0,.34.08.25.36-.62,1.8-1.23,3.61-1.85,5.42-.34,1-.7,2-1,3.05a.35.35,0,0,1-.39.31h0a3,3,0,0,1-1.36-.07c-.36-.2-.35-.79-.49-1.21-.49-1.39-1-2.79-1.45-4.19A.66.66,0,0,0,60.6,11.63Z"/><path class="cls-3" d="M79.15,24.4c.16.08.26.14.36.18A2.15,2.15,0,0,1,80.78,27a2.15,2.15,0,0,1-1.54,1.9,3.88,3.88,0,0,1-1.47.28H73.46c-.31,0-.37-.1-.37-.39V20.5c0-.29.08-.38.37-.38h4.15a2.94,2.94,0,0,1,2.12.84,2.21,2.21,0,0,1-.14,3.13l-.13.1Zm-2.63,3h1.3a1,1,0,0,0,1-.75A1,1,0,0,0,78,25.48l-.12,0a24.81,24.81,0,0,0-2.59-.07c-.23,0-.3.11-.29.31v1.43c0,.24.1.31.32.31Zm-.22-5.58h-1c-.23,0-.32.09-.31.32v1.34c0,.21.08.31.29.3a14.8,14.8,0,0,0,2-.05c.66-.1,1-.42,1-1s-.38-.84-1-.89c-.31,0-.65,0-1,0Z"/><path class="cls-3" d="M41.28,13.84a.67.67,0,0,0,.08-.5V8.77c0-.32.08-.46.42-.43a7.1,7.1,0,0,0,1.13,0c.33,0,.39.11.39.41v8.3c0,.25-.06.38-.33.34a.11.11,0,0,0-.08,0,1.86,1.86,0,0,1-2.06-1c-1-1.5-2.2-2.92-3.31-4.38-.07-.09-.12-.22-.27-.26-.12.13-.06.3-.06.44V17c0,.31-.07.43-.39.4a11.61,11.61,0,0,0-1.18,0c-.3,0-.37-.1-.37-.38V8.69c0-.27.07-.37.35-.37,1.45,0,1.45,0,2.32,1.11,1,1.38,2.09,2.74,3.13,4.1A3.55,3.55,0,0,0,41.28,13.84Z"/><path class="cls-3" d="M54,12.86a4.67,4.67,0,0,1-4.63,4.71H49.1a4.62,4.62,0,0,1-4.77-4.46v-.33A4.68,4.68,0,0,1,49.1,8.18h.1A4.62,4.62,0,0,1,54,12.67Zm-2.07,0A2.75,2.75,0,0,0,49.22,10h-.07a2.74,2.74,0,0,0-2.76,2.7v.15a2.77,2.77,0,0,0,2.66,2.88h.13A2.71,2.71,0,0,0,51.89,13a.66.66,0,0,0,0-.14Z"/><path class="cls-3" d="M83.41,14.38v-2.6c0-.26.07-.34.33-.33h1.34c.27,0,.33.11.32.35v3.39c0,.35.1.48.45.45a16.38,16.38,0,0,0,1.72-.06,2.57,2.57,0,0,0,2.14-2.74,2.56,2.56,0,0,0-2.18-2.66,31.41,31.41,0,0,0-3.5-.07c-.7,0-.6,0-.59-.57,0-.39-.18-.89.08-1.13s.72-.07,1.1-.06A27.37,27.37,0,0,1,88,8.43a4.49,4.49,0,0,1,0,8.87,22.64,22.64,0,0,1-3.59.08c-1,0-1,0-1-1Z"/><path class="cls-3" d="M100.75,14.41v2.65c0,.14,0,.33-.2.32a29.15,29.15,0,0,1-4.48-.1,4.49,4.49,0,0,1,.06-8.84,36,36,0,0,1,4.4-.09c.16,0,.23.07.22.22h0c0,.47.18,1-.08,1.38s-.83.08-1.28.1a19.74,19.74,0,0,0-2.55,0,2.63,2.63,0,0,0-2.39,2.82.25.25,0,0,1,0,.08A2.59,2.59,0,0,0,97,15.62h1.38c.27,0,.33-.11.33-.35V11.83c0-.32.08-.42.4-.4a7.62,7.62,0,0,0,1.17,0c.32,0,.44.07.43.42C100.73,12.71,100.75,13.56,100.75,14.41Z"/><path class="cls-3" d="M55,24.6V20.49c0-.3,0-.43.39-.41a9.4,9.4,0,0,0,1.3,0c.24,0,.3.08.3.32v2.85c0,.31.06.44.41.44h2.93c.29,0,.39-.09.39-.38V20.5c0-.35.12-.43.44-.41a7.1,7.1,0,0,0,1.13,0c.33,0,.42.1.42.42v8.3c0,.26-.09.35-.34.34q-.63,0-1.26,0c-.29,0-.39-.08-.38-.38V25.92c0-.33-.1-.43-.43-.42H57.44c-.34,0-.42.11-.41.43v2.85c0,.3-.09.38-.37.37a8.28,8.28,0,0,0-1.22,0c-.31,0-.4-.07-.4-.4C55,27.36,55,26,55,24.6Z"/><path class="cls-3" d="M75.52,12.85V8.75c0-.31.07-.41.4-.41h6c.35,0,.45.11.41.43s.19,1-.09,1.25-.8.06-1.22.07H77.83c-.31,0-.42.1-.4.41a5.57,5.57,0,0,1,0,1c0,.36.08.49.46.48h3.4c.4,0,.51.13.47.5a6.31,6.31,0,0,0,0,.87c0,.3-.09.39-.38.38H77.86c-.33,0-.45.1-.43.43a6.61,6.61,0,0,1,0,1.09c0,.34.08.45.44.45h4c.36,0,.54.07.49.48s.17.92-.08,1.17-.79.09-1.2.09H76c-.34,0-.45-.07-.45-.43C75.53,15.59,75.52,14.22,75.52,12.85Z"/><path class="cls-3" d="M101.76,12.87V8.8c0-.38.11-.47.47-.46h5.92c.35,0,.46.11.43.45a6.46,6.46,0,0,0,0,.88c0,.32-.08.43-.42.43h-4c-.37,0-.51.1-.47.47s-.19,1,.1,1.33.85.07,1.3.08h2.47c.3,0,.45,0,.42.39s.16,1-.08,1.26-.82.08-1.25.09h-2.6c-.27,0-.37.09-.36.37s0,.78,0,1.17.07.43.42.43h4.1c.34,0,.45.09.42.42a4.71,4.71,0,0,0,0,.92c0,.35-.11.42-.43.41h-6c-.33,0-.43-.08-.43-.42C101.77,15.6,101.76,14.23,101.76,12.87Z"/><path class="cls-3" d="M34.6,8.35,32,11.05c-.28.3-.55.61-.85.88s-.18.34,0,.55L34.46,17l.29.42H32.46c-.14,0-.18-.16-.26-.25C31.41,16,30.61,15,29.84,13.86c-.21-.3-.31-.24-.56,0a2,2,0,0,0-.77,1.9,10,10,0,0,1,0,1.34c0,.27-.08.34-.34.33H26.92c-.41,0-.41-.07-.4-.39V8.74c0-.28.08-.37.35-.36h1.22c.41,0,.43.07.42.41V12.2c.18,0,.22-.1.29-.18,1.06-1.13,2.12-2.26,3.16-3.41a.76.76,0,0,1,.58-.25Z"/><path class="cls-3" d="M71.81,23.27a21.47,21.47,0,0,1-.06,2.78,3.45,3.45,0,0,1-3.67,3.23,3.78,3.78,0,0,1-3.43-1.38A3.57,3.57,0,0,1,64,25.83V20.42c0-.26.08-.35.33-.34a8.28,8.28,0,0,0,1.22,0c.31,0,.4.09.4.4v4.11a8,8,0,0,0,.08,1.3,1.87,1.87,0,0,0,2.1,1.59h0a1.82,1.82,0,0,0,1.74-1.91v-5c0-.42.13-.52.52-.49a7.1,7.1,0,0,0,1.13,0c.27,0,.36.08.36.36C71.8,21.32,71.81,22.2,71.81,23.27Z"/><path class="cls-3" d="M68.25,12.87V8.76c0-.33.1-.44.43-.42a7.1,7.1,0,0,0,1.13,0c.33,0,.43.08.43.42v6.29c0,.58,0,.58.6.58h3.4c.53,0,.53,0,.53.55v.92c0,.31-.07.29-.29.29H68.57c-.3,0-.3-.16-.3-.37Z"/><path class="cls-3" d="M11.86,30.13H8.13a1.55,1.55,0,0,1-1.38-.66Q3.63,25.63.46,21.78a1.68,1.68,0,0,1,.06-2.37A1.78,1.78,0,0,1,1.24,19,1.65,1.65,0,0,1,3,19.62l2.34,2.87c.06.07.1.17.22.2a.73.73,0,0,0,0-.36V6.92a1.37,1.37,0,0,1,1.2-1.38,1.39,1.39,0,0,1,1.52,1,2,2,0,0,1,0,.6V19c0,.11-.07.29.09.33a1.23,1.23,0,0,0,.54,0c.11,0,.06-.16.06-.25V12.79a1.37,1.37,0,0,1,1.3-1.43h0a1.36,1.36,0,0,1,1.4,1.3v6.28c0,.44.12.53.57.44.18,0,.12-.18.12-.28V14.7a1.38,1.38,0,0,1,1.5-1.25,1.36,1.36,0,0,1,1.25,1.25V19c0,.27.1.31.33.3s.38,0,.38-.3V16.4A1.37,1.37,0,0,1,17.25,15a1.44,1.44,0,0,1,.65.15,1.28,1.28,0,0,1,.73,1.18V27.52a2.69,2.69,0,0,1-2.58,2.6H14.5V27.24c0-.24-.08-.3-.32-.3h-2c-.29,0-.35-.09-.34-.35v-2c0-.22-.07-.29-.28-.28H9.45c-.19,0-.26.05-.26.25v2.22c0,.2.07.26.27.26h2.12c.21,0,.28.05.28.27v2.82Zm2.85-5.62h.69c.14,0,.19-.05.19-.18V23c0-.13,0-.19-.18-.19H14c-.14,0-.18,0-.18.19v1.37c0,.16.07.2.2.19Z"/><path class="cls-3" d="M1.79,6.75A5.11,5.11,0,0,1,11.94,6a5,5,0,0,1-1.16,4.12c-.11.14-.2.17-.33,0S10,9.81,10,9.61s.22-.36.35-.54A4.11,4.11,0,0,0,3.41,4.6a5,5,0,0,0-.32.6,4.06,4.06,0,0,0,1.44,4.89c.25.18.31.29.13.57-.35.55-.34.57-.87.15A5,5,0,0,1,1.79,6.75Z"/><path class="cls-3" d="M6.8,0a6.71,6.71,0,0,1,6.76,6A6.58,6.58,0,0,1,12,11l-.1.1c-.06.08-.12.15-.23.05s0-.16,0-.24a6.18,6.18,0,0,0,1.1-1.74A6.46,6.46,0,1,0,.49,5.74a6.31,6.31,0,0,0,2.85,6.4c.08,0,.24.06.18.21s-.21.09-.32,0A6.47,6.47,0,0,1,.9,9.81,6.73,6.73,0,0,1,3.76.73,7,7,0,0,1,5.7.07,5.81,5.81,0,0,1,6.8,0Z"/><path class="cls-3" d="M14.56,30.13c-.05.76,0,1.52,0,2.29,0,.28-.06.38-.36.37H12.25c-.31,0-.36-.09-.36-.37V30.13h2.67Z"/><path class="cls-3" d="M7.27,34.07v-1c0-.15,0-.2.2-.2h2c.15,0,.19.06.19.2v2c0,.15-.05.2-.2.2h-2c-.15,0-.19-.06-.19-.2C7.28,34.74,7.27,34.41,7.27,34.07Z"/><path class="cls-3" d="M15.91,33h.92c.15,0,.22,0,.21.21v1.87c0,.18-.07.23-.23.23H15c-.17,0-.23-.06-.23-.24V33.24c0-.2.07-.25.25-.24Z"/><path class="cls-3" d="M12.66,36.78c0,.69,0,.69-.68.69s-.67,0-.67-.66,0-.69.71-.69S12.66,36.12,12.66,36.78Z"/></svg>