<svg id="Layer_1" data-name="Layer 1" xmlns="http://www.w3.org/2000/svg" xmlns:xlink="http://www.w3.org/1999/xlink" width="44.75" height="50.99" viewBox="0 0 44.75 50.99"><defs><style>.cls-1{fill:url(#linear-gradient);}.cls-2{fill:#fff;}</style><linearGradient id="linear-gradient" x1="22.38" y1="294.07" x2="22.38" y2="345.06" gradientTransform="matrix(1, 0, 0, -1, 0, 345.06)" gradientUnits="userSpaceOnUse"><stop offset="0"/><stop offset="1" stop-opacity="0"/></linearGradient></defs><title>Weather_dashboard_Sprite</title><rect class="cls-1" width="44.75" height="50.99"/><path class="cls-2" d="M33.33,23.42,22.72,15.63a.59.59,0,0,0-.69,0L11.39,23.42a.59.59,0,0,0-.12.82.58.58,0,0,0,.81.12l10.25-7.53,10.29,7.53a.61.61,0,0,0,.35.11.61.61,0,0,0,.47-.23A.6.6,0,0,0,33.33,23.42Z"/><path class="cls-2" d="M30.53,24.53a.58.58,0,0,0-.58.58h0V34.4H25.33V29.29a2.92,2.92,0,0,0-5.83,0v5.07H14.84V25.08a.59.59,0,1,0-1.17,0h0v9.86a.58.58,0,0,0,.58.58h5.83a.58.58,0,0,0,.58-.54V29.29a1.75,1.75,0,0,1,3.5,0h0V35a.6.6,0,0,0,.59.54h5.82a.58.58,0,0,0,.59-.57h0V25.08a.58.58,0,0,0-.61-.55Z"/></svg>