<svg id="Layer_1" data-name="Layer 1" xmlns="http://www.w3.org/2000/svg" width="44.45" height="44.45" viewBox="0 0 44.45 44.45"><defs><style>.cls-1{fill:#ffb85a;}</style></defs><title>Weather_dashboard_Sprite</title><path class="cls-1" d="M34.29,15.06a15.13,15.13,0,1,0,0,.06Z"/><path class="cls-1" d="M11,11.31l.34-.34L6.88,6.51a.22.22,0,0,0-.32,0h0a.25.25,0,0,0,0,.34Z"/><path class="cls-1" d="M14.79,4.27a.24.24,0,0,0-.13.31L16,7.83l.44-.18L15.1,4.4a.24.24,0,0,0-.3-.14Z"/><path class="cls-1" d="M22.23,0A.23.23,0,0,0,22,.22V6.55h.48V.24A.24.24,0,0,0,22.23,0Z"/><path class="cls-1" d="M7.66,16.45c0-.15.12-.3.18-.45L4.58,14.7a.22.22,0,0,0-.3.1v0a.24.24,0,0,0,.13.31Z"/><path class="cls-1" d="M36.79,16.45l3.26-1.35a.24.24,0,0,0-.17-.45h0L36.61,16C36.68,16.15,36.73,16.3,36.79,16.45Z"/><path class="cls-1" d="M6.56,22H.24a.24.24,0,1,0,0,.48H6.55C6.55,22.3,6.55,22.14,6.56,22Z"/><path class="cls-1" d="M37.94,6.85a.24.24,0,0,0-.34-.34L33.14,11l.34.34Z"/><path class="cls-1" d="M29.79,4.58a.22.22,0,0,0-.12-.3h0a.22.22,0,0,0-.3.1s0,0,0,0L28,7.7l.44.19Z"/><path class="cls-1" d="M44.21,22H37.9v.48h6.31a.24.24,0,1,0,0-.48Z"/><path class="cls-1" d="M33.48,33.14l-.34.34,4.46,4.46a.24.24,0,0,0,.34,0,.23.23,0,0,0,0-.32l0,0Z"/><path class="cls-1" d="M36.8,28c-.06.15-.12.3-.19.44l3.26,1.35H40a.24.24,0,0,0,.22-.15.22.22,0,0,0-.12-.3h0Z"/><path class="cls-1" d="M7.66,28,4.4,29.35a.24.24,0,0,0,.09.46h.09l3.26-1.35C7.77,28.3,7.72,28.15,7.66,28Z"/><path class="cls-1" d="M28,36.79l1.35,3.26a.24.24,0,0,0,.22.15h.09a.24.24,0,0,0,.14-.3h0l-1.34-3.26A4,4,0,0,1,28,36.79Z"/><path class="cls-1" d="M6.51,37.6a.24.24,0,0,0,.34.34h0l4.46-4.47L11,33.14Z"/><path class="cls-1" d="M14.66,39.87a.24.24,0,0,0,.13.31h.09A.24.24,0,0,0,15.1,40l1.35-3.26L16,36.59Z"/><path class="cls-1" d="M22,44.21a.24.24,0,0,0,.48,0V37.9H22Z"/></svg>