<svg id="Layer_1" data-name="Layer 1" xmlns="http://www.w3.org/2000/svg" xmlns:xlink="http://www.w3.org/1999/xlink" width="12" height="12" viewBox="0 0 12 12"><defs><style>.cls-1{fill:none;}.cls-2{opacity:0.2;}.cls-3{clip-path:url(#clip-path);}.cls-4{fill:url(#radial-gradient);}.cls-5{fill:url(#linear-gradient);}.cls-6{fill:#dc4d4d;}.cls-7{fill:url(#linear-gradient-2);}</style><clipPath id="clip-path"><polygon class="cls-1" points="29.02 146.89 -275.44 146.89 -275.44 52.43 29.02 52.47 29.02 146.89"/></clipPath><radialGradient id="radial-gradient" cx="800.49" cy="91.38" r="116.5" gradientTransform="matrix(1.95, 0, 0, -1.36, -1639.77, 186.32)" gradientUnits="userSpaceOnUse"><stop offset="0.22" stop-color="#fefefe"/><stop offset="0.39" stop-color="#f5f5f5"/><stop offset="0.66" stop-color="#ddd"/><stop offset="0.77" stop-color="#d2d2d2"/><stop offset="0.86" stop-color="#dadada"/><stop offset="1" stop-color="#ddd"/></radialGradient><linearGradient id="linear-gradient" x1="1937.49" y1="-4600.78" x2="1937.49" y2="-4613.61" gradientTransform="translate(-4600.42 -1931.52) rotate(90)" gradientUnits="userSpaceOnUse"><stop offset="0" stop-color="#de4a4a"/><stop offset="1" stop-color="#f47171"/></linearGradient><linearGradient id="linear-gradient-2" x1="1937.49" y1="-4604.42" x2="1937.49" y2="-4608.42" gradientTransform="translate(-4600.42 -1931.52) rotate(90)" gradientUnits="userSpaceOnUse"><stop offset="0" stop-color="#fff"/><stop offset="1" stop-color="#f5f5f5"/></linearGradient></defs><title>Weather_dashboard_Sprite</title><g class="cls-2"><g class="cls-3"><path class="cls-4" d="M-263.67,42.66c9.17-6.9,16.72-11.21,24-14A54,54,0,0,1-222.25,24c2.61-.26,5.2-.42,7.76-.5s5.17-.4,8-.59c38.33,2.9,74.65,19,113.3,20.85,21.9.44,115.6-5.76,123.36,2.42-10.52-17.07-26.76-32-47-43.67-9.35-3.92-27.16-14-53.29-12.78-36.66,1.68-60,14.64-90.57,20.27-14.93,2.76-30.3,4.16-46.6,2.62q-2.88-.27-5.81-.66c-7-1-19.54-3.83-10.37-11.57l.39-.32c-24.36,13-43.36,30.58-54.31,50.89C-274.44,50.75-273.37,50-263.67,42.66Z"/></g></g><path class="cls-5" d="M6,11.6A5.63,5.63,0,1,1,11.62,6h0A5.65,5.65,0,0,1,6,11.6Z"/><path class="cls-6" d="M6,.75A5.25,5.25,0,1,1,.75,6,5.25,5.25,0,0,1,6,.75M6,0H6A6,6,0,0,0,6,12H6A6,6,0,0,0,6,0Z"/><circle class="cls-7" cx="6" cy="5.97" r="2"/></svg>