<svg xmlns="http://www.w3.org/2000/svg" width="26.76" height="26.75" viewBox="0 0 26.76 26.75"><defs><style>.a{fill:none;stroke:#313131;stroke-linecap:round;stroke-linejoin:round;stroke-width:0.75px;}.b{fill:#313131;}</style></defs><title>KH_Login Landing_icon</title><polyline class="a" points="4.46 0.38 4.46 22.3 26.38 22.3"/><polyline class="a" points="6.53 19.29 11.96 10.93 16.56 14.22 22.11 7.07"/><path class="b" d="M24.06,4.57a15.73,15.73,0,0,0-.78,5.08L21.86,7.4l-2.53-.82A15.69,15.69,0,0,0,24.06,4.57Z"/><line class="a" x1="0.38" y1="0.38" x2="3.15" y2="0.38"/><line class="a" x1="1.5" y1="5.86" x2="3.15" y2="5.86"/><line class="a" x1="0.38" y1="11.34" x2="3.15" y2="11.34"/><line class="a" x1="1.5" y1="16.82" x2="3.15" y2="16.82"/><line class="a" x1="0.38" y1="22.3" x2="3.15" y2="22.3"/><line class="a" x1="4.46" y1="26.37" x2="4.46" y2="23.6"/><line class="a" x1="9.94" y1="25.25" x2="9.94" y2="23.6"/><line class="a" x1="15.42" y1="26.37" x2="15.42" y2="23.6"/><line class="a" x1="20.9" y1="25.25" x2="20.9" y2="23.6"/><line class="a" x1="26.38" y1="26.38" x2="26.38" y2="23.6"/></svg>