<svg xmlns="http://www.w3.org/2000/svg" width="25.75" height="25.75" viewBox="0 0 25.75 25.75"><defs><style>.a{fill:#d23333;}</style></defs><title>KH_Login Landing_icon</title><path class="a" d="M24.41,0H1.34A1.34,1.34,0,0,0,0,1.34V24.41a1.34,1.34,0,0,0,1.34,1.34H24.41a1.34,1.34,0,0,0,1.34-1.34V1.34A1.34,1.34,0,0,0,24.41,0Zm0,25H13.25V18.69l1,1.09.3-.28-1.68-1.82L11.19,19.5l.3.28,1-1.09V25H1.34a.58.58,0,0,1-.59-.59V13.25H7.06L6,14.26l.28.3,1.82-1.68L6.25,11.19l-.28.3,1.09,1H.75V1.34A.58.58,0,0,1,1.34.75H12.5V7.06L11.49,6l-.3.28,1.68,1.82,1.69-1.82L14.26,6l-1,1.09V.75H24.41a.58.58,0,0,1,.59.59V12.5H18.69l1.09-1-.28-.3-1.82,1.69,1.82,1.68.28-.3-1.09-1H25V24.41A.58.58,0,0,1,24.41,25Z"/></svg>