<svg xmlns="http://www.w3.org/2000/svg" width="29.26" height="31" viewBox="0 0 29.26 31"><defs><style>.a{fill:#fff;}</style></defs><title>KH_Login Landing_icon</title><path class="a" d="M11.3,28.68l-.21.9c.31.07.63.14.95.19l.15-.91C11.89,28.81,11.59,28.75,11.3,28.68Z"/><path class="a" d="M14.28,0l-.65.65.54.54A14.39,14.39,0,0,0,1.1,21.1L2,20.75A13.47,13.47,0,0,1,14.28,2.11l-.65.65.65.65L16,1.71Z"/><path class="a" d="M2.4,21.71l-.82.42a14.2,14.2,0,0,0,3.09,4.05l.62-.68A13.35,13.35,0,0,1,2.4,21.71Z"/><path class="a" d="M5.83,26l-.58.71a14,14,0,0,0,2.51,1.66l.42-.81A14.1,14.1,0,0,1,5.83,26Z"/><path class="a" d="M8.85,27.85l-.38.84a16.63,16.63,0,0,0,1.78.67l.27-.89A13.92,13.92,0,0,1,8.85,27.85Z"/><path class="a" d="M17.22,1.2l-.15.91.89.17.21-.89C17.86,1.31,17.54,1.25,17.22,1.2Z"/><path class="a" d="M29.26,15.39a14.11,14.11,0,0,0-1.11-5.53l-.85.35A13.46,13.46,0,0,1,15,28.85l.61-.61-.65-.65-1.71,1.7L14.94,31l.65-.65L15,29.77A14.39,14.39,0,0,0,29.26,15.39Z"/><path class="a" d="M24.59,4.78,24,5.46a13.58,13.58,0,0,1,2.89,3.8l.82-.42A14.39,14.39,0,0,0,24.59,4.78Z"/><path class="a" d="M21.5,2.62l-.43.82A12.74,12.74,0,0,1,23.42,5L24,4.28A14.36,14.36,0,0,0,21.5,2.62Z"/><path class="a" d="M19,1.61l-.26.88a13.92,13.92,0,0,1,1.67.62l.37-.83A12.28,12.28,0,0,0,19,1.61Z"/><path class="a" d="M14.28,12.17l-.42,0L14,13.7c-3-2.6-5.65-3.57-8-2.91a7.8,7.8,0,0,0-4.43,3.84A14.61,14.61,0,0,0,.2,17.57l.76.22c0-.05,1.55-5.23,5.19-6.24,2.13-.59,4.6.34,7.33,2.75l-1.53,0v.42l2.56,0Z"/><path class="a" d="M14.63,7.52a8.05,8.05,0,0,0-6.22,2.93,7.53,7.53,0,0,1,1,.24,7.16,7.16,0,1,1-.81,1,5,5,0,0,0-1-.14,8.05,8.05,0,1,0,7-4.07Z"/></svg>