<svg xmlns="http://www.w3.org/2000/svg" width="30.9" height="30.9" viewBox="0 0 30.9 30.9"><defs><style>.a{fill:#313131;}</style></defs><title>KH_Login Landing_icon</title><path class="a" d="M15.45,0A15.47,15.47,0,0,0,0,15.45,15.46,15.46,0,0,0,26.38,26.38,15.46,15.46,0,0,0,15.45,0ZM30,15.93a14.59,14.59,0,0,1-29.16,0v0H7.38l2.54-4.23,0,.1,3.89,10.7,3.3-8.91.05.08,3.69,5.84L23,15.88h7ZM30,15H22.56l-1.69,2.81,0-.07L17,11.61,13.86,20l0-.13L10.11,9.66,6.9,15h-6v0A14.59,14.59,0,0,1,30,15Z"/><rect class="a" x="14.86" y="2.56" width="1.18" height="0.86"/><rect class="a" x="14.86" y="27.49" width="1.18" height="0.86"/></svg>