<svg xmlns="http://www.w3.org/2000/svg" xmlns:xlink="http://www.w3.org/1999/xlink" width="174" height="69.96" viewBox="0 0 174 69.96"><defs><style>.a,.ef{fill:none;}.b{isolation:isolate;}.c,.g{fill:#fff;}.d{opacity:0.29;}.e{clip-path:url(#a);}.f{opacity:0.85;}.eh,.f{mix-blend-mode:multiply;}.g{opacity:0;}.h{fill:#fefefe;opacity:0.01;}.i{fill:#fdfdfd;opacity:0.02;}.j{fill:#fcfcfc;opacity:0.02;}.k{fill:#fbfbfb;opacity:0.03;}.l{fill:#fafafa;opacity:0.04;}.m{fill:#f9f9f9;opacity:0.05;}.n{fill:#f8f8f8;opacity:0.05;}.o{fill:#f7f7f7;opacity:0.06;}.p{fill:#f6f6f6;opacity:0.07;}.q{fill:#f5f5f5;opacity:0.08;}.r{fill:#f4f4f4;opacity:0.09;}.s{fill:#f3f3f3;opacity:0.09;}.t{fill:#f2f2f2;opacity:0.1;}.u{fill:#f1f1f1;opacity:0.11;}.v{fill:#f0f0f0;opacity:0.12;}.w{fill:#efefef;opacity:0.13;}.x{fill:#eee;opacity:0.13;}.y{fill:#ededed;opacity:0.14;}.z{fill:#ececec;opacity:0.15;}.aa{fill:#ebebeb;opacity:0.16;}.ab{fill:#eaeaea;opacity:0.16;}.ac{fill:#e9e9e9;opacity:0.17;}.ad{fill:#e8e8e8;opacity:0.18;}.ae{fill:#e7e7e7;opacity:0.19;}.af{fill:#e6e6e6;opacity:0.2;}.ag{fill:#e5e5e5;opacity:0.2;}.ah{fill:#e4e4e4;opacity:0.21;}.ai{fill:#e3e3e3;opacity:0.22;}.aj{fill:#e2e2e2;opacity:0.23;}.ak{fill:#e1e1e1;opacity:0.23;}.al{fill:#e0e0e0;opacity:0.24;}.am{fill:#dfdfdf;opacity:0.25;}.an{fill:#dedede;opacity:0.26;}.ao{fill:#ddd;opacity:0.27;}.ap{fill:#dcdcdc;opacity:0.27;}.aq{fill:#dbdbdb;opacity:0.28;}.ar{fill:#dadada;opacity:0.29;}.as{fill:#d9d9d9;opacity:0.3;}.at{fill:#d8d8d8;opacity:0.3;}.au{fill:#d7d7d7;opacity:0.31;}.av{fill:#d6d6d6;opacity:0.32;}.aw{fill:#d5d5d5;opacity:0.33;}.ax{fill:#d4d4d4;opacity:0.34;}.ay{fill:#d3d3d3;opacity:0.34;}.az{fill:#d2d2d2;opacity:0.35;}.ba{fill:#d1d1d1;opacity:0.36;}.bb{fill:#d0d0d0;opacity:0.37;}.bc{fill:#cfcfcf;opacity:0.38;}.bd{fill:#cecece;opacity:0.38;}.be{fill:#cdcdcd;opacity:0.39;}.bf{fill:#ccc;opacity:0.4;}.bg{fill:#cbcbcb;opacity:0.41;}.bh{fill:#cacaca;opacity:0.41;}.bi{fill:#c9c9c9;opacity:0.42;}.bj{fill:#c8c8c8;opacity:0.43;}.bk{fill:#c7c7c7;opacity:0.44;}.bl{fill:#c6c6c6;opacity:0.45;}.bm{fill:#c5c5c5;opacity:0.45;}.bn{fill:#c4c4c4;opacity:0.46;}.bo{fill:#c3c3c3;opacity:0.47;}.bp{fill:#c2c2c2;opacity:0.48;}.bq{fill:#c1c1c1;opacity:0.48;}.br{fill:silver;opacity:0.49;}.bs{fill:#bfbfbf;opacity:0.5;}.bt{fill:#bebebe;opacity:0.51;}.bu{fill:#bdbdbd;opacity:0.52;}.bv{fill:#bcbcbc;opacity:0.52;}.bw{fill:#bbb;opacity:0.53;}.bx{fill:#bababa;opacity:0.54;}.by{fill:#b9b9b9;opacity:0.55;}.bz{fill:#b8b8b8;opacity:0.55;}.ca{fill:#b7b7b7;opacity:0.56;}.cb{fill:#b6b6b6;opacity:0.57;}.cc{fill:#b5b5b5;opacity:0.58;}.cd{fill:#b4b4b4;opacity:0.59;}.ce{fill:#b3b3b3;opacity:0.59;}.cf{fill:#b2b2b2;opacity:0.6;}.cg{fill:#b1b1b1;opacity:0.61;}.ch{fill:#b0b0b0;opacity:0.62;}.ci{fill:#afafaf;opacity:0.63;}.cj{fill:#aeaeae;opacity:0.63;}.ck{fill:#adadad;opacity:0.64;}.cl{fill:#acacac;opacity:0.65;}.cm{fill:#ababab;opacity:0.66;}.cn{fill:#aaa;opacity:0.66;}.co{fill:#a9a9a9;opacity:0.67;}.cp{fill:#a8a8a8;opacity:0.68;}.cq{fill:#a7a7a7;opacity:0.69;}.cr{fill:#a6a6a6;opacity:0.7;}.cs{fill:#a5a5a5;opacity:0.7;}.ct{fill:#a4a4a4;opacity:0.71;}.cu{fill:#a3a3a3;opacity:0.72;}.cv{fill:#a2a2a2;opacity:0.73;}.cw{fill:#a1a1a1;opacity:0.73;}.cx{fill:#a0a0a0;opacity:0.74;}.cy{fill:#9f9f9f;opacity:0.75;}.cz{fill:#9e9e9e;opacity:0.76;}.da{fill:#9d9d9d;opacity:0.77;}.db{fill:#9c9c9c;opacity:0.77;}.dc{fill:#9b9b9b;opacity:0.78;}.dd{fill:#9a9a9a;opacity:0.79;}.de{fill:#999;opacity:0.8;}.df{fill:#989898;opacity:0.8;}.dg{fill:#979797;opacity:0.81;}.dh{fill:#969696;opacity:0.82;}.di{fill:#959595;opacity:0.83;}.dj{fill:#949494;opacity:0.84;}.dk{fill:#939393;opacity:0.84;}.dl{fill:#929292;opacity:0.85;}.dm{fill:#919191;opacity:0.86;}.dn{fill:#909090;opacity:0.87;}.do{fill:#8f8f8f;opacity:0.88;}.dp{fill:#8e8e8e;opacity:0.88;}.dq{fill:#8d8d8d;opacity:0.89;}.dr{fill:#8c8c8c;opacity:0.9;}.ds{fill:#8b8b8b;opacity:0.91;}.dt{fill:#8a8a8a;opacity:0.91;}.du{fill:#898989;opacity:0.92;}.dv{fill:#888;opacity:0.93;}.dw{fill:#878787;opacity:0.94;}.dx{fill:#868686;opacity:0.95;}.dy{fill:#858585;opacity:0.95;}.dz{fill:#848484;opacity:0.96;}.ea{fill:#838383;opacity:0.97;}.eb{fill:#828282;opacity:0.98;}.ec{fill:#818181;opacity:0.98;}.ed{fill:gray;opacity:0.99;}.ee{fill:#7f7f7f;}.ef{stroke:#afaeae;stroke-miterlimit:10;stroke-width:1.49px;stroke-dasharray:0.07 2.97;}.eg{clip-path:url(#b);}.ei{fill:url(#c);}.ej{opacity:0.2;}.ek{fill:#353535;}</style><clipPath id="a"><rect class="a" y="58.76" width="174" height="11.2" transform="translate(174 128.72) rotate(180)"/></clipPath><clipPath id="b"><rect class="a" x="42.38" y="17.19" width="89.24" height="41.91"/></clipPath><radialGradient id="c" cx="-2182.1" cy="3368.81" r="42.83" gradientTransform="matrix(-0.1, -0.97, -0.97, 0.1, 3139.72, -2408.07)" gradientUnits="userSpaceOnUse"><stop offset="0.74" stop-opacity="0.3"/><stop offset="1" stop-opacity="0"/></radialGradient></defs><title>KH_Sprite</title><g class="b"><path class="c" d="M87.29,58.74H146a58.75,58.75,0,0,0-117.49,0Z"/><g class="d"><g class="e"><g class="f"><path class="g" d="M14.05,56.75c21.39-2.7,124.13-2.7,145.51,0,5.92.75,17.82.47,16.91,2.43-1.56,3.37-26.24,5.57-35.54,5.35-13.49-.31-48.75-.43-54.12-.43-5.78,0-40.63.12-54.12.43-9.31.22-36-2-37.6-5.35C-5.82,57.22,8.13,57.5,14.05,56.75Z"/><path class="h" d="M14.23,56.75c21.33-2.69,123.82-2.69,145.16,0,5.9.74,17.78.47,16.87,2.43-1.56,3.34-26.18,5.52-35.46,5.31-13.46-.31-48.63-.43-54-.43-5.76,0-40.54.12-54,.43-9.28.21-35.95-2-37.5-5.31C-5.6,57.22,8.32,57.49,14.23,56.75Z"/><path class="i" d="M14.4,56.75c21.28-2.67,123.53-2.67,144.81,0,5.89.74,17.75.47,16.84,2.42-1.55,3.32-26.12,5.48-35.38,5.27C127.24,64.13,92.16,64,86.81,64c-5.75,0-40.44.12-53.86.43-9.26.21-35.86-1.95-37.41-5.27C-5.37,57.22,8.51,57.49,14.4,56.75Z"/><path class="j" d="M14.57,56.75c21.23-2.66,123.24-2.66,144.47,0,5.88.73,17.71.47,16.8,2.41-1.54,3.3-26.06,5.44-35.3,5.23-13.39-.3-48.4-.42-53.73-.42-5.74,0-40.34.12-53.74.42-9.23.21-35.76-1.93-37.31-5.23C-5.15,57.22,8.7,57.48,14.57,56.75Z"/><path class="k" d="M14.75,56.75c21.18-2.64,122.94-2.64,144.12,0,5.86.73,17.67.48,16.76,2.4-1.54,3.28-26,5.4-35.22,5.19-13.36-.3-48.28-.42-53.6-.42-5.72,0-40.25.12-53.61.42C24,64.55-2.47,62.43-4,59.15-4.92,57.23,8.88,57.48,14.75,56.75Z"/><path class="l" d="M14.92,56.75c21.13-2.63,122.65-2.63,143.77,0,5.85.72,17.64.48,16.74,2.39-1.54,3.26-26,5.36-35.15,5.16-13.33-.3-48.16-.42-53.47-.42-5.71,0-40.15.12-53.48.42-9.19.2-35.58-1.9-37.12-5.16C-4.69,57.23,9.07,57.47,14.92,56.75Z"/><path class="m" d="M15.09,56.74c21.08-2.6,122.35-2.6,143.43,0,5.84.73,17.6.49,16.7,2.39-1.54,3.25-25.9,5.33-35.07,5.12-13.29-.3-48-.42-53.34-.42-5.69,0-40.05.12-53.35.42-9.17.21-35.49-1.87-37-5.12C-4.47,57.23,9.26,57.47,15.09,56.74Z"/><path class="n" d="M15.27,56.74c21-2.58,122.05-2.58,143.08,0,5.82.72,17.56.49,16.66,2.38-1.53,3.23-25.84,5.29-35,5.08-13.26-.3-47.93-.41-53.21-.41-5.68,0-40,.11-53.22.41-9.15.21-35.4-1.85-36.93-5.08C-4.24,57.23,9.44,57.46,15.27,56.74Z"/><path class="o" d="M15.44,56.74c21-2.57,121.76-2.57,142.73,0,5.81.72,17.53.5,16.63,2.37-1.52,3.21-25.78,5.25-34.9,5-13.24-.29-47.82-.41-53.09-.41-5.67,0-39.86.12-53.09.41-9.13.21-35.31-1.83-36.84-5C-4,57.24,9.63,57.46,15.44,56.74Z"/><path class="p" d="M15.61,56.74c20.93-2.55,121.47-2.55,142.39,0,5.79.71,17.49.5,16.6,2.36-1.53,3.19-25.73,5.21-34.83,5-13.2-.3-47.7-.41-53-.41-5.65,0-39.76.11-53,.41-9.11.2-35.22-1.82-36.74-5C-3.79,57.24,9.82,57.45,15.61,56.74Z"/><path class="q" d="M15.79,56.74c20.87-2.54,121.16-2.54,142,0,5.78.71,17.45.5,16.56,2.35-1.52,3.17-25.67,5.17-34.75,5-13.17-.29-47.58-.41-52.83-.41-5.64,0-39.67.12-52.83.41-9.09.2-35.13-1.8-36.65-5C-3.56,57.24,10,57.45,15.79,56.74Z"/><path class="r" d="M16,56.74c20.82-2.52,120.87-2.52,141.69,0,5.77.7,17.42.5,16.53,2.34-1.52,3.15-25.61,5.13-34.67,4.93-13.14-.29-47.47-.4-52.7-.4-5.63,0-39.57.11-52.71.4-9.06.2-35-1.78-36.55-4.93C-3.34,57.24,10.19,57.44,16,56.74Z"/><path class="s" d="M16.13,56.74c20.77-2.51,120.58-2.51,141.35,0,5.75.7,17.38.51,16.49,2.33-1.51,3.13-25.55,5.09-34.59,4.89-13.1-.28-47.35-.4-52.57-.4-5.61,0-39.47.12-52.58.4-9,.2-34.94-1.76-36.45-4.89C-3.11,57.25,10.38,57.44,16.13,56.74Z"/><path class="t" d="M16.31,56.74c20.72-2.49,120.28-2.49,141,0,5.74.69,17.34.51,16.46,2.32-1.51,3.11-25.5,5-34.52,4.86-13.07-.29-47.23-.4-52.44-.4-5.6,0-39.38.11-52.45.4-9,.19-34.85-1.75-36.36-4.86C-2.89,57.25,10.57,57.43,16.31,56.74Z"/><path class="u" d="M16.48,56.74c20.67-2.47,120-2.47,140.66,0,5.72.68,17.3.51,16.42,2.31-1.51,3.09-25.44,5-34.44,4.82-13-.28-47.12-.4-52.31-.4-5.58,0-39.28.12-52.32.4-9,.2-34.76-1.73-36.26-4.82C-2.66,57.25,10.75,57.42,16.48,56.74Z"/><path class="v" d="M16.65,56.74c20.62-2.46,119.69-2.46,140.31,0,5.71.68,17.27.51,16.39,2.3-1.5,3.07-25.38,5-34.36,4.78-13-.28-47-.39-52.18-.39-5.57,0-39.18.11-52.19.39C25.65,64,0,62.11-1.55,59-2.43,57.25,10.94,57.42,16.65,56.74Z"/><path class="w" d="M16.82,56.74c20.57-2.44,119.4-2.44,140,0,5.69.67,17.23.52,16.35,2.3-1.5,3-25.32,4.93-34.27,4.74-13-.28-46.89-.39-52.06-.4-5.56,0-39.09.12-52.06.4C25.8,64,.17,62.08-1.33,59-2.21,57.26,11.13,57.41,16.82,56.74Z"/><path class="x" d="M17,56.74c20.51-2.43,119.1-2.43,139.62,0,5.68.67,17.19.52,16.31,2.29-1.49,3-25.27,4.89-34.19,4.7-13-.28-46.77-.39-51.93-.39-5.54,0-39,.11-51.93.39C26,63.92.39,62.05-1.1,59-2,57.26,11.32,57.41,17,56.74Z"/><path class="y" d="M17.17,56.74c20.47-2.41,118.81-2.41,139.27,0,5.67.66,17.16.52,16.29,2.28-1.49,3-25.22,4.85-34.12,4.66-12.91-.28-46.66-.38-51.8-.39-5.53,0-38.89.11-51.8.39C26.1,63.87.61,62-.88,59-1.76,57.26,11.5,57.4,17.17,56.74Z"/><path class="z" d="M17.34,56.74c20.42-2.4,118.51-2.4,138.93,0,5.65.66,17.12.52,16.25,2.27-1.49,3-25.16,4.81-34,4.62-12.88-.27-46.54-.38-51.67-.38-5.52,0-38.8.11-51.68.38C26.25,63.82.83,62-.66,59-1.53,57.26,11.69,57.4,17.34,56.74Z"/><path class="aa" d="M17.52,56.74c20.36-2.38,118.21-2.38,138.58,0,5.63.65,17.08.53,16.21,2.26-1.48,3-25.1,4.77-34,4.59-12.85-.28-46.42-.38-51.54-.39-5.5,0-38.7.11-51.55.39C26.4,63.77,1.05,62-.43,59-1.3,57.27,11.88,57.39,17.52,56.74Z"/><path class="ab" d="M17.69,56.74c20.31-2.37,117.92-2.37,138.23,0,5.63.65,17.05.53,16.18,2.25-1.48,2.94-25,4.74-33.88,4.55-12.81-.27-46.31-.38-51.41-.38-5.49,0-38.6.11-51.42.38C26.55,63.73,1.27,61.93-.21,59-1.08,57.27,12.06,57.39,17.69,56.74Z"/><path class="ac" d="M17.86,56.74c20.27-2.35,117.63-2.35,137.89,0,5.61.64,17,.53,16.15,2.24-1.48,2.92-25,4.7-33.81,4.51-12.78-.27-46.19-.37-51.28-.38-5.47,0-38.51.11-51.29.38C26.7,63.68,1.49,61.9,0,59-.85,57.27,12.25,57.38,17.86,56.74Z"/><path class="ad" d="M18,56.73c20.21-2.32,117.33-2.32,137.54,0,5.59.65,17,.54,16.11,2.24-1.47,2.9-24.93,4.66-33.73,4.47-12.75-.26-46.07-.37-51.15-.37-5.46,0-38.41.11-51.16.37C26.85,63.63,1.71,61.87.24,59-.63,57.27,12.44,57.38,18,56.73Z"/><path class="ae" d="M18.21,56.73c20.16-2.31,117-2.31,137.19,0,5.59.64,16.94.55,16.08,2.23-1.47,2.88-24.87,4.62-33.64,4.44-12.72-.27-46-.37-51-.37-5.45,0-38.31.1-51,.37C27,63.58,1.93,61.84.46,59-.4,57.28,12.63,57.37,18.21,56.73Z"/><path class="af" d="M18.38,56.73c20.11-2.29,116.74-2.29,136.85,0,5.57.64,16.9.55,16,2.22-1.46,2.86-24.81,4.58-33.56,4.4C125,63.09,91.86,63,86.81,63c-5.43,0-38.22.11-50.9.37C27.16,63.53,2.15,61.81.69,59-.17,57.28,12.81,57.37,18.38,56.73Z"/><path class="ag" d="M18.56,56.73c20.05-2.28,116.44-2.28,136.5,0,5.55.63,16.86.55,16,2.21-1.46,2.84-24.75,4.54-33.48,4.36-12.66-.26-45.73-.36-50.77-.36-5.42,0-38.12.1-50.77.36-8.73.18-33.67-1.52-35.13-4.36C.05,57.28,13,57.36,18.56,56.73Z"/><path class="ah" d="M18.73,56.73c20-2.26,116.15-2.26,136.15,0,5.54.63,16.83.55,16,2.2-1.46,2.82-24.7,4.5-33.41,4.32-12.62-.26-45.61-.36-50.64-.36-5.41,0-38,.1-50.65.36-8.7.18-33.57-1.5-35-4.32C.28,57.28,13.19,57.36,18.73,56.73Z"/><path class="ai" d="M18.9,56.73c20-2.25,115.85-2.25,135.81,0,5.53.62,16.79.56,15.94,2.19-1.45,2.8-24.65,4.46-33.33,4.29-12.59-.26-45.49-.36-50.51-.36-5.39,0-37.93.1-50.52.36-8.68.17-33.48-1.49-34.93-4.29C.5,57.29,13.38,57.35,18.9,56.73Z"/><path class="aj" d="M19.07,56.73c19.91-2.23,115.56-2.23,135.47,0,5.51.62,16.75.56,15.9,2.18-1.45,2.79-24.59,4.43-33.25,4.25-12.56-.26-45.38-.36-50.38-.36-5.38,0-37.83.1-50.39.36C27.76,63.34,3,61.7,1.58,58.91.73,57.29,13.56,57.35,19.07,56.73Z"/><path class="ak" d="M19.25,56.73c19.85-2.21,115.26-2.21,135.12,0,5.49.61,16.71.56,15.86,2.17-1.44,2.77-24.53,4.39-33.17,4.21-12.52-.25-45.26-.35-50.25-.35-5.36,0-37.73.1-50.26.35-8.64.18-33.3-1.44-34.74-4.21C1,57.29,13.75,57.34,19.25,56.73Z"/><path class="al" d="M19.42,56.73c19.8-2.2,115-2.2,134.77,0,5.49.61,16.68.56,15.84,2.17-1.45,2.74-24.48,4.34-33.1,4.16-12.49-.25-45.14-.35-50.12-.35-5.35,0-37.64.1-50.13.35C28.06,63.24,3.47,61.64,2,58.9,1.18,57.29,13.94,57.34,19.42,56.73Z"/><path class="am" d="M19.59,56.73c19.76-2.18,114.68-2.18,134.43,0,5.47.6,16.64.57,15.8,2.16-1.44,2.72-24.42,4.3-33,4.13-12.47-.25-45-.35-50-.35-5.34,0-37.54.1-50,.35-8.6.17-33.12-1.41-34.56-4.13C1.41,57.3,14.12,57.33,19.59,56.73Z"/><path class="an" d="M19.77,56.73c19.7-2.17,114.37-2.17,134.08,0,5.45.6,16.6.57,15.76,2.15-1.43,2.7-24.36,4.26-32.93,4.09-12.43-.25-44.92-.35-49.87-.35-5.32,0-37.44.1-49.87.35-8.58.17-33-1.39-34.46-4.09C1.63,57.3,14.31,57.33,19.77,56.73Z"/><path class="ao" d="M19.94,56.73c19.65-2.15,114.08-2.15,133.73,0,5.44.59,16.57.57,15.73,2.14-1.43,2.68-24.3,4.22-32.85,4.05-12.4-.24-44.8-.34-49.74-.34-5.31,0-37.35.1-49.74.34-8.56.17-32.94-1.37-34.37-4.05C1.86,57.3,14.5,57.32,19.94,56.73Z"/><path class="ap" d="M20.11,56.73c19.6-2.14,113.79-2.14,133.39,0,5.43.59,16.53.57,15.7,2.13-1.43,2.66-24.25,4.18-32.78,4-12.37-.24-44.68-.34-49.61-.34-5.3,0-37.25.1-49.62.34-8.52.17-32.84-1.35-34.27-4C2.09,57.3,14.69,57.32,20.11,56.73Z"/><path class="aq" d="M20.29,56.73c19.55-2.12,113.49-2.12,133,0,5.41.58,16.49.58,15.66,2.12-1.43,2.64-24.19,4.15-32.7,4-12.33-.25-44.57-.34-49.48-.34-5.28,0-37.15.09-49.49.34-8.5.17-32.75-1.34-34.17-4C2.31,57.31,14.87,57.31,20.29,56.73Z"/><path class="ar" d="M20.46,56.73c19.5-2.11,113.2-2.11,132.69,0,5.4.58,16.46.58,15.63,2.11-1.42,2.62-24.13,4.11-32.62,3.94-12.3-.24-44.45-.34-49.35-.34-5.27,0-37.06.1-49.36.34C29,63,4.79,61.46,3.37,58.84,2.54,57.31,15.06,57.31,20.46,56.73Z"/><path class="as" d="M20.63,56.73c19.45-2.09,112.9-2.09,132.35,0,5.38.57,16.42.58,15.59,2.1-1.41,2.6-24.07,4.07-32.54,3.9-12.27-.24-44.33-.33-49.22-.33-5.26,0-37,.09-49.23.33-8.46.17-32.57-1.3-34-3.9C2.76,57.31,15.25,57.3,20.63,56.73Z"/><path class="at" d="M20.81,56.72c19.39-2.06,112.6-2.06,132,0,5.37.58,16.38.59,15.55,2.1-1.41,2.58-24,4-32.46,3.87-12.23-.24-44.21-.34-49.09-.34-5.24,0-36.86.1-49.1.34-8.44.16-32.48-1.29-33.89-3.87C3,57.31,15.43,57.3,20.81,56.72Z"/><path class="au" d="M21,56.72c19.34-2,112.31-2,131.65,0,5.36.57,16.35.6,15.53,2.09-1.41,2.56-24,4-32.38,3.83-12.21-.24-44.11-.33-49-.33-5.23,0-36.77.09-49,.33C29.42,62.8,5.45,61.37,4,58.81,3.22,57.32,15.62,57.29,21,56.72Z"/><path class="av" d="M21.15,56.72c19.3-2,112-2,131.31,0,5.34.57,16.31.6,15.49,2.08-1.41,2.54-23.91,4-32.3,3.79-12.18-.23-44-.32-48.84-.33-5.21,0-36.67.1-48.84.33-8.4.16-32.3-1.25-33.7-3.79C3.44,57.32,15.81,57.29,21.15,56.72Z"/><path class="aw" d="M21.33,56.72c19.24-2,111.71-2,131,0,5.33.56,16.28.6,15.45,2.07-1.4,2.52-23.85,3.91-32.22,3.75-12.14-.23-43.87-.32-48.71-.32-5.2,0-36.57.09-48.71.32-8.38.16-32.21-1.23-33.61-3.75C3.67,57.32,16,57.28,21.33,56.72Z"/><path class="ax" d="M21.5,56.72c19.19-2,111.42-2,130.62,0,5.31.56,16.24.6,15.41,2.06-1.39,2.5-23.79,3.87-32.14,3.72-12.11-.23-43.76-.32-48.58-.33-5.19,0-36.48.1-48.59.33-8.35.15-32.11-1.22-33.5-3.72C3.89,57.32,16.18,57.28,21.5,56.72Z"/><path class="ay" d="M21.67,56.72c19.14-2,111.13-2,130.27,0,5.3.55,16.21.61,15.39,2.05-1.4,2.48-23.74,3.84-32.07,3.68-12.08-.23-43.64-.32-48.45-.32-5.17,0-36.38.09-48.46.32-8.33.16-32-1.2-33.41-3.68C4.12,57.33,16.37,57.27,21.67,56.72Z"/><path class="az" d="M21.84,56.72c19.1-2,110.84-2,129.93,0,5.28.55,16.17.61,15.35,2.05-1.39,2.45-23.68,3.79-32,3.63-12-.23-43.52-.31-48.32-.32-5.16,0-36.28.09-48.33.32-8.31.16-31.93-1.18-33.32-3.63C4.35,57.33,16.56,57.27,21.84,56.72Z"/><path class="ba" d="M22,56.72c19-1.95,110.54-1.95,129.58,0,5.27.54,16.13.61,15.31,2-1.39,2.43-23.62,3.75-31.91,3.59C123,62.13,91.6,62,86.81,62c-5.15,0-36.19.09-48.2.31-8.29.16-31.84-1.16-33.22-3.59C4.57,57.33,16.74,57.26,22,56.72Z"/><path class="bb" d="M22.19,56.72c19-1.94,110.24-1.94,129.23,0,5.26.54,16.1.61,15.28,2-1.38,2.41-23.56,3.71-31.83,3.56-12-.23-43.29-.31-48.06-.32-5.13,0-36.09.09-48.07.32C30.48,62.46,7,61.16,5.61,58.75,4.8,57.33,16.93,57.26,22.19,56.72Z"/><path class="bc" d="M22.36,56.72c18.94-1.92,110-1.92,128.89,0,5.24.53,16.06.62,15.24,2-1.37,2.39-23.5,3.67-31.74,3.52C122.8,62,91.57,62,86.81,62c-5.12,0-36,.09-47.94.31-8.24.15-31.66-1.13-33-3.52C5,57.34,17.12,57.25,22.36,56.72Z"/><path class="bd" d="M22.54,56.72c18.88-1.91,109.65-1.91,128.54,0,5.23.53,16,.62,15.21,2-1.38,2.37-23.45,3.63-31.67,3.48-11.92-.22-43.06-.3-47.81-.3-5.1,0-35.9.08-47.81.3-8.22.15-31.57-1.11-32.94-3.48C5.25,57.34,17.31,57.25,22.54,56.72Z"/><path class="be" d="M22.71,56.72c18.84-1.89,109.36-1.89,128.19,0,5.22.52,16,.62,15.18,2-1.37,2.35-23.39,3.59-31.59,3.44-11.89-.21-42.95-.3-47.68-.3-5.09,0-35.8.09-47.68.3-8.2.15-31.48-1.09-32.85-3.44C5.48,57.34,17.49,57.24,22.71,56.72Z"/><path class="bf" d="M22.88,56.72c18.79-1.88,109.06-1.88,127.85,0,5.2.52,16,.62,15.14,2-1.37,2.33-23.34,3.55-31.51,3.41-11.85-.22-42.83-.3-47.55-.3-5.08,0-35.7.08-47.56.3C31.08,62.26,7.87,61,6.51,58.71,5.7,57.34,17.68,57.24,22.88,56.72Z"/><path class="bg" d="M23.06,56.72c18.73-1.86,108.76-1.86,127.5,0,5.18.51,15.91.63,15.1,2-1.36,2.32-23.28,3.52-31.43,3.37-11.82-.21-42.71-.3-47.42-.3-5.06,0-35.61.09-47.43.3-8.15.15-31.29-1-32.65-3.37C5.93,57.35,17.87,57.23,23.06,56.72Z"/><path class="bh" d="M23.23,56.72c18.68-1.85,108.47-1.85,127.15,0,5.18.51,15.88.63,15.08,2C164.1,61,142.23,62.17,134.1,62c-11.79-.21-42.59-.29-47.29-.29-5,0-35.51.08-47.3.29-8.13.15-31.2-1-32.56-3.33C6.15,57.35,18.05,57.23,23.23,56.72Z"/><path class="bi" d="M23.4,56.72c18.64-1.83,108.18-1.83,126.81,0,5.16.5,15.84.63,15,2C163.89,61,142.08,62.12,134,62c-11.75-.21-42.48-.29-47.16-.29-5,0-35.41.08-47.17.29-8.11.15-31.11-1-32.46-3.29C6.38,57.35,18.24,57.22,23.4,56.72Z"/><path class="bj" d="M23.58,56.71c18.58-1.8,107.88-1.8,126.46,0,5.14.51,15.8.64,15,2-1.35,2.26-23.11,3.4-31.2,3.26-11.72-.21-42.36-.29-47-.29-5,0-35.32.08-47,.29-8.09.14-31-1-32.37-3.26C6.61,57.35,18.43,57.22,23.58,56.71Z"/><path class="bk" d="M23.75,56.71c18.53-1.79,107.58-1.79,126.11,0,5.13.5,15.77.65,15,1.95-1.35,2.24-23.05,3.36-31.11,3.22-11.7-.21-42.25-.29-46.91-.29-5,0-35.22.08-46.91.29C31.83,62,9,60.9,7.62,58.66,6.83,57.36,18.62,57.21,23.75,56.71Z"/><path class="bl" d="M23.92,56.71c18.48-1.77,107.29-1.77,125.77,0,5.12.5,15.73.65,14.94,1.94-1.35,2.22-23,3.32-31,3.18-11.66-.2-42.13-.28-46.78-.28-5,0-35.12.08-46.78.28-8,.14-30.84-1-32.18-3.18C7.06,57.36,18.8,57.21,23.92,56.71Z"/><path class="bm" d="M24.09,56.71c18.43-1.76,107-1.76,125.43,0,5.1.49,15.69.65,14.9,1.93-1.34,2.2-22.94,3.28-31,3.14-11.63-.2-42-.28-46.65-.28-5,0-35,.08-46.65.28-8,.14-30.75-.94-32.09-3.14C7.28,57.36,19,57.2,24.09,56.71Z"/><path class="bn" d="M24.27,56.71C42.65,55,131,55,149.35,56.71c5.08.49,15.65.65,14.86,1.92-1.34,2.18-22.88,3.25-30.88,3.11-11.6-.2-41.9-.28-46.52-.28-5,0-34.93.08-46.53.28-8,.14-30.65-.93-32-3.11C7.51,57.36,19.18,57.2,24.27,56.71Z"/><path class="bo" d="M24.44,56.71c18.33-1.73,106.4-1.73,124.73,0,5.08.48,15.62.66,14.83,1.92-1.33,2.15-22.82,3.2-30.8,3.06-11.56-.2-41.78-.28-46.39-.28-5,0-34.83.08-46.4.28-8,.14-30.56-.91-31.89-3.06C7.74,57.37,19.36,57.19,24.44,56.71Z"/><path class="bp" d="M24.61,56.71C42.89,55,130.72,55,149,56.71c5.06.48,15.58.66,14.79,1.91-1.33,2.13-22.76,3.16-30.72,3-11.53-.19-41.67-.27-46.26-.27-4.94,0-34.74.08-46.27.27-7.95.14-30.47-.89-31.8-3C8,57.37,19.55,57.19,24.61,56.71Z"/><path class="bq" d="M24.79,56.71C43,55,130.6,55,148.83,56.71c5,.47,15.54.66,14.76,1.9-1.33,2.11-22.72,3.12-30.65,3-11.5-.2-41.55-.28-46.13-.28-4.93,0-34.64.08-46.14.28-7.93.13-30.38-.88-31.7-3C8.19,57.37,19.74,57.18,24.79,56.71Z"/><path class="br" d="M25,56.71C43.14,55,130.48,55,148.65,56.71c5,.46,15.51.66,14.73,1.89-1.32,2.09-22.66,3.08-30.57,2.95-11.46-.19-41.43-.27-46-.27-4.91,0-34.54.08-46,.27-7.91.13-30.29-.86-31.61-2.95C8.41,57.37,19.93,57.17,25,56.71Z"/><path class="bs" d="M25.13,56.71c18.13-1.66,105.23-1.66,123.35,0,5,.46,15.47.67,14.69,1.88-1.32,2.07-22.6,3-30.48,2.91-11.44-.19-41.32-.27-45.88-.27-4.9,0-34.45.08-45.88.27-7.89.13-30.2-.84-31.52-2.91C8.64,57.38,20.11,57.17,25.13,56.71Z"/><path class="bt" d="M25.31,56.71c18.07-1.65,104.92-1.65,123,0,5,.45,15.43.67,14.65,1.87-1.31,2.05-22.54,3-30.4,2.87-11.41-.19-41.21-.26-45.75-.26-4.88,0-34.35.07-45.75.26-7.87.13-30.11-.82-31.42-2.87C8.87,57.38,20.3,57.16,25.31,56.71Z"/><path class="bu" d="M25.48,56.71c18-1.63,104.63-1.63,122.65,0,5,.45,15.4.67,14.63,1.86-1.32,2-22.49,3-30.33,2.84-11.37-.19-41.09-.26-45.62-.27-4.87,0-34.25.08-45.62.27-7.85.12-30-.81-31.33-2.84C9.09,57.38,20.49,57.16,25.48,56.71Z"/><path class="bv" d="M25.65,56.71c18-1.62,104.34-1.62,122.31,0,5,.44,15.36.67,14.59,1.85-1.31,2-22.43,2.93-30.25,2.8-11.34-.19-41-.26-45.49-.26-4.86,0-34.16.07-45.5.26-7.82.13-29.91-.79-31.22-2.8C9.32,57.38,20.67,57.15,25.65,56.71Z"/><path class="bw" d="M25.83,56.71c17.92-1.6,104-1.6,122,0,5,.44,15.32.68,14.55,1.84-1.3,2-22.37,2.89-30.17,2.76-11.31-.18-40.86-.25-45.36-.26-4.84,0-34.06.08-45.37.26-7.8.13-29.82-.77-31.13-2.76C9.54,57.39,20.86,57.15,25.83,56.71Z"/><path class="bx" d="M26,56.71c17.87-1.59,103.75-1.59,121.61,0,4.95.43,15.29.68,14.52,1.83-1.3,2-22.31,2.85-30.09,2.72C120.77,61.08,91.3,61,86.81,61c-4.83,0-34,.07-45.24.25-7.77.13-29.73-.75-31-2.72C9.77,57.39,21.05,57.14,26,56.71Z"/><path class="by" d="M26.17,56.71c17.82-1.57,103.45-1.57,121.27,0,4.93.43,15.25.68,14.48,1.82-1.29,1.95-22.25,2.81-30,2.69C120.67,61,91.29,61,86.81,61,82,61,52.94,61,41.7,61.22c-7.75.12-29.64-.74-30.94-2.69C10,57.39,21.24,57.14,26.17,56.71Z"/><path class="bz" d="M26.35,56.71c17.76-1.55,103.15-1.55,120.92,0,4.92.42,15.21.68,14.45,1.81-1.3,1.93-22.2,2.77-29.94,2.65-11.21-.18-40.5-.25-45-.25-4.8,0-33.77.07-45,.25-7.73.12-29.55-.72-30.85-2.65C10.22,57.39,21.42,57.13,26.35,56.71Z"/><path class="ca" d="M26.52,56.7c17.71-1.53,102.86-1.53,120.58,0,4.9.43,15.17.7,14.41,1.81-1.29,1.91-22.14,2.73-29.85,2.61-11.18-.17-40.4-.24-44.85-.24-4.79,0-33.67.07-44.85.24-7.71.12-29.46-.7-30.76-2.61C10.45,57.4,21.61,57.13,26.52,56.7Z"/><path class="cb" d="M26.69,56.7c17.67-1.51,102.57-1.51,120.23,0,4.89.42,15.14.7,14.38,1.8-1.29,1.89-22.08,2.69-29.77,2.57-11.15-.17-40.28-.24-44.72-.24-4.78,0-33.58.07-44.72.24-7.69.12-29.37-.68-30.66-2.57C10.67,57.4,21.8,57.12,26.69,56.7Z"/><path class="cc" d="M26.86,56.7c17.62-1.5,102.27-1.5,119.89,0,4.87.42,15.1.7,14.34,1.79-1.28,1.87-22,2.66-29.69,2.54-11.12-.18-40.16-.24-44.59-.24-4.76,0-33.48.06-44.59.24-7.67.12-29.28-.67-30.57-2.54C10.9,57.4,22,57.12,26.86,56.7Z"/><path class="cd" d="M27,56.7c17.56-1.48,102-1.48,119.54,0,4.86.41,15.06.7,14.31,1.79-1.28,1.85-22,2.61-29.62,2.49-11.08-.17-40-.24-44.46-.24-4.75,0-33.38.07-44.47.24-7.64.12-29.18-.64-30.46-2.49C11.13,57.4,22.17,57.11,27,56.7Z"/><path class="ce" d="M27.21,56.7c17.51-1.47,101.68-1.47,119.19,0,4.85.41,15,.71,14.28,1.78-1.28,1.83-21.92,2.57-29.54,2.45-11-.17-39.93-.23-44.33-.23-4.73,0-33.29.06-44.34.23-7.62.12-29.09-.62-30.37-2.45C11.35,57.41,22.36,57.11,27.21,56.7Z"/><path class="cf" d="M27.38,56.7c17.47-1.45,101.39-1.45,118.85,0,4.83.4,15,.71,14.24,1.77C159.2,60.28,138.61,61,131,60.88c-11-.16-39.81-.23-44.2-.23-4.72,0-33.19.07-44.21.23-7.6.12-29-.6-30.28-2.41C11.58,57.41,22.55,57.1,27.38,56.7Z"/><path class="cg" d="M27.56,56.7c17.41-1.43,101.09-1.43,118.5,0,4.82.4,14.95.71,14.2,1.76-1.27,1.79-21.8,2.49-29.38,2.38-11-.17-39.69-.23-44.07-.23-4.71,0-33.09.06-44.08.23-7.58.11-28.91-.59-30.18-2.38C11.8,57.41,22.73,57.1,27.56,56.7Z"/><path class="ch" d="M27.73,56.7c17.36-1.42,100.79-1.42,118.15,0,4.81.39,14.92.71,14.18,1.75-1.27,1.77-21.75,2.45-29.31,2.34-11-.16-39.58-.23-43.94-.23-4.69,0-33,.07-43.95.23-7.56.11-28.82-.57-30.09-2.34C12,57.41,22.92,57.09,27.73,56.7Z"/><path class="ci" d="M27.9,56.7c17.31-1.4,100.5-1.4,117.81,0,4.79.39,14.88.72,14.14,1.74-1.26,1.75-21.69,2.41-29.22,2.3-10.93-.16-39.47-.22-43.82-.22-4.68,0-32.9.06-43.82.22-7.54.11-28.73-.55-30-2.3C12.26,57.42,23.11,57.09,27.9,56.7Z"/><path class="cj" d="M28.08,56.7c17.25-1.39,100.2-1.39,117.46,0,4.77.38,14.84.72,14.1,1.73-1.26,1.73-21.63,2.37-29.14,2.26-10.89-.15-39.35-.22-43.69-.22-4.67,0-32.8.07-43.69.22-7.51.11-28.64-.53-29.9-2.26C12.48,57.42,23.3,57.08,28.08,56.7Z"/><path class="ck" d="M28.25,56.7c17.21-1.37,99.91-1.37,117.11,0,4.77.38,14.81.72,14.07,1.72-1.25,1.71-21.57,2.34-29.06,2.23-10.86-.16-39.23-.22-43.56-.22-4.65,0-32.71.06-43.56.22-7.49.11-28.55-.52-29.81-2.23C12.71,57.42,23.48,57.08,28.25,56.7Z"/><path class="cl" d="M28.42,56.7c17.16-1.36,99.61-1.36,116.77,0,4.75.37,14.77.72,14,1.71-1.25,1.69-21.51,2.3-29,2.19-10.83-.16-39.12-.22-43.43-.22-4.64,0-32.61.06-43.44.22-7.46.11-28.45-.5-29.7-2.19C12.93,57.42,23.67,57.07,28.42,56.7Z"/><path class="cm" d="M28.6,56.7c17.1-1.34,99.31-1.34,116.42,0,4.73.37,14.73.73,14,1.7-1.25,1.67-21.46,2.26-28.91,2.15-10.79-.15-39-.21-43.3-.21-4.62,0-32.51.06-43.31.21-7.44.11-28.36-.48-29.61-2.15C13.16,57.43,23.86,57.07,28.6,56.7Z"/><path class="cn" d="M28.77,56.7c17.05-1.33,99-1.33,116.07,0,4.73.36,14.7.73,14,1.69C157.57,60,137.4,60.61,130,60.51c-10.76-.16-38.88-.22-43.17-.22-4.61,0-32.42.06-43.18.22-7.42.1-28.27-.47-29.52-2.12C13.39,57.43,24,57.06,28.77,56.7Z"/><path class="co" d="M28.94,56.7c17-1.31,98.73-1.31,115.73,0,4.71.36,14.66.73,13.93,1.68-1.24,1.63-21.35,2.18-28.75,2.08-10.73-.15-38.76-.21-43-.21-4.6,0-32.32.06-43.05.21-7.4.1-28.18-.45-29.42-2.08C13.61,57.43,24.23,57.06,28.94,56.7Z"/><path class="cp" d="M29.12,56.7c17-1.29,98.43-1.29,115.38,0,4.69.35,14.62.73,13.89,1.67-1.23,1.61-21.29,2.14-28.67,2-10.69-.15-38.65-.21-42.91-.21-4.58,0-32.22.06-42.92.21-7.38.1-28.09-.43-29.33-2C13.84,57.43,24.42,57.05,29.12,56.7Z"/><path class="cq" d="M29.29,56.69c16.9-1.27,98.13-1.27,115,0,4.67.36,14.58.75,13.86,1.67C157,60,137,60.46,129.6,60.36c-10.67-.14-38.54-.2-42.79-.2-4.57,0-32.13.06-42.79.2-7.36.1-28-.41-29.23-2C14.06,57.44,24.61,57.05,29.29,56.69Z"/><path class="cr" d="M29.46,56.69c16.85-1.25,97.84-1.25,114.69,0,4.67.35,14.55.75,13.83,1.66-1.23,1.57-21.18,2.06-28.51,2-10.64-.15-38.42-.21-42.66-.21-4.56,0-32,.06-42.66.21-7.34.09-27.91-.4-29.14-2C14.29,57.44,24.79,57,29.46,56.69Z"/><path class="cs" d="M29.63,56.69c16.8-1.24,97.55-1.24,114.35,0,4.65.35,14.51.75,13.79,1.66-1.22,1.54-21.12,2-28.43,1.92-10.6-.14-38.31-.2-42.53-.2-4.54,0-31.93.06-42.53.2-7.32.1-27.82-.38-29-1.92C14.52,57.44,25,57,29.63,56.69Z"/><path class="ct" d="M29.81,56.69c16.75-1.22,97.25-1.22,114,0,4.63.34,14.47.75,13.75,1.65-1.22,1.52-21.06,2-28.35,1.88C118.64,60.08,91,60,86.81,60c-4.53,0-31.84.06-42.41.2-7.29.1-27.72-.36-28.94-1.88C14.74,57.44,25.17,57,29.81,56.69Z"/><path class="cu" d="M30,56.69c16.7-1.21,97-1.21,113.65,0,4.62.34,14.44.76,13.72,1.64-1.21,1.5-21,1.94-28.27,1.84C118.54,60,91,60,86.81,60c-4.51,0-31.74.05-42.28.19-7.26.1-27.63-.34-28.85-1.84C15,57.45,25.35,57,30,56.69Z"/><path class="cv" d="M30.15,56.69c16.65-1.19,96.66-1.19,113.31,0,4.61.33,14.4.76,13.69,1.63-1.22,1.48-21,1.9-28.2,1.81-10.5-.14-37.95-.19-42.14-.2-4.5,0-31.64.06-42.15.2-7.24.09-27.54-.33-28.76-1.81C15.19,57.45,25.54,57,30.15,56.69Z"/><path class="cw" d="M30.33,56.69c16.59-1.17,96.36-1.17,113,0,4.59.33,14.36.76,13.65,1.62-1.21,1.46-20.89,1.86-28.12,1.77-10.47-.14-37.84-.19-42-.19-4.49,0-31.55,0-42,.19-7.22.09-27.45-.31-28.66-1.77C15.42,57.45,25.73,57,30.33,56.69Z"/><path class="cx" d="M30.5,56.69c16.55-1.16,96.07-1.16,112.61,0,4.58.32,14.33.76,13.62,1.61-1.2,1.44-20.83,1.82-28,1.73-10.44-.13-37.72-.18-41.88-.19-4.47,0-31.45.06-41.89.19-7.2.09-27.36-.29-28.57-1.73C15.65,57.45,25.92,57,30.5,56.69Z"/><path class="cy" d="M30.67,56.69c16.5-1.14,95.78-1.14,112.27,0,4.57.32,14.29.77,13.58,1.6-1.2,1.42-20.78,1.78-28,1.69-10.41-.13-37.61-.18-41.76-.18-4.46,0-31.35.05-41.76.18-7.18.09-27.27-.27-28.47-1.69C15.87,57.46,26.1,57,30.67,56.69Z"/><path class="cz" d="M30.85,56.69c16.44-1.13,95.47-1.13,111.92,0,4.55.31,14.25.77,13.55,1.59-1.2,1.4-20.73,1.75-27.88,1.66-10.38-.13-37.5-.18-41.63-.18-4.45,0-31.26.05-41.63.18C38,60,18,59.68,16.8,58.28,16.1,57.46,26.29,57,30.85,56.69Z"/><path class="da" d="M31,56.69c16.39-1.11,95.18-1.11,111.57,0,4.54.31,14.22.77,13.52,1.58-1.2,1.39-20.67,1.71-27.8,1.62-10.35-.13-37.38-.18-41.5-.18-4.43,0-31.16,0-41.5.18C38.17,60,18.22,59.66,17,58.27,16.32,57.46,26.48,57,31,56.69Z"/><path class="db" d="M31.19,56.69c16.34-1.1,94.89-1.1,111.23,0,4.52.3,14.18.77,13.48,1.57-1.19,1.37-20.61,1.67-27.72,1.58-10.31-.12-37.26-.17-41.37-.17-4.42,0-31.06,0-41.38.17-7.11.09-27-.21-28.18-1.58C16.55,57.46,26.66,57,31.19,56.69Z"/><path class="dc" d="M31.37,56.69c16.29-1.08,94.59-1.08,110.88,0,4.51.3,14.14.78,13.44,1.56-1.18,1.35-20.55,1.63-27.64,1.54-10.28-.12-37.14-.17-41.24-.17-4.4,0-31,.05-41.25.17-7.09.09-26.9-.19-28.09-1.54C16.78,57.47,26.85,57,31.37,56.69Z"/><path class="dd" d="M31.54,56.69c16.24-1.07,94.29-1.07,110.54,0,4.49.29,14.1.78,13.41,1.55-1.19,1.33-20.5,1.59-27.57,1.51-10.25-.13-37-.17-41.11-.17-4.39,0-30.87,0-41.12.17-7.07.08-26.81-.18-28-1.51C17,57.47,27,57,31.54,56.69Z"/><path class="de" d="M31.71,56.69c16.19-1,94-1,110.19,0,4.48.29,14.07.78,13.38,1.54-1.18,1.31-20.44,1.55-27.49,1.47-10.21-.12-36.91-.17-41-.17-4.38,0-30.77,0-41,.17-7,.08-26.72-.16-27.9-1.47C17.23,57.47,27.23,57,31.71,56.69Z"/><path class="df" d="M31.88,56.69c16.14-1,93.71-1,109.85,0,4.47.28,14,.78,13.34,1.53-1.18,1.29-20.38,1.51-27.41,1.43-10.18-.12-36.79-.16-40.85-.16-4.36,0-30.68,0-40.86.16-7,.08-26.63-.14-27.81-1.43C17.45,57.47,27.41,57,31.88,56.69Z"/><path class="dg" d="M32.06,56.68c16.09-1,93.41-1,109.5,0,4.45.29,14,.8,13.3,1.53-1.17,1.27-20.32,1.47-27.32,1.39-10.16-.11-36.68-.16-40.73-.16-4.35,0-30.58.05-40.73.16-7,.08-26.54-.12-27.71-1.39C17.68,57.48,27.6,57,32.06,56.68Z"/><path class="dh" d="M32.23,56.68c16-1,93.12-1,109.15,0,4.44.28,14,.8,13.27,1.53-1.16,1.24-20.26,1.43-27.24,1.35-10.12-.12-36.57-.16-40.6-.16-4.34,0-30.48,0-40.6.16-7,.08-26.45-.11-27.62-1.35C17.91,57.48,27.79,57,32.23,56.68Z"/><path class="di" d="M32.4,56.68c16-1,92.82-1,108.81,0,4.42.28,13.92.8,13.24,1.52-1.17,1.22-20.21,1.39-27.17,1.31-10.09-.11-36.45-.16-40.47-.16-4.32,0-30.39,0-40.47.16-7,.08-26.36-.09-27.53-1.31C18.13,57.48,28,57,32.4,56.68Z"/><path class="dj" d="M32.58,56.68c15.93-1,92.52-1,108.46,0,4.41.27,13.88.8,13.2,1.51-1.16,1.2-20.15,1.35-27.09,1.27-10.06-.11-36.33-.15-40.34-.15-4.31,0-30.29,0-40.35.15-6.93.08-26.26-.07-27.42-1.27C18.36,57.48,28.16,57,32.58,56.68Z"/><path class="dk" d="M32.75,56.68c15.88-1,92.23-1,108.11,0,4.4.27,13.85.81,13.17,1.5-1.16,1.18-20.1,1.31-27,1.24-10-.11-36.22-.16-40.21-.16-4.3,0-30.19.05-40.22.16-6.91.07-26.17-.06-27.33-1.24C18.58,57.49,28.35,57,32.75,56.68Z"/><path class="dl" d="M32.92,56.68c15.84-.93,91.94-.93,107.77,0,4.38.26,13.81.81,13.13,1.49-1.15,1.16-20,1.27-26.93,1.2-10-.11-36.1-.15-40.08-.15-4.28,0-30.1,0-40.09.15-6.89.07-26.08,0-27.24-1.2C18.81,57.49,28.54,56.94,32.92,56.68Z"/><path class="dm" d="M33.1,56.68c15.78-.91,91.64-.91,107.42,0,4.36.26,13.77.81,13.1,1.48-1.15,1.14-20,1.23-26.86,1.16-10-.1-36-.15-39.95-.15-4.27,0-30,0-40,.15-6.87.07-26,0-27.14-1.16C19,57.49,28.72,56.94,33.1,56.68Z"/><path class="dn" d="M33.27,56.68c15.73-.9,91.34-.9,107.07,0,4.36.25,13.74.81,13.07,1.47-1.15,1.12-19.93,1.19-26.78,1.12-9.92-.1-35.86-.14-39.82-.14-4.25,0-29.9,0-39.83.14-6.85.07-25.9,0-27-1.12C19.26,57.49,28.91,56.93,33.27,56.68Z"/><path class="do" d="M33.44,56.68c15.68-.88,91.05-.88,106.73,0,4.34.24,13.7.82,13,1.46-1.14,1.1-19.87,1.15-26.69,1.09-9.9-.11-35.76-.15-39.7-.15-4.24,0-29.81,0-39.7.15-6.83.06-25.81,0-26.95-1.09C19.49,57.5,29.1,56.92,33.44,56.68Z"/><path class="dp" d="M33.62,56.68c15.62-.87,90.75-.87,106.38,0,4.32.24,13.66.82,13,1.45-1.14,1.08-19.81,1.12-26.61,1-9.87-.1-35.64-.14-39.57-.14-4.23,0-29.71,0-39.57.14-6.81.07-25.72,0-26.86-1C19.71,57.5,29.28,56.92,33.62,56.68Z"/><path class="dq" d="M33.79,56.68c15.58-.85,90.46-.85,106,0,4.32.23,13.63.82,13,1.44-1.13,1.06-19.75,1.08-26.53,1C116.42,59,90.73,59,86.81,59c-4.21,0-29.61,0-39.44.14-6.79.07-25.63,0-26.77-1C19.94,57.5,29.47,56.91,33.79,56.68Z"/><path class="dr" d="M34,56.68c15.53-.84,90.16-.84,105.69,0,4.3.23,13.59.82,12.93,1.43-1.13,1-19.7,1-26.46,1C116.32,59,90.71,59,86.81,59c-4.2,0-29.52,0-39.32.13-6.75.07-25.53.07-26.66-1C20.16,57.5,29.66,56.91,34,56.68Z"/><path class="ds" d="M34.14,56.68c15.47-.82,89.86-.82,105.34,0,4.28.22,13.55.83,12.89,1.42-1.13,1-19.64,1-26.38.94-9.77-.1-35.29-.13-39.18-.14-4.19,0-29.42,0-39.19.14-6.73.06-25.44.08-26.57-.94C20.39,57.51,29.85,56.9,34.14,56.68Z"/><path class="dt" d="M34.31,56.68c15.42-.81,89.57-.81,105,0,4.26.22,13.51.83,12.85,1.41-1.12,1-19.58,1-26.3.9-9.73-.09-35.17-.13-39-.13-4.17,0-29.32,0-39.06.13-6.71.06-25.35.1-26.47-.9C20.62,57.51,30,56.9,34.31,56.68Z"/><path class="du" d="M34.48,56.68c15.38-.79,89.28-.79,104.65,0,4.26.21,13.48.83,12.82,1.4-1.12,1-19.52.92-26.22.86-9.7-.09-35-.12-38.92-.13-4.16,0-29.23,0-38.93.13-6.69.06-25.26.12-26.38-.86C20.84,57.51,30.22,56.89,34.48,56.68Z"/><path class="dv" d="M34.65,56.68c15.33-.77,89-.77,104.31,0,4.24.21,13.44.83,12.79,1.39-1.12,1-19.48.88-26.15.82-9.67-.08-34.94-.12-38.79-.12-4.14,0-29.13,0-38.8.12-6.67.06-25.17.14-26.29-.82C21.07,57.51,30.41,56.89,34.65,56.68Z"/><path class="dw" d="M34.83,56.68c15.27-.76,88.68-.76,104,0,4.22.2,13.4.84,12.75,1.39-1.11.93-19.42.84-26.06.78-9.64-.09-34.83-.12-38.67-.13-4.13,0-29,0-38.67.13-6.65.06-25.08.15-26.19-.78C21.29,57.52,30.6,56.88,34.83,56.68Z"/><path class="dx" d="M35,56.67c15.22-.73,88.39-.73,103.61,0,4.22.21,13.37.85,12.72,1.39-1.11.92-19.36.8-26,.74-9.61-.09-34.71-.12-38.54-.12-4.12,0-28.94,0-38.54.12-6.63.06-25,.18-26.1-.74C21.52,57.52,30.78,56.88,35,56.67Z"/><path class="dy" d="M35.17,56.67c15.17-.72,88.1-.72,103.27,0,4.2.2,13.33.85,12.68,1.38-1.1.9-19.3.76-25.9.7-9.58-.08-34.59-.11-38.41-.11-4.1,0-28.84,0-38.41.11-6.61.06-24.9.2-26-.7C21.75,57.52,31,56.87,35.17,56.67Z"/><path class="dz" d="M35.35,56.67c15.12-.7,87.8-.7,102.92,0,4.18.2,13.29.85,12.65,1.37-1.11.88-19.25.72-25.83.66-9.54-.08-34.48-.11-38.28-.11-4.09,0-28.74,0-38.29.11-6.58.06-24.8.22-25.9-.66C22,57.52,31.16,56.87,35.35,56.67Z"/><path class="ea" d="M35.52,56.67c15.07-.69,87.5-.69,102.57,0,4.17.19,13.26.86,12.62,1.36-1.1.86-19.19.68-25.75.63-9.51-.08-34.36-.11-38.15-.11-4.08,0-28.65,0-38.16.11-6.56.05-24.71.23-25.81-.63C22.2,57.53,31.34,56.86,35.52,56.67Z"/><path class="eb" d="M35.69,56.67c15-.67,87.21-.67,102.23,0,4.16.19,13.22.86,12.58,1.35-1.09.84-19.13.64-25.67.59-9.48-.08-34.24-.11-38-.11-4.06,0-28.55,0-38,.11-6.54,0-24.62.25-25.71-.59C22.42,57.53,31.53,56.86,35.69,56.67Z"/><path class="ec" d="M35.87,56.67c15-.65,86.91-.65,101.88,0,4.14.18,13.18.86,12.54,1.34-1.09.82-19.07.6-25.59.55-9.44-.07-34.13-.1-37.89-.1-4,0-28.45,0-37.9.1-6.51,0-24.53.27-25.62-.55C22.65,57.53,31.72,56.85,35.87,56.67Z"/><path class="ed" d="M36,56.67C51,56,122.66,56,137.57,56.67c4.13.18,13.15.86,12.51,1.33-1.08.8-19,.56-25.51.51-9.41-.07-34-.1-37.76-.1-4,0-28.36,0-37.77.1-6.49.05-24.44.29-25.53-.51C22.88,57.53,31.91,56.85,36,56.67Z"/><path class="ee" d="M36.21,56.67c14.87-.62,86.33-.62,101.19,0,4.11.17,13.11.87,12.48,1.32-1.09.78-19,.53-25.43.48-9.39-.07-33.9-.1-37.64-.1-4,0-28.26,0-37.64.1-6.47.05-24.35.3-25.43-.48C23.1,57.54,32.09,56.84,36.21,56.67Z"/></g></g></g><path class="ef" d="M140.74,58.5a53.74,53.74,0,0,0-107.48,0"/><g class="eg"><g class="eh"><circle class="ei" cx="87" cy="59.08" r="41.89"/></g><circle class="c" cx="86.9" cy="59.08" r="31.06"/><g class="ej"><path class="ek" d="M86.86,29.25h0a30.4,30.4,0,0,1,3.16.16,29.83,29.83,0,0,1-3.08,59.5,30.26,30.26,0,0,1-3.16-.17,29.83,29.83,0,0,1,3.08-59.49m0-1.23a31.06,31.06,0,0,0-3.21,62,30.34,30.34,0,0,0,3.29.17,31.06,31.06,0,0,0,3.21-61.95A30.34,30.34,0,0,0,86.86,28Z"/></g></g></g></svg>