<svg xmlns="http://www.w3.org/2000/svg" xmlns:xlink="http://www.w3.org/1999/xlink" width="44.75" height="50.99" viewBox="0 0 44.75 50.99"><defs><style>.a{fill:url(#a);}.b{fill:#d33d3d;}</style><linearGradient id="a" x1="22.38" y1="50.99" x2="22.38" gradientUnits="userSpaceOnUse"><stop offset="0"/><stop offset="1" stop-opacity="0"/></linearGradient></defs><title>KH_Sprite</title><rect class="a" width="44.75" height="50.99"/><path class="b" d="M14.84,15.87A2.16,2.16,0,0,0,12.69,18V33a2.15,2.15,0,0,0,2.15,2.15h7.5a.48.48,0,1,0,0-1h-7.5A1.18,1.18,0,0,1,13.66,33V18a1.18,1.18,0,0,1,1.18-1.18h7.5a.49.49,0,1,0,0-1Z"/><path class="b" d="M31.92,25.87a.5.5,0,0,0,.14-.35.48.48,0,0,0-.14-.34h0l-5.07-5a.48.48,0,0,0-.34-.14h0a.45.45,0,0,0-.34.15.44.44,0,0,0-.14.34.48.48,0,0,0,.14.34L30.4,25H19.84a.49.49,0,0,0,0,1H30.4l-4.23,4.17a.48.48,0,0,0,0,.68.49.49,0,0,0,.68,0Z"/></svg>