<svg xmlns="http://www.w3.org/2000/svg" xmlns:xlink="http://www.w3.org/1999/xlink" width="149.9" height="10.17" viewBox="0 0 149.9 10.17"><defs><style>.a,.ef{fill:none;}.b{isolation:isolate;}.c{fill:url(#a);}.d{opacity:0.4;}.e{clip-path:url(#b);}.f{opacity:0.95;mix-blend-mode:multiply;}.g{fill:#fff;opacity:0;}.h{fill:#fefefe;opacity:0.01;}.i{fill:#fdfdfd;opacity:0.02;}.j{fill:#fcfcfc;opacity:0.02;}.k{fill:#fbfbfb;opacity:0.03;}.l{fill:#fafafa;opacity:0.04;}.m{fill:#f9f9f9;opacity:0.05;}.n{fill:#f8f8f8;opacity:0.05;}.o{fill:#f7f7f7;opacity:0.06;}.p{fill:#f6f6f6;opacity:0.07;}.q{fill:#f5f5f5;opacity:0.08;}.r{fill:#f4f4f4;opacity:0.09;}.s{fill:#f3f3f3;opacity:0.09;}.t{fill:#f2f2f2;opacity:0.1;}.u{fill:#f1f1f1;opacity:0.11;}.v{fill:#f0f0f0;opacity:0.12;}.w{fill:#efefef;opacity:0.13;}.x{fill:#eee;opacity:0.13;}.y{fill:#ededed;opacity:0.14;}.z{fill:#ececec;opacity:0.15;}.aa{fill:#ebebeb;opacity:0.16;}.ab{fill:#eaeaea;opacity:0.16;}.ac{fill:#e9e9e9;opacity:0.17;}.ad{fill:#e8e8e8;opacity:0.18;}.ae{fill:#e7e7e7;opacity:0.19;}.af{fill:#e6e6e6;opacity:0.2;}.ag{fill:#e5e5e5;opacity:0.2;}.ah{fill:#e4e4e4;opacity:0.21;}.ai{fill:#e3e3e3;opacity:0.22;}.aj{fill:#e2e2e2;opacity:0.23;}.ak{fill:#e1e1e1;opacity:0.23;}.al{fill:#e0e0e0;opacity:0.24;}.am{fill:#dfdfdf;opacity:0.25;}.an{fill:#dedede;opacity:0.26;}.ao{fill:#ddd;opacity:0.27;}.ap{fill:#dcdcdc;opacity:0.27;}.aq{fill:#dbdbdb;opacity:0.28;}.ar{fill:#dadada;opacity:0.29;}.as{fill:#d9d9d9;opacity:0.3;}.at{fill:#d8d8d8;opacity:0.3;}.au{fill:#d7d7d7;opacity:0.31;}.av{fill:#d6d6d6;opacity:0.32;}.aw{fill:#d5d5d5;opacity:0.33;}.ax{fill:#d4d4d4;opacity:0.34;}.ay{fill:#d3d3d3;opacity:0.34;}.az{fill:#d2d2d2;opacity:0.35;}.ba{fill:#d1d1d1;opacity:0.36;}.bb{fill:#d0d0d0;opacity:0.37;}.bc{fill:#cfcfcf;opacity:0.38;}.bd{fill:#cecece;opacity:0.38;}.be{fill:#cdcdcd;opacity:0.39;}.bf{fill:#ccc;opacity:0.4;}.bg{fill:#cbcbcb;opacity:0.41;}.bh{fill:#cacaca;opacity:0.41;}.bi{fill:#c9c9c9;opacity:0.42;}.bj{fill:#c8c8c8;opacity:0.43;}.bk{fill:#c7c7c7;opacity:0.44;}.bl{fill:#c6c6c6;opacity:0.45;}.bm{fill:#c5c5c5;opacity:0.45;}.bn{fill:#c4c4c4;opacity:0.46;}.bo{fill:#c3c3c3;opacity:0.47;}.bp{fill:#c2c2c2;opacity:0.48;}.bq{fill:#c1c1c1;opacity:0.48;}.br{fill:silver;opacity:0.49;}.bs{fill:#bfbfbf;opacity:0.5;}.bt{fill:#bebebe;opacity:0.51;}.bu{fill:#bdbdbd;opacity:0.52;}.bv{fill:#bcbcbc;opacity:0.52;}.bw{fill:#bbb;opacity:0.53;}.bx{fill:#bababa;opacity:0.54;}.by{fill:#b9b9b9;opacity:0.55;}.bz{fill:#b8b8b8;opacity:0.55;}.ca{fill:#b7b7b7;opacity:0.56;}.cb{fill:#b6b6b6;opacity:0.57;}.cc{fill:#b5b5b5;opacity:0.58;}.cd{fill:#b4b4b4;opacity:0.59;}.ce{fill:#b3b3b3;opacity:0.59;}.cf{fill:#b2b2b2;opacity:0.6;}.cg{fill:#b1b1b1;opacity:0.61;}.ch{fill:#b0b0b0;opacity:0.62;}.ci{fill:#afafaf;opacity:0.63;}.cj{fill:#aeaeae;opacity:0.63;}.ck{fill:#adadad;opacity:0.64;}.cl{fill:#acacac;opacity:0.65;}.cm{fill:#ababab;opacity:0.66;}.cn{fill:#aaa;opacity:0.66;}.co{fill:#a9a9a9;opacity:0.67;}.cp{fill:#a8a8a8;opacity:0.68;}.cq{fill:#a7a7a7;opacity:0.69;}.cr{fill:#a6a6a6;opacity:0.7;}.cs{fill:#a5a5a5;opacity:0.7;}.ct{fill:#a4a4a4;opacity:0.71;}.cu{fill:#a3a3a3;opacity:0.72;}.cv{fill:#a2a2a2;opacity:0.73;}.cw{fill:#a1a1a1;opacity:0.73;}.cx{fill:#a0a0a0;opacity:0.74;}.cy{fill:#9f9f9f;opacity:0.75;}.cz{fill:#9e9e9e;opacity:0.76;}.da{fill:#9d9d9d;opacity:0.77;}.db{fill:#9c9c9c;opacity:0.77;}.dc{fill:#9b9b9b;opacity:0.78;}.dd{fill:#9a9a9a;opacity:0.79;}.de{fill:#999;opacity:0.8;}.df{fill:#989898;opacity:0.8;}.dg{fill:#979797;opacity:0.81;}.dh{fill:#969696;opacity:0.82;}.di{fill:#959595;opacity:0.83;}.dj{fill:#949494;opacity:0.84;}.dk{fill:#939393;opacity:0.84;}.dl{fill:#929292;opacity:0.85;}.dm{fill:#919191;opacity:0.86;}.dn{fill:#909090;opacity:0.87;}.do{fill:#8f8f8f;opacity:0.88;}.dp{fill:#8e8e8e;opacity:0.88;}.dq{fill:#8d8d8d;opacity:0.89;}.dr{fill:#8c8c8c;opacity:0.9;}.ds{fill:#8b8b8b;opacity:0.91;}.dt{fill:#8a8a8a;opacity:0.91;}.du{fill:#898989;opacity:0.92;}.dv{fill:#888;opacity:0.93;}.dw{fill:#878787;opacity:0.94;}.dx{fill:#868686;opacity:0.95;}.dy{fill:#858585;opacity:0.95;}.dz{fill:#848484;opacity:0.96;}.ea{fill:#838383;opacity:0.97;}.eb{fill:#828282;opacity:0.98;}.ec{fill:#818181;opacity:0.98;}.ed{fill:gray;opacity:0.99;}.ee{fill:#7f7f7f;}.ef{stroke:#fff;stroke-miterlimit:10;stroke-width:1.5px;}</style><linearGradient id="a" x1="-465.21" y1="2373.64" x2="-465.21" y2="2523.52" gradientTransform="matrix(1, 0, 0, -1, 540.16, 2451.66)" gradientUnits="userSpaceOnUse"><stop offset="0" stop-color="#e8e8e8" stop-opacity="0.05"/><stop offset="1" stop-color="#231f20" stop-opacity="0.1"/></linearGradient><clipPath id="b"><polygon class="a" points="149.88 10.17 0 10.11 0.02 3.92 149.9 3.99 149.88 10.17"/></clipPath></defs><title>KH_Sprite</title><g class="b"><rect class="c" x="71.87" y="-71.86" width="6.16" height="149.88" transform="translate(78.03 -71.87) rotate(90)"/><g class="d"><g class="e"><g class="f"><path class="g" d="M145.3,2.87C137.19,1.36,13.64,1.34,5.51,2.82c-2.25.41-6.76.25-6.42,1.34C-.33,6,9,7.24,12.57,7.13c5.12-.16,18.51-.2,20.55-.2,2.19,0,65.66.05,70.78.23,3.53.13,48-1.08,48.59-2.93C152.84,3.14,147.54,3.28,145.3,2.87Z"/><path class="h" d="M145,2.87C136.87,1.37,13.68,1.35,5.58,2.82c-2.25.41-6.76.25-6.41,1.33C-.25,6,9.1,7.22,12.62,7.11,17.73,7,31.08,6.9,33.12,6.9c2.19,0,65.62.06,70.73.24,3.52.12,47.69-1.07,48.29-2.92C152.49,3.14,147.21,3.28,145,2.87Z"/><path class="i" d="M144.63,2.87c-8.07-1.49-130.9-1.51-139-.05-2.23.41-6.74.25-6.39,1.33.58,1.83,9.9,3,13.42,2.93,5.1-.16,18.42-.2,20.45-.2,2.18,0,65.58,0,70.68.23,3.52.12,47.39-1.06,48-2.89C152.14,3.14,146.87,3.28,144.63,2.87Z"/><path class="j" d="M144.3,2.87C136.24,1.39,13.78,1.37,5.71,2.82,3.48,3.22-1,3.07-.67,4.14c.58,1.83,9.88,3,13.39,2.91,5.08-.15,18.37-.2,20.4-.19,2.18,0,65.55,0,70.63.22,3.51.13,47.09-1,47.68-2.87C151.78,3.14,146.53,3.28,144.3,2.87Z"/><path class="k" d="M144,2.87c-8-1.47-130.14-1.49-138.18-.05-2.23.4-6.72.25-6.38,1.32C0,6,9.27,7.14,12.77,7c5.07-.16,18.33-.2,20.35-.2,2.17,0,65.51,0,70.58.23,3.5.12,46.79-1,47.38-2.86C151.43,3.14,146.19,3.27,144,2.87Z"/><path class="l" d="M143.63,2.87c-8-1.46-129.76-1.48-137.79-.05-2.22.4-6.7.26-6.36,1.31C.06,5.94,9.32,7.11,12.82,7c5.06-.15,18.28-.2,20.3-.19,2.17,0,65.47.05,70.53.22,3.49.12,46.49-1,47.08-2.83C151.08,3.15,145.85,3.27,143.63,2.87Z"/><path class="m" d="M143.3,2.87C135.3,1.41,13.92,1.4,5.91,2.82c-2.22.39-6.69.26-6.35,1.31.58,1.79,9.82,3,13.3,2.85,5.05-.16,18.25-.2,20.26-.2,2.16,0,65.44,0,70.49.23,3.48.12,46.17-1,46.76-2.82C150.72,3.15,145.51,3.27,143.3,2.87Z"/><path class="n" d="M143,2.87C135,1.42,14,1.4,6,2.82c-2.21.39-6.67.26-6.33,1.3C.22,5.9,9.44,7.06,12.91,7c5-.16,18.2-.2,20.21-.19,2.16,0,65.4,0,70.44.22C107,7.1,149.43,6,150,4.19,150.37,3.15,145.17,3.26,143,2.87Z"/><path class="o" d="M142.63,2.87C134.67,1.43,14,1.41,6,2.82c-2.21.39-6.66.26-6.32,1.3C.29,5.89,9.5,7,13,6.92c5-.15,18.16-.19,20.16-.19,2.15,0,65.36,0,70.39.22,3.46.12,45.57-1,46.16-2.77C150,3.15,144.83,3.26,142.63,2.87Z"/><path class="p" d="M142.29,2.86C134.36,1.44,14.05,1.42,6.1,2.82c-2.2.39-6.64.26-6.3,1.29C.37,5.87,9.55,7,13,6.9c5-.16,18.11-.2,20.11-.19s65.33,0,70.34.22c3.46.12,45.27-1,45.86-2.75C149.66,3.15,144.49,3.26,142.29,2.86Z"/><path class="q" d="M142,2.86C134,1.45,14.1,1.43,6.17,2.82,4,3.2-.46,3.08-.12,4.11.45,5.85,9.61,7,13.06,6.87c5-.15,18.07-.19,20.06-.19s65.29.05,70.29.22c3.45.12,45-1,45.55-2.73C149.31,3.15,144.15,3.26,142,2.86Z"/><path class="r" d="M141.63,2.86c-7.9-1.4-127.48-1.42-135.39,0C4.05,3.2-.38,3.08,0,4.1.53,5.84,9.67,7,13.11,6.85c5-.16,18-.2,20-.19s65.25,0,70.24.21c3.44.12,44.67-1,45.25-2.7C149,3.15,143.81,3.25,141.63,2.86Z"/><path class="s" d="M141.29,2.86c-7.88-1.39-127.1-1.41-135,0C4.12,3.2-.3,3.09,0,4.1.6,5.82,9.73,6.92,13.16,6.82c5-.15,18-.19,20-.19,2.13,0,65.22,0,70.19.22,3.43.11,44.37-1,44.95-2.69C148.6,3.16,143.48,3.25,141.29,2.86Z"/><path class="t" d="M141,2.86c-7.86-1.39-126.72-1.4-134.59,0C4.19,3.2-.22,3.09.11,4.09c.57,1.72,9.67,2.81,13.1,2.7,5-.15,17.93-.18,19.91-.18s65.18,0,70.14.21c3.43.12,44.06-1,44.64-2.66C148.24,3.16,143.14,3.25,141,2.86Z"/><path class="u" d="M140.63,2.86c-7.85-1.38-126.34-1.39-134.2,0C4.26,3.19-.14,3.09.19,4.09c.57,1.7,9.65,2.78,13.07,2.68,5-.15,17.89-.19,19.86-.19,2.12,0,65.14,0,70.09.22,3.42.11,43.76-1,44.34-2.65C147.89,3.16,142.8,3.24,140.63,2.86Z"/><path class="v" d="M140.29,2.86c-7.82-1.37-126-1.39-133.79,0C4.33,3.19-.06,3.09.27,4.08c.57,1.69,9.63,2.76,13,2.66,4.93-.15,17.84-.18,19.81-.18s65.11.05,70.05.21c3.4.11,43.45-.93,44-2.62C147.54,3.16,142.46,3.24,140.29,2.86Z"/><path class="w" d="M140,2.86c-7.81-1.36-125.58-1.38-133.4,0C4.4,3.19,0,3.09.35,4.08c.56,1.68,9.61,2.74,13,2.64,4.93-.15,17.81-.19,19.77-.19s65.07,0,70,.21c3.39.12,43.15-.92,43.72-2.6C147.18,3.16,142.12,3.24,140,2.86Z"/><path class="x" d="M139.62,2.86c-7.78-1.35-125.19-1.37-133,0C4.47,3.18.1,3.09.43,4.07,1,5.74,10,6.79,13.4,6.69c4.92-.15,17.76-.18,19.72-.18s65,0,69.95.21c3.39.11,42.85-.91,43.42-2.58C146.83,3.16,141.78,3.24,139.62,2.86Z"/><path class="y" d="M139.29,2.86C131.53,1.52,14.47,1.5,6.7,2.82,4.54,3.18.18,3.1.51,4.07c.56,1.65,9.56,2.69,12.94,2.59,4.9-.14,17.72-.18,19.67-.18,2.1,0,65,0,69.9.21,3.38.11,42.55-.9,43.12-2.56C146.48,3.16,141.44,3.23,139.29,2.86Z"/><path class="z" d="M139,2.86c-7.75-1.33-124.44-1.35-132.2,0C4.61,3.18.26,3.1.59,4.06c.56,1.65,9.54,2.68,12.91,2.58,4.89-.15,17.67-.18,19.62-.18s65,0,69.85.2c3.37.12,42.24-.89,42.82-2.53C146.12,3.16,141.1,3.23,139,2.86Z"/><path class="aa" d="M138.62,2.86C130.9,1.53,14.56,1.52,6.83,2.82,4.69,3.18.34,3.1.67,4.06c.55,1.63,9.52,2.65,12.88,2.55,4.88-.14,17.63-.18,19.57-.18,2.09,0,64.93.05,69.8.21,3.37.11,41.94-.88,42.51-2.52C145.77,3.17,140.76,3.23,138.62,2.86Z"/><path class="ab" d="M138.29,2.86c-7.71-1.32-123.68-1.33-131.4,0C4.76,3.17.42,3.1.75,4.05,1.3,5.68,10.24,6.68,13.6,6.58c4.87-.14,17.58-.17,19.52-.17s64.89,0,69.75.2c3.36.11,41.64-.87,42.21-2.49C145.41,3.17,140.42,3.22,138.29,2.86Z"/><path class="ac" d="M138,2.86c-7.69-1.31-123.3-1.32-131,0C4.83,3.17.5,3.1.82,4.05c.56,1.61,9.48,2.61,12.83,2.51,4.85-.14,17.54-.18,19.47-.17,2.08,0,64.85,0,69.7.2,3.35.1,41.34-.87,41.91-2.48C145.06,3.17,140.08,3.22,138,2.86Z"/><path class="ad" d="M137.62,2.86C130,1.56,14.7,1.54,7,2.82,4.9,3.17.58,3.1.9,4c.56,1.6,9.46,2.59,12.8,2.49,4.84-.14,17.49-.17,19.42-.17s64.82,0,69.66.2c3.33.11,41-.85,41.59-2.45C144.71,3.17,139.75,3.22,137.62,2.86Z"/><path class="ae" d="M137.29,2.86c-7.65-1.29-122.54-1.31-130.2,0C5,3.17.66,3.1,1,4c.55,1.59,9.44,2.56,12.77,2.47,4.83-.14,17.45-.18,19.37-.17,2.07,0,64.78,0,69.61.19,3.33.11,40.73-.84,41.29-2.43C144.35,3.17,139.41,3.22,137.29,2.86Z"/><path class="af" d="M137,2.86c-7.63-1.28-122.15-1.3-129.79,0C5,3.16.74,3.11,1.06,4c.55,1.58,9.41,2.55,12.74,2.45,4.81-.14,17.4-.17,19.32-.17s64.74,0,69.56.2c3.32.1,40.43-.84,41-2.41C144,3.17,139.07,3.21,137,2.86Z"/><path class="ag" d="M136.62,2.86C129,1.59,14.84,1.57,7.22,2.82,5.11,3.16.82,3.11,1.14,4c.55,1.57,9.39,2.52,12.7,2.42,4.81-.13,17.37-.17,19.28-.16,2.06,0,64.71,0,69.51.19,3.31.11,40.12-.82,40.68-2.39C143.64,3.17,138.73,3.21,136.62,2.86Z"/><path class="ah" d="M136.29,2.86c-7.59-1.27-121.4-1.28-129,0C5.18,3.16.9,3.11,1.22,4c.55,1.56,9.37,2.5,12.67,2.41,4.8-.14,17.32-.17,19.23-.17s64.67,0,69.46.19c3.31.11,39.82-.81,40.38-2.37C143.29,3.17,138.39,3.21,136.29,2.86Z"/><path class="ai" d="M136,2.86c-7.57-1.26-121-1.27-128.6,0-2.1.34-6.37.29-6,1.2.54,1.54,9.34,2.47,12.64,2.38,4.78-.13,17.28-.17,19.18-.16,2.05,0,64.63,0,69.41.19,3.3.1,39.52-.8,40.08-2.35C142.94,3.18,138.05,3.2,136,2.86Z"/><path class="aj" d="M135.62,2.86C128.07,1.61,15,1.6,7.42,2.82c-2.09.33-6.36.29-6,1.19C1.92,5.55,10.7,6.47,14,6.38c4.77-.14,17.23-.17,19.13-.17s64.6,0,69.36.19c3.29.11,39.22-.79,39.78-2.33C142.58,3.18,137.71,3.2,135.62,2.86Z"/><path class="ak" d="M135.29,2.86C127.75,1.62,15,1.61,7.48,2.82c-2.08.33-6.34.29-6,1.19C2,5.53,10.76,6.44,14,6.35c4.76-.13,17.19-.17,19.08-.16,2,0,64.56,0,69.31.19,3.28.1,38.92-.79,39.47-2.31C142.23,3.18,137.37,3.2,135.29,2.86Z"/><path class="al" d="M135,2.86c-7.51-1.23-119.88-1.25-127.4,0-2.08.34-6.33.31-6,1.19.55,1.51,9.29,2.41,12.56,2.32,4.74-.13,17.14-.16,19-.16s64.52,0,69.27.19c3.27.1,38.61-.77,39.16-2.29C141.88,3.18,137,3.2,135,2.86Z"/><path class="am" d="M134.62,2.86c-7.5-1.22-119.5-1.24-127,0-2.08.33-6.32.31-6,1.19.54,1.5,9.26,2.39,12.53,2.3,4.73-.13,17.1-.16,19-.16s64.49,0,69.22.18c3.26.1,38.3-.76,38.86-2.26C141.52,3.18,136.69,3.19,134.62,2.86Z"/><path class="an" d="M134.28,2.86c-7.47-1.21-119.11-1.23-126.6,0-2.07.33-6.3.31-6,1.18.54,1.49,9.24,2.37,12.5,2.28,4.72-.13,17-.16,18.93-.16s64.45,0,69.17.19c3.25.1,38-.76,38.55-2.25C141.17,3.18,136.35,3.19,134.28,2.86Z"/><path class="ao" d="M134,2.86c-7.46-1.2-118.74-1.22-126.2,0-2.07.33-6.3.31-6,1.18C2.31,5.47,11,6.33,14.24,6.25c4.7-.13,17-.16,18.88-.16,2,0,64.41,0,69.12.18,3.25.1,37.7-.74,38.25-2.22C140.81,3.18,136,3.19,134,2.86Z"/><path class="ap" d="M133.62,2.85c-7.44-1.19-118.36-1.2-125.81,0-2.06.33-6.28.31-6,1.17.54,1.47,9.2,2.33,12.44,2.24,4.69-.13,17-.16,18.83-.16s64.38,0,69.07.18c3.24.1,37.4-.73,37.95-2.2C140.46,3.19,135.68,3.18,133.62,2.85Z"/><path class="aq" d="M133.28,2.85c-7.42-1.18-118-1.19-125.4,0C5.82,3.13,1.61,3.12,1.93,4c.53,1.45,9.17,2.3,12.4,2.21C19,6.07,31.26,6,33.12,6c2,0,64.34,0,69,.18,3.23.1,37.1-.73,37.64-2.18C140.11,3.19,135.34,3.18,133.28,2.85Z"/><path class="ar" d="M133,2.85c-7.4-1.17-117.6-1.18-125,0C5.89,3.13,1.69,3.12,2,4c.53,1.45,9.15,2.28,12.37,2.2C19.05,6,31.26,6,33.12,6s64.3,0,69,.18c3.22.1,36.8-.71,37.34-2.16C139.75,3.19,135,3.18,133,2.85Z"/><path class="as" d="M132.62,2.85C125.24,1.69,15.4,1.67,8,2.81,6,3.13,1.77,3.13,2.09,4c.53,1.43,9.13,2.26,12.34,2.17C19.09,6,31.27,6,33.12,6S97.39,6,102,6.17c3.22.09,36.5-.71,37-2.14C139.4,3.19,134.66,3.18,132.62,2.85Z"/><path class="at" d="M132.28,2.85c-7.36-1.15-116.83-1.17-124.2,0C6,3.13,1.85,3.13,2.17,4,2.7,5.38,11.28,6.2,14.48,6.12,19.13,6,31.27,6,33.12,6S97.35,6,102,6.14c3.2.1,36.18-.7,36.73-2.12C139,3.19,134.32,3.17,132.28,2.85Z"/><path class="au" d="M132,2.85c-7.34-1.14-116.46-1.16-123.81,0-2,.31-6.21.32-5.9,1.15.53,1.41,9.09,2.21,12.29,2.13,4.63-.12,16.75-.15,18.59-.15,2,0,64.19,0,68.83.17,3.19.1,35.88-.68,36.42-2.09C138.69,3.19,134,3.17,132,2.85Z"/><path class="av" d="M131.61,2.85c-7.32-1.13-116.07-1.15-123.4,0C6.18,3.12,2,3.13,2.32,4c.53,1.4,9.07,2.2,12.26,2.11,4.62-.12,16.7-.15,18.54-.14s64.16,0,68.78.17c3.19.09,35.58-.68,36.12-2.08C138.34,3.19,133.64,3.17,131.61,2.85Z"/><path class="aw" d="M131.28,2.85c-7.3-1.13-115.7-1.14-123,0-2,.31-6.18.32-5.87,1.14.53,1.39,9,2.17,12.23,2.09,4.61-.12,16.66-.15,18.49-.15,2,0,64.12,0,68.73.17,3.18.09,35.28-.66,35.82-2C138,3.19,133.3,3.16,131.28,2.85Z"/><path class="ax" d="M131,2.85c-7.29-1.12-115.32-1.13-122.61,0-2,.3-6.17.32-5.86,1.13C3,5.32,11.51,6.09,14.68,6c4.59-.12,16.61-.15,18.44-.14S97.2,5.9,101.8,6c3.17.1,35-.65,35.51-2C137.63,3.2,133,3.16,131,2.85Z"/><path class="ay" d="M130.61,2.85C123.35,1.74,15.68,1.73,8.4,2.81c-2,.3-6.15.33-5.84,1.13.52,1.36,9,2.13,12.17,2,4.58-.11,16.57-.14,18.39-.14,2,0,64.05,0,68.63.17,3.16.09,34.68-.65,35.21-2C137.28,3.2,132.62,3.16,130.61,2.85Z"/><path class="az" d="M130.28,2.85C123,1.75,15.72,1.74,8.47,2.81c-2,.3-6.14.33-5.83,1.12.52,1.36,9,2.11,12.14,2,4.57-.12,16.52-.15,18.34-.14s64,0,68.58.16c3.16.09,34.37-.63,34.91-2C136.92,3.2,132.29,3.16,130.28,2.85Z"/><path class="ba" d="M130,2.85c-7.23-1.09-114.18-1.11-121.41,0-2,.3-6.13.33-5.82,1.12.52,1.34,9,2.08,12.1,2,4.57-.11,16.49-.14,18.3-.14,2,0,64,0,68.53.17,3.15.09,34.07-.63,34.61-2C136.57,3.2,132,3.15,130,2.85Z"/><path class="bb" d="M129.61,2.85c-7.2-1.08-113.79-1.1-121,0-2,.29-6.11.33-5.8,1.11.52,1.34,8.94,2.07,12.07,2,4.55-.12,16.44-.15,18.25-.14s63.94,0,68.49.16C104.74,6,135.37,5.31,135.9,4,136.21,3.2,131.61,3.15,129.61,2.85Z"/><path class="bc" d="M129.28,2.85c-7.19-1.07-113.42-1.09-120.61,0-2,.29-6.1.33-5.79,1.11.51,1.32,8.91,2,12,2,4.54-.11,16.4-.14,18.2-.14,2,0,63.9,0,68.44.16,3.13.09,33.46-.6,34-1.92C135.86,3.2,131.27,3.15,129.28,2.85Z"/><path class="bd" d="M128.94,2.85c-7.16-1.07-113-1.08-120.21,0-2,.29-6.08.33-5.78,1.1.52,1.31,8.9,2,12,1.94,4.53-.11,16.35-.13,18.15-.13s63.86,0,68.39.16c3.12.09,33.16-.6,33.69-1.91C135.51,3.2,130.93,3.14,128.94,2.85Z"/><path class="be" d="M128.61,2.85C121.46,1.79,16,1.78,8.8,2.81c-2,.29-6.07.33-5.77,1.1.52,1.3,8.88,2,12,1.92,4.51-.11,16.3-.14,18.1-.14s63.83,0,68.34.16c3.11.09,32.86-.59,33.38-1.89C135.15,3.2,130.59,3.14,128.61,2.85Z"/><path class="bf" d="M128.28,2.85C121.15,1.8,16,1.79,8.87,2.81c-2,.28-6.06.34-5.76,1.09.52,1.29,8.85,2,12,1.9,4.5-.11,16.26-.13,18-.13s63.79,0,68.29.15c3.1.09,32.56-.57,33.08-1.86C134.8,3.21,130.25,3.14,128.28,2.85Z"/><path class="bg" d="M127.94,2.85c-7.11-1-111.89-1-119,0-2,.28-6,.34-5.74,1.09C3.7,5.17,12,5.85,15.12,5.78c4.49-.11,16.21-.14,18-.14s63.75,0,68.24.16c3.1.08,32.25-.57,32.78-1.85C134.44,3.21,129.91,3.14,127.94,2.85Z"/><path class="bh" d="M127.61,2.85c-7.09-1-111.52-1-118.61,0-2,.28-6,.34-5.73,1.08.51,1.27,8.81,1.94,11.9,1.86,4.47-.11,16.17-.13,17.95-.13s63.72,0,68.19.15c3.09.09,31.95-.55,32.47-1.82C134.09,3.21,129.57,3.13,127.61,2.85Z"/><path class="bi" d="M127.27,2.85c-7.07-1-111.13-1-118.21,0-2,.28-6,.34-5.71,1.08.51,1.25,8.79,1.91,11.87,1.83,4.46-.1,16.12-.13,17.9-.13s63.68,0,68.14.16c3.08.08,31.65-.55,32.17-1.81C133.74,3.21,129.23,3.13,127.27,2.85Z"/><path class="bj" d="M126.94,2.85c-7-1-110.75-1-117.81,0-2,.27-6,.34-5.7,1.07.51,1.25,8.76,1.89,11.84,1.82,4.45-.11,16.08-.13,17.85-.13s63.64,0,68.09.15c3.07.08,31.35-.54,31.87-1.78C133.38,3.21,128.89,3.13,126.94,2.85Z"/><path class="bk" d="M126.61,2.85c-7-1-110.38-1-117.42,0-1.95.27-6,.34-5.68,1.07.5,1.23,8.74,1.86,11.8,1.79,4.44-.1,16-.13,17.81-.13s63.61,0,68.05.15c3.06.09,31-.52,31.56-1.76C133,3.21,128.56,3.12,126.61,2.85Z"/><path class="bl" d="M126.27,2.85c-7-1-110-1-117,0-1.94.27-6,.34-5.67,1.06.5,1.22,8.72,1.85,11.77,1.78,4.43-.11,16-.13,17.76-.13s63.57,0,68,.15c3,.08,30.74-.52,31.25-1.74C132.68,3.21,128.22,3.12,126.27,2.85Z"/><path class="bm" d="M125.94,2.85c-7-1-109.61-1-116.61,0-1.94.26-6,.35-5.67,1.06.51,1.21,8.71,1.82,11.75,1.75,4.42-.1,16-.13,17.71-.13s63.53,0,67.95.15c3,.08,30.43-.51,31-1.72C132.32,3.22,127.88,3.12,125.94,2.85Z"/><path class="bn" d="M125.61,2.85c-7-1-109.24-1-116.22,0-1.93.26-5.94.35-5.65,1,.51,1.2,8.68,1.8,11.72,1.73,4.4-.1,15.91-.12,17.66-.12s63.5,0,67.9.14c3,.09,30.13-.49,30.65-1.69C132,3.22,127.54,3.12,125.61,2.85Z"/><path class="bo" d="M125.27,2.85c-7-1-108.85-1-115.81,0-1.93.26-5.93.35-5.64,1C4.32,5,12.48,5.64,15.51,5.57c4.39-.1,15.86-.13,17.61-.12s63.46,0,67.85.14c3,.08,29.83-.49,30.34-1.68C131.61,3.22,127.2,3.11,125.27,2.85Z"/><path class="bp" d="M124.94,2.84c-6.94-.95-108.47-1-115.42,0-1.92.26-5.91.35-5.62,1C4.4,5,12.54,5.61,15.56,5.54c4.38-.1,15.82-.12,17.56-.12s63.42,0,67.8.14c3,.08,29.53-.48,30-1.65C131.26,3.22,126.86,3.11,124.94,2.84Z"/><path class="bq" d="M124.6,2.84c-6.91-.94-108.09-1-115,0-1.92.25-5.9.35-5.61,1C4.48,5,12.6,5.58,15.61,5.52c4.36-.1,15.77-.13,17.52-.12s63.38,0,67.74.14c3,.08,29.23-.47,29.74-1.64C130.91,3.22,126.52,3.11,124.6,2.84Z"/><path class="br" d="M124.27,2.84c-6.9-.93-107.71-.95-114.62,0-1.91.25-5.88.35-5.59,1,.5,1.16,8.59,1.72,11.6,1.65,4.35-.1,15.73-.12,17.47-.12s63.34,0,67.69.14c3,.08,28.93-.46,29.43-1.61C130.55,3.22,126.18,3.1,124.27,2.84Z"/><path class="bs" d="M123.94,2.84c-6.88-.93-107.34-.94-114.22,0-1.91.25-5.87.36-5.58,1C4.63,5,12.71,5.53,15.71,5.46c4.34-.09,15.68-.12,17.42-.11s63.3,0,67.65.13c3,.08,28.62-.45,29.12-1.59C130.2,3.22,125.84,3.1,123.94,2.84Z"/><path class="bt" d="M123.6,2.84c-6.85-.92-106.95-.93-113.81,0-1.91.25-5.86.36-5.57,1C4.71,5,12.77,5.5,15.75,5.44c4.33-.1,15.65-.12,17.38-.12s63.27,0,67.6.14c3,.07,28.31-.44,28.82-1.57C129.84,3.22,125.5,3.1,123.6,2.84Z"/><path class="bu" d="M123.27,2.84c-6.84-.91-106.57-.92-113.42,0C8,3.05,4,3.17,4.3,3.82,4.79,5,12.83,5.48,15.8,5.41c4.32-.09,15.6-.12,17.33-.11s63.23,0,67.55.13c3,.08,28-.43,28.52-1.55C129.49,3.23,125.16,3.1,123.27,2.84Z"/><path class="bv" d="M122.94,2.84c-6.82-.9-106.2-.91-113,0-1.89.24-5.84.36-5.55,1,.5,1.11,8.51,1.63,11.48,1.57,4.31-.1,15.56-.12,17.28-.12s63.2,0,67.5.13c3,.08,27.71-.41,28.21-1.52C129.14,3.23,124.83,3.09,122.94,2.84Z"/><path class="bw" d="M122.6,2.84C115.8,2,16.79,1.94,10,2.81c-1.88.24-5.82.36-5.53,1,.49,1.11,8.49,1.61,11.45,1.55,4.29-.09,15.51-.11,17.23-.11s63.16,0,67.45.13c3,.07,27.41-.41,27.91-1.51C128.78,3.23,124.49,3.09,122.6,2.84Z"/><path class="bx" d="M122.27,2.84c-6.78-.88-105.43-.9-112.22,0-1.88.23-5.81.36-5.52,1C5,4.9,13,5.4,16,5.33c4.28-.09,15.47-.11,17.18-.11s63.12,0,67.4.13c3,.08,27.11-.4,27.61-1.48C128.43,3.23,124.15,3.09,122.27,2.84Z"/><path class="by" d="M121.93,2.84c-6.76-.87-105-.89-111.82,0-1.87.23-5.79.36-5.5,1C5.1,4.88,13.06,5.37,16,5.31c4.27-.09,15.42-.11,17.13-.11s63.09,0,67.35.13c3,.07,26.81-.39,27.3-1.47C128.08,3.23,123.81,3.08,121.93,2.84Z"/><path class="bz" d="M121.6,2.84C114.86,2,16.93,2,10.18,2.81c-1.87.23-5.78.37-5.49,1,.49,1.07,8.42,1.54,11.36,1.48,4.26-.09,15.38-.11,17.08-.11s63.05,0,67.3.13c2.94.07,26.5-.38,27-1.45C127.72,3.23,123.47,3.08,121.6,2.84Z"/><path class="ca" d="M121.27,2.84C114.54,2,17,2,10.25,2.81c-1.87.23-5.77.37-5.48,1,.48,1.06,8.4,1.53,11.33,1.46,4.24-.09,15.33-.1,17-.1s63,0,67.26.12c2.92.08,26.19-.37,26.69-1.42C127.37,3.23,123.13,3.08,121.27,2.84Z"/><path class="cb" d="M120.93,2.84C114.23,2,17,2,10.31,2.81c-1.86.22-5.75.37-5.46,1,.48,1,8.38,1.5,11.3,1.44,4.23-.09,15.29-.11,17-.11s63,0,67.21.13c2.92.07,25.89-.36,26.38-1.41C127,3.23,122.79,3.08,120.93,2.84Z"/><path class="cc" d="M120.6,2.84C113.92,2,17.07,2,10.38,2.81c-1.86.22-5.74.37-5.45,1,.48,1,8.35,1.48,11.27,1.42,4.22-.09,15.24-.1,16.93-.1s62.94,0,67.16.12c2.91.07,25.59-.35,26.08-1.38C126.66,3.24,122.45,3.07,120.6,2.84Z"/><path class="cd" d="M120.27,2.84C113.6,2,17.11,2,10.44,2.81,8.6,3,4.72,3.18,5,3.78c.48,1,8.33,1.46,11.23,1.4,4.21-.09,15.21-.11,16.89-.11s62.9,0,67.11.12c2.9.07,25.29-.34,25.78-1.36C126.31,3.24,122.11,3.07,120.27,2.84Z"/><path class="ce" d="M119.93,2.84C113.29,2,17.16,2,10.51,2.8c-1.84.23-5.71.38-5.43,1,.48,1,8.32,1.44,11.21,1.38,4.2-.09,15.16-.1,16.84-.1s62.87,0,67.06.12c2.89.07,25-.33,25.48-1.34C126,3.24,121.77,3.07,119.93,2.84Z"/><path class="cf" d="M119.6,2.84C113,2,17.21,2,10.57,2.8c-1.83.22-5.69.39-5.41,1,.48,1,8.3,1.41,11.18,1.35C20.53,5,31.46,5,33.13,5s62.83,0,67,.12c2.89.07,24.69-.32,25.17-1.32C125.6,3.24,121.43,3.06,119.6,2.84Z"/><path class="cg" d="M119.26,2.84c-6.6-.81-102-.82-108.62,0-1.83.22-5.68.39-5.4,1,.48,1,8.27,1.4,11.15,1.34C20.56,5,31.46,5,33.13,5s62.79,0,67,.12c2.88.06,24.38-.31,24.87-1.3C125.24,3.24,121.1,3.06,119.26,2.84Z"/><path class="ch" d="M118.93,2.84C112.34,2,17.3,2,10.71,2.8,8.88,3,5,3.19,5.32,3.76c.48,1,8.25,1.37,11.12,1.31C20.6,5,31.47,5,33.13,5S95.89,5,100,5.09c2.87.07,24.08-.3,24.57-1.28C124.89,3.24,120.76,3.06,118.93,2.84Z"/><path class="ci" d="M118.6,2.84C112,2.05,17.35,2,10.77,2.8,9,3,5.12,3.19,5.4,3.75c.47,1,8.23,1.35,11.09,1.3C20.64,5,31.47,5,33.13,5S95.85,5,100,5.06c2.86.07,23.77-.29,24.25-1.25C124.54,3.24,120.42,3.06,118.6,2.84Z"/><path class="cj" d="M118.26,2.84c-6.55-.78-100.87-.79-107.42,0C9,3,5.2,3.19,5.48,3.75,6,4.7,13.69,5.08,16.54,5c4.13-.08,14.94-.1,16.59-.09S95.81,4.94,100,5c2.85.06,23.47-.28,24-1.24C124.18,3.25,120.08,3.05,118.26,2.84Z"/><path class="ck" d="M117.93,2.84c-6.53-.77-100.49-.78-107,0-1.81.21-5.62.39-5.34.94.47,1,8.18,1.31,11,1.25,4.12-.08,14.89-.09,16.54-.09s62.65,0,66.77.11c2.84.07,23.17-.27,23.65-1.21C123.83,3.25,119.74,3.05,117.93,2.84Z"/><path class="cl" d="M117.6,2.84C111.09,2.08,17.48,2.07,11,2.8c-1.81.21-5.61.39-5.33.94C6.11,4.67,13.8,5,16.64,5c4.11-.08,14.85-.1,16.49-.09s62.61,0,66.72.1c2.83.07,22.87-.26,23.34-1.19C123.48,3.25,119.4,3.05,117.6,2.84Z"/><path class="cm" d="M117.26,2.84c-6.49-.75-99.73-.76-106.23,0-1.79.2-5.59.4-5.31.93.46.93,8.14,1.27,11,1.21,4.09-.08,14.8-.09,16.44-.09S95.7,4.87,99.8,5c2.83.06,22.56-.25,23-1.17C123.12,3.25,119.06,3,117.26,2.84Z"/><path class="cn" d="M116.93,2.84c-6.47-.75-99.35-.76-105.83,0-1.79.2-5.58.4-5.31.93.47.91,8.13,1.24,10.94,1.19,4.09-.08,14.77-.1,16.4-.09s62.54,0,66.62.1c2.82.06,22.26-.24,22.74-1.15C122.77,3.25,118.72,3,116.93,2.84Z"/><path class="co" d="M116.59,2.84c-6.45-.74-99-.75-105.42,0-1.79.2-5.57.4-5.3.92.47.9,8.1,1.22,10.91,1.17,4.08-.08,14.72-.09,16.35-.09s62.5,0,66.57.11c2.81.06,22-.24,22.44-1.13C122.41,3.25,118.38,3,116.59,2.84Z"/><path class="cp" d="M116.26,2.84c-6.43-.73-98.59-.74-105,0C9.45,3,5.68,3.2,6,3.72c.47.89,8.08,1.19,10.88,1.14,4.06-.07,14.68-.08,16.3-.08s62.46,0,66.52.1c2.81.06,21.66-.22,22.13-1.11C122.06,3.25,118,3,116.26,2.84Z"/><path class="cq" d="M115.93,2.83c-6.42-.71-98.21-.72-104.63,0C9.52,3,5.76,3.2,6,3.71c.46.88,8.06,1.18,10.85,1.13,4.05-.08,14.63-.09,16.25-.09s62.43,0,66.47.1c2.8.06,21.36-.21,21.83-1.08C121.71,3.25,117.7,3,115.93,2.83Z"/><path class="cr" d="M115.59,2.83c-6.39-.7-97.83-.71-104.23,0-1.77.19-5.52.4-5.25.91.46.87,8,1.15,10.82,1.1,4-.07,14.59-.08,16.2-.08s62.39,0,66.43.1c2.78.06,21-.21,21.52-1.07C121.35,3.26,117.37,3,115.59,2.83Z"/><path class="cs" d="M115.26,2.83c-6.38-.69-97.45-.7-103.83,0-1.77.19-5.51.41-5.24.9.46.86,8,1.13,10.79,1.09,4-.08,14.54-.09,16.15-.09s62.35,0,66.38.1c2.77.06,20.75-.19,21.21-1C121,3.26,117,3,115.26,2.83Z"/><path class="ct" d="M114.93,2.83c-6.36-.68-97.07-.69-103.44,0C9.73,3,6,3.21,6.27,3.7c.46.84,8,1.11,10.76,1.06,4-.07,14.5-.08,16.1-.08s62.32,0,66.33.09c2.77.06,20.44-.18,20.91-1C120.64,3.26,116.69,3,114.93,2.83Z"/><path class="cu" d="M114.59,2.83c-6.34-.67-96.69-.68-103,0-1.76.18-5.48.41-5.21.89.45.84,8,1.09,10.73,1,4-.07,14.45-.08,16.05-.08s62.28,0,66.28.1c2.76.06,20.14-.17,20.61-1C120.29,3.26,116.35,3,114.59,2.83Z"/><path class="cv" d="M114.26,2.83c-6.32-.67-96.31-.68-102.63,0-1.75.18-5.47.41-5.2.89.45.82,8,1.06,10.7,1,4-.07,14.41-.08,16-.08s62.24,0,66.23.09c2.75.06,19.84-.16,20.3-1C119.94,3.26,116,3,114.26,2.83Z"/><path class="cw" d="M113.92,2.83c-6.29-.66-95.93-.67-102.23,0C10,3,6.24,3.21,6.5,3.68c.46.81,7.93,1.05,10.68,1,4-.07,14.36-.08,16-.08s62.21,0,66.18.1c2.74,0,19.54-.16,20-1C119.58,3.26,115.67,3,113.92,2.83Z"/><path class="cx" d="M113.59,2.83c-6.28-.65-95.55-.66-101.83,0C10,3,6.32,3.21,6.58,3.68c.46.8,7.91,1,10.64,1,4-.06,14.33-.07,15.91-.07s62.17,0,66.13.09c2.74,0,19.24-.14,19.7-.94C119.23,3.26,115.33,3,113.59,2.83Z"/><path class="cy" d="M113.26,2.83c-6.26-.64-95.17-.65-101.44,0-1.73.17-5.42.41-5.16.87.46.79,7.89,1,10.61,1,4-.07,14.28-.08,15.86-.08s62.13,0,66.08.09c2.73.06,18.94-.13,19.4-.92C118.88,3.26,115,3,113.26,2.83Z"/><path class="cz" d="M112.92,2.83c-6.24-.63-94.79-.64-101,0-1.73.17-5.41.42-5.15.87.45.78,7.86,1,10.58.93,3.94-.06,14.24-.07,15.81-.07s62.1,0,66,.09c2.71,0,18.63-.13,19.08-.9C118.52,3.27,114.65,3,112.92,2.83Z"/><path class="da" d="M112.59,2.83C106.37,2.21,18.18,2.2,12,2.8c-1.72.17-5.39.42-5.13.86.45.77,7.84,1,10.55.92,3.93-.07,14.19-.08,15.76-.07s62.06,0,66,.08c2.71,0,18.32-.11,18.78-.88C118.17,3.27,114.31,3,112.59,2.83Z"/><path class="db" d="M112.26,2.83c-6.21-.61-94-.62-100.24,0-1.72.16-5.38.42-5.12.86.45.75,7.82.93,10.52.89,3.92-.06,14.15-.07,15.71-.07s62,0,65.94.08c2.7.06,18-.1,18.48-.85C117.81,3.27,114,3,112.26,2.83Z"/><path class="dc" d="M111.92,2.83c-6.18-.61-93.65-.62-99.83,0C10.37,3,6.71,3.22,7,3.65c.45.75,7.8.92,10.49.87,3.9-.06,14.1-.07,15.66-.06s62,0,65.89.08c2.69,0,17.72-.1,18.17-.84C117.46,3.27,113.64,3,111.92,2.83Z"/><path class="dd" d="M111.59,2.83c-6.17-.6-93.27-.61-99.44,0-1.71.16-5.36.42-5.09.85.44.73,7.77.89,10.46.85,3.89-.06,14.06-.07,15.61-.07s62,0,65.84.08c2.68,0,17.42-.08,17.87-.81C117.11,3.27,113.3,3,111.59,2.83Z"/><path class="de" d="M111.25,2.83c-6.14-.59-92.88-.6-99,0-1.7.16-5.35.42-5.08.84.44.72,7.75.87,10.43.83,3.88-.06,14-.07,15.56-.06s61.91,0,65.79.08c2.68,0,17.12-.08,17.57-.8C116.75,3.27,113,3,111.25,2.83Z"/><path class="df" d="M110.92,2.83c-6.12-.58-92.51-.59-98.64,0C10.59,3,7,3.22,7.21,3.64c.45.71,7.74.85,10.41.81,3.86-.06,14-.07,15.51-.07s61.88,0,65.74.08c2.67,0,16.82-.06,17.27-.77C116.4,3.27,112.62,3,110.92,2.83Z"/><path class="dg" d="M110.59,2.83c-6.11-.57-92.13-.58-98.24,0C10.66,3,7,3.23,7.29,3.63c.45.7,7.72.83,10.38.79,3.85-.06,13.92-.07,15.46-.06s61.84,0,65.69.07c2.66.05,16.51,0,17-.75C116,3.28,112.28,3,110.59,2.83Z"/><path class="dh" d="M110.25,2.83c-6.08-.56-91.75-.57-97.84,0-1.68.15-5.3.43-5,.83.44.69,7.69.8,10.34.76,3.85,0,13.89-.06,15.42-.06s61.8,0,65.65.08c2.65,0,16.2,0,16.65-.73C115.69,3.28,111.94,3,110.25,2.83Z"/><path class="di" d="M109.92,2.83c-6.07-.55-91.37-.56-97.44,0-1.68.15-5.29.43-5,.82.44.68,7.67.79,10.31.75,3.83-.06,13.84-.06,15.37-.06s61.77,0,65.6.07c2.64,0,15.9,0,16.35-.71C115.34,3.28,111.6,3,109.92,2.83Z"/><path class="dj" d="M109.59,2.83c-6-.55-91-.55-97,0-1.68.14-5.28.43-5,.82.44.66,7.65.76,10.28.72,3.82,0,13.8-.06,15.32-.06s61.73,0,65.55.07c2.63.05,15.6,0,16-.68C115,3.28,111.26,3,109.59,2.83Z"/><path class="dk" d="M109.25,2.83c-6-.54-90.61-.55-96.64,0-1.67.14-5.26.43-5,.81.44.66,7.63.74,10.25.71,3.81-.06,13.75-.06,15.27-.06s61.69,0,65.5.07c2.62,0,15.3,0,15.74-.67C114.63,3.28,110.92,3,109.25,2.83Z"/><path class="dl" d="M108.92,2.83c-6-.53-90.23-.54-96.24,0-1.67.14-5.25.43-5,.81.43.64,7.6.72,10.22.68,3.79,0,13.71-.06,15.22-.06s61.66,0,65.45.07c2.62,0,15,0,15.44-.64C114.28,3.28,110.58,3,108.92,2.83Z"/><path class="dm" d="M108.58,2.83c-6-.52-89.84-.53-95.84,0-1.66.13-5.23.44-5,.8.43.64,7.58.7,10.19.66,3.78,0,13.66,0,15.17,0s61.62,0,65.4.07c2.61,0,14.7,0,15.13-.63C113.92,3.28,110.24,3,108.58,2.83Z"/><path class="dn" d="M108.25,2.83c-6-.51-89.47-.52-95.44,0-1.65.13-5.22.44-5,.8.43.62,7.56.67,10.16.64,3.77,0,13.62-.06,15.12-.06s61.58,0,65.35.07c2.6,0,14.39,0,14.83-.6C113.57,3.28,109.91,3,108.25,2.83Z"/><path class="do" d="M107.92,2.83c-6-.5-89.09-.51-95,0-1.64.13-5.2.44-4.95.79.44.61,7.55.66,10.14.62,3.75,0,13.57,0,15.07,0s61.55,0,65.3.06c2.6,0,14.09,0,14.53-.58C113.21,3.29,109.57,3,107.92,2.83Z"/><path class="dp" d="M107.58,2.83c-5.93-.49-88.7-.5-94.64,0-1.64.13-5.19.44-4.94.79.43.6,7.52.63,10.11.6,3.74-.05,13.53-.06,15-.06s61.51,0,65.26.07c2.58,0,13.78,0,14.22-.56C112.86,3.29,109.23,3,107.58,2.83Z"/><path class="dq" d="M107.25,2.82c-5.91-.48-88.33-.48-94.24,0-1.64.12-5.18.44-4.93.78.43.59,7.5.61,10.08.58,3.73,0,13.48,0,15,0s61.47,0,65.21.06c2.57,0,13.48,0,13.91-.54C112.51,3.29,108.89,3,107.25,2.82Z"/><path class="dr" d="M106.92,2.82C101,2.35,19,2.35,13.07,2.8c-1.63.12-5.16.44-4.91.78.43.57,7.48.58,10,.55,3.72,0,13.45,0,14.93,0s61.44,0,65.16.06c2.56.05,13.18.06,13.61-.52C112.15,3.29,108.55,3,106.92,2.82Z"/><path class="ds" d="M106.58,2.82c-5.87-.46-87.57-.47-93.44,0-1.63.12-5.15.44-4.9.77.43.57,7.46.57,10,.54,3.71-.05,13.4-.05,14.88-.05s61.4,0,65.11.06c2.56,0,12.88.06,13.31-.5C111.8,3.29,108.21,3,106.58,2.82Z"/><path class="dt" d="M106.25,2.82c-5.86-.45-87.19-.46-93,0-1.62.12-5.13.45-4.88.77.42.55,7.43.54,10,.51C22,4,31.66,4,33.13,4s61.36,0,65.06,0c2.55,0,12.57.08,13-.48C111.44,3.29,107.87,3,106.25,2.82Z"/><path class="du" d="M105.91,2.82c-5.83-.44-86.8-.45-92.64,0-1.62.11-5.12.45-4.87.76.42.55,7.41.52,10,.49C22,4,31.66,4,33.13,4s61.33,0,65,.06c2.54,0,12.27.08,12.7-.46C111.09,3.29,107.53,3,105.91,2.82Z"/><path class="dv" d="M105.58,2.82c-5.82-.43-86.43-.44-92.25,0-1.61.11-5.1.45-4.85.76.42.53,7.39.5,9.92.47C22.07,4,31.67,4,33.13,4s61.29,0,65,0c2.54,0,12,.09,12.4-.44C110.74,3.29,107.19,2.94,105.58,2.82Z"/><path class="dw" d="M105.25,2.82c-5.8-.42-86-.43-91.85,0-1.61.12-5.09.46-4.84.76C9,4.07,15.92,4,18.45,4c3.66,0,13.22,0,14.68,0S94.39,4,98,4c2.53,0,11.67.11,12.09-.41C110.38,3.3,106.85,2.94,105.25,2.82Z"/><path class="dx" d="M104.91,2.82c-5.77-.41-85.66-.42-91.44,0-1.6.11-5.08.46-4.84.76C9.05,4.06,16,4,18.5,4c3.65,0,13.18,0,14.63,0S94.35,3.93,98,4c2.51,0,11.36.11,11.78-.4C110,3.3,106.51,2.94,104.91,2.82Z"/><path class="dy" d="M104.58,2.82c-5.76-.41-85.29-.41-91,0-1.59.11-5.06.46-4.82.75C9.13,4,16,4,18.55,4c3.63,0,13.13,0,14.58,0S94.31,3.91,98,4c2.5,0,11.06.12,11.48-.37C109.68,3.3,106.18,2.93,104.58,2.82Z"/><path class="dz" d="M104.25,2.82c-5.74-.4-84.91-.4-90.65,0-1.59.11-5,.47-4.81.75.42.48,7.31.41,9.81.38,3.62,0,13.09,0,14.53,0s61.15,0,64.77,0c2.5,0,10.76.14,11.18-.35C109.32,3.3,105.84,2.93,104.25,2.82Z"/><path class="ea" d="M103.91,2.82c-5.72-.39-84.52-.4-90.25,0-1.58.11-5,.47-4.79.74.42.48,7.28.39,9.78.37,3.61,0,13,0,14.48,0s61.11,0,64.72.05c2.49,0,10.45.14,10.87-.33C109,3.3,105.5,2.93,103.91,2.82Z"/><path class="eb" d="M103.58,2.82c-5.7-.38-84.15-.39-89.85,0-1.58.1-5,.47-4.78.74.41.46,7.26.37,9.74.34,3.6,0,13,0,14.44,0s61.07,0,64.67,0c2.48,0,10.15.15,10.57-.31C108.61,3.3,105.16,2.93,103.58,2.82Z"/><path class="ec" d="M103.24,2.82c-5.68-.37-83.76-.38-89.45,0-1.57.1-5,.47-4.76.73.41.46,7.24.35,9.71.33,3.59,0,13,0,14.39,0s61,0,64.62,0c2.48,0,9.85.16,10.27-.29C108.26,3.3,104.82,2.92,103.24,2.82Z"/><path class="ed" d="M102.91,2.82c-5.66-.36-83.39-.37-89,0-1.57.1-5,.47-4.75.73.41.44,7.22.32,9.68.3,3.58,0,12.92,0,14.34,0s61,0,64.57,0c2.47,0,9.55.17,10-.27C107.91,3.31,104.48,2.92,102.91,2.82Z"/><path class="ee" d="M102.58,2.82c-5.65-.35-83-.36-88.65,0-1.57.1-5,.47-4.74.72.41.43,7.19.31,9.65.28,3.56,0,12.87,0,14.29,0s61,0,64.52,0c2.46,0,9.25.19,9.66-.24C107.55,3.31,104.14,2.92,102.58,2.82Z"/></g></g></g><line class="ef" x1="0.02" y1="3.08" x2="149.89" y2="3.08"/></g></svg>