<svg xmlns="http://www.w3.org/2000/svg" xmlns:xlink="http://www.w3.org/1999/xlink" width="167.34" height="22.44" viewBox="0 0 167.34 22.44"><defs><style>.a{fill:none;}.b{isolation:isolate;}.ac,.c{fill:#eaeaea;}.bt,.d{opacity:0.5;}.e{opacity:0.29;}.f{clip-path:url(#a);}.g{opacity:0.85;mix-blend-mode:multiply;}.h{fill:#fff;opacity:0;}.i{fill:#fefefe;opacity:0.01;}.j{fill:#fdfdfd;opacity:0.02;}.k{fill:#fcfcfc;opacity:0.02;}.l{fill:#fbfbfb;opacity:0.03;}.m{fill:#fafafa;opacity:0.04;}.n{fill:#f9f9f9;opacity:0.05;}.o{fill:#f8f8f8;opacity:0.05;}.p{fill:#f7f7f7;opacity:0.06;}.q{fill:#f6f6f6;opacity:0.07;}.r{fill:#f5f5f5;opacity:0.08;}.s{fill:#f4f4f4;opacity:0.09;}.t{fill:#f3f3f3;opacity:0.09;}.u{fill:#f2f2f2;opacity:0.1;}.v{fill:#f1f1f1;opacity:0.11;}.w{fill:#f0f0f0;opacity:0.12;}.x{fill:#efefef;opacity:0.13;}.y{fill:#eee;opacity:0.13;}.z{fill:#ededed;opacity:0.14;}.aa{fill:#ececec;opacity:0.15;}.ab{fill:#ebebeb;opacity:0.16;}.ac{opacity:0.16;}.ad{fill:#e9e9e9;opacity:0.17;}.ae{fill:#e8e8e8;opacity:0.18;}.af{fill:#e7e7e7;opacity:0.19;}.ag{fill:#e6e6e6;opacity:0.2;}.ah{fill:#e5e5e5;opacity:0.2;}.ai{fill:#e4e4e4;opacity:0.21;}.aj{fill:#e3e3e3;opacity:0.22;}.ak{fill:#e2e2e2;opacity:0.23;}.al{fill:#e1e1e1;opacity:0.23;}.am{fill:#e0e0e0;opacity:0.24;}.an{fill:#dfdfdf;opacity:0.25;}.ao{fill:#dedede;opacity:0.26;}.ap{fill:#ddd;opacity:0.27;}.aq{fill:#dcdcdc;opacity:0.27;}.ar{fill:#dbdbdb;opacity:0.28;}.as{fill:#dadada;opacity:0.29;}.at{fill:#d9d9d9;opacity:0.3;}.au{fill:#d8d8d8;opacity:0.3;}.av{fill:#d7d7d7;opacity:0.31;}.aw{fill:#d6d6d6;opacity:0.32;}.ax{fill:#d5d5d5;opacity:0.33;}.ay{fill:#d4d4d4;opacity:0.34;}.az{fill:#d3d3d3;opacity:0.34;}.ba{fill:#d2d2d2;opacity:0.35;}.bb{fill:#d1d1d1;opacity:0.36;}.bc{fill:#d0d0d0;opacity:0.37;}.bd{fill:#cfcfcf;opacity:0.38;}.be{fill:#cecece;opacity:0.38;}.bf{fill:#cdcdcd;opacity:0.39;}.bg{fill:#ccc;opacity:0.4;}.bh{fill:#cbcbcb;opacity:0.41;}.bi{fill:#cacaca;opacity:0.41;}.bj{fill:#c9c9c9;opacity:0.42;}.bk{fill:#c8c8c8;opacity:0.43;}.bl{fill:#c7c7c7;opacity:0.44;}.bm{fill:#c6c6c6;opacity:0.45;}.bn{fill:#c5c5c5;opacity:0.45;}.bo{fill:#c4c4c4;opacity:0.46;}.bp{fill:#c3c3c3;opacity:0.47;}.bq{fill:#c2c2c2;opacity:0.48;}.br{fill:#c1c1c1;opacity:0.48;}.bs{fill:silver;opacity:0.49;}.bt{fill:#bfbfbf;}.bu{fill:#bebebe;opacity:0.51;}.bv{fill:#bdbdbd;opacity:0.52;}.bw{fill:#bcbcbc;opacity:0.52;}.bx{fill:#bbb;opacity:0.53;}.by{fill:#bababa;opacity:0.54;}.bz{fill:#b9b9b9;opacity:0.55;}.ca{fill:#b8b8b8;opacity:0.55;}.cb{fill:#b7b7b7;opacity:0.56;}.cc{fill:#b6b6b6;opacity:0.57;}.cd{fill:#b5b5b5;opacity:0.58;}.ce{fill:#b4b4b4;opacity:0.59;}.cf{fill:#b3b3b3;opacity:0.59;}.cg{fill:#b2b2b2;opacity:0.6;}.ch{fill:#b1b1b1;opacity:0.61;}.ci{fill:#b0b0b0;opacity:0.62;}.cj{fill:#afafaf;opacity:0.63;}.ck{fill:#aeaeae;opacity:0.63;}.cl{fill:#adadad;opacity:0.64;}.cm{fill:#acacac;opacity:0.65;}.cn{fill:#ababab;opacity:0.66;}.co{fill:#aaa;opacity:0.66;}.cp{fill:#a9a9a9;opacity:0.67;}.cq{fill:#a8a8a8;opacity:0.68;}.cr{fill:#a7a7a7;opacity:0.69;}.cs{fill:#a6a6a6;opacity:0.7;}.ct{fill:#a5a5a5;opacity:0.7;}.cu{fill:#a4a4a4;opacity:0.71;}.cv{fill:#a3a3a3;opacity:0.72;}.cw{fill:#a2a2a2;opacity:0.73;}.cx{fill:#a1a1a1;opacity:0.73;}.cy{fill:#a0a0a0;opacity:0.74;}.cz{fill:#9f9f9f;opacity:0.75;}.da{fill:#9e9e9e;opacity:0.76;}.db{fill:#9d9d9d;opacity:0.77;}.dc{fill:#9c9c9c;opacity:0.77;}.dd{fill:#9b9b9b;opacity:0.78;}.de{fill:#9a9a9a;opacity:0.79;}.df{fill:#999;opacity:0.8;}.dg{fill:#989898;opacity:0.8;}.dh{fill:#979797;opacity:0.81;}.di{fill:#969696;opacity:0.82;}.dj{fill:#959595;opacity:0.83;}.dk{fill:#949494;opacity:0.84;}.dl{fill:#939393;opacity:0.84;}.dm{fill:#929292;opacity:0.85;}.dn{fill:#919191;opacity:0.86;}.do{fill:#909090;opacity:0.87;}.dp{fill:#8f8f8f;opacity:0.88;}.dq{fill:#8e8e8e;opacity:0.88;}.dr{fill:#8d8d8d;opacity:0.89;}.ds{fill:#8c8c8c;opacity:0.9;}.dt{fill:#8b8b8b;opacity:0.91;}.du{fill:#8a8a8a;opacity:0.91;}.dv{fill:#898989;opacity:0.92;}.dw{fill:#888;opacity:0.93;}.dx{fill:#878787;opacity:0.94;}.dy{fill:#868686;opacity:0.95;}.dz{fill:#858585;opacity:0.95;}</style><clipPath id="a"><rect class="a" x="-4.1" y="4.1" width="22.44" height="14.25" transform="translate(18.34 4.1) rotate(90)"/></clipPath></defs><title>KH_Sprite</title><g class="b"><path class="c" d="M167.34,15.21H0v-8H167.34Zm0-6H0v4H167.34Z"/><g class="d"><g class="e"><g class="f"><g class="g"><path class="h" d="M-2.56,20.63C-6,17.87-6,4.62-2.56,1.86c1-.76.59-2.3,3.1-2.18,4.28.2,7.07,3.39,6.8,4.59a52.57,52.57,0,0,0-.55,7,52,52,0,0,0,.55,7c.27,1.2-2.52,4.65-6.8,4.85C-2,23.19-1.61,21.39-2.56,20.63Z"/><path class="i" d="M-2.56,20.6C-6,17.85-6,4.64-2.56,1.89-1.62,1.12-2-.41.52-.29c4.26.2,7,3.38,6.76,4.57a52.44,52.44,0,0,0-.55,7,51.83,51.83,0,0,0,.55,7C7.55,19.4,4.78,22.84.52,23-2,23.16-1.62,21.37-2.56,20.6Z"/><path class="j" d="M-2.57,20.58C-6,17.84-6,4.65-2.57,1.91-1.63,1.15-2-.38.51-.26c4.24.2,7,3.36,6.71,4.56a51.91,51.91,0,0,0-.54,7,51.2,51.2,0,0,0,.54,6.94C7.49,19.39,4.75,22.82.51,23-2,23.13-1.63,21.34-2.57,20.58Z"/><path class="k" d="M-2.57,20.56c-3.37-2.74-3.37-15.89,0-18.63C-1.63,1.17-2-.35.5-.24,4.71,0,7.43,3.12,7.16,4.32a51.54,51.54,0,0,0-.54,6.93,50.94,50.94,0,0,0,.54,6.92C7.43,19.37,4.71,22.79.5,23-2,23.1-1.63,21.32-2.57,20.56Z"/><path class="l" d="M-2.57,20.54C-5.92,17.81-5.92,4.68-2.57,2-1.64,1.2-2-.33.49-.21,4.67,0,7.37,3.14,7.1,4.33a53.24,53.24,0,0,0-.54,6.92,52.61,52.61,0,0,0,.54,6.91c.27,1.19-2.43,4.6-6.61,4.8C-2,23.07-1.64,21.29-2.57,20.54Z"/><path class="m" d="M-2.57,20.52C-5.9,17.79-5.9,4.7-2.57,2-1.65,1.22-1.95-.3.48-.18,4.63,0,7.3,3.16,7,4.35a52.57,52.57,0,0,0-.53,6.9A52,52,0,0,0,7,18.14c.26,1.19-2.41,4.59-6.56,4.79C-1.95,23.05-1.65,21.27-2.57,20.52Z"/><path class="n" d="M-2.57,20.49C-5.88,17.78-5.88,4.71-2.57,2c.92-.76.62-2.27,3-2.16C4.6,0,7.24,3.18,7,4.37a52.19,52.19,0,0,0-.53,6.88A51.58,51.58,0,0,0,7,18.12C7.24,19.31,4.6,22.7.46,22.9-1.95,23-1.65,21.25-2.57,20.49Z"/><path class="o" d="M-2.57,20.47C-5.86,17.76-5.86,4.73-2.57,2c.91-.75.62-2.27,3-2.15C4.56.07,7.18,3.2,6.92,4.38a52.05,52.05,0,0,0-.53,6.87,51.45,51.45,0,0,0,.53,6.86c.26,1.18-2.36,4.56-6.47,4.76C-1.95,23-1.66,21.22-2.57,20.47Z"/><path class="p" d="M-2.57,20.45C-5.84,17.74-5.84,4.75-2.57,2c.91-.75.63-2.26,3-2.14C4.52.09,7.12,3.22,6.86,4.4a51.79,51.79,0,0,0-.53,6.85,51.07,51.07,0,0,0,.53,6.84c.26,1.18-2.34,4.55-6.42,4.75C-1.94,23-1.66,21.2-2.57,20.45Z"/><path class="q" d="M-2.57,20.43c-3.25-2.7-3.25-15.67,0-18.37.9-.74.63-2.25,3-2.14,4.05.2,6.63,3.32,6.37,4.5a53,53,0,0,0-.52,6.83,52.38,52.38,0,0,0,.52,6.82c.26,1.18-2.32,4.55-6.37,4.74C-1.94,22.93-1.67,21.17-2.57,20.43Z"/><path class="r" d="M-2.57,20.4C-5.8,17.71-5.8,4.78-2.57,2.09c.89-.75.63-2.25,3-2.14C4.44.15,7,3.26,6.74,4.43a52.87,52.87,0,0,0-.52,6.82,52.24,52.24,0,0,0,.52,6.81C7,19.23,4.44,22.59.42,22.78-1.94,22.9-1.68,21.15-2.57,20.4Z"/><path class="s" d="M-2.57,20.38c-3.21-2.68-3.21-15.59,0-18.27.89-.75.64-2.25,3-2.13,4,.19,6.52,3.3,6.27,4.47a52.48,52.48,0,0,0-.52,6.8A51.85,51.85,0,0,0,6.68,18c.25,1.17-2.27,4.52-6.27,4.72C-1.93,22.87-1.68,21.13-2.57,20.38Z"/><path class="t" d="M-2.57,20.36c-3.19-2.68-3.19-15.55,0-18.23.88-.74.64-2.24,3-2.13,4,.2,6.48,3.3,6.23,4.47a51.81,51.81,0,0,0-.51,6.78A51.2,51.2,0,0,0,6.62,18c.25,1.17-2.25,4.51-6.23,4.71C-1.93,22.84-1.69,21.1-2.57,20.36Z"/><path class="u" d="M-2.57,20.34c-3.17-2.68-3.17-15.51,0-18.19C-1.7,1.41-1.93-.08.38,0c4,.2,6.43,3.29,6.18,4.45a51.79,51.79,0,0,0-.51,6.77A51.19,51.19,0,0,0,6.56,18C6.81,19.17,4.33,22.5.38,22.7-1.93,22.81-1.7,21.08-2.57,20.34Z"/><path class="v" d="M-2.57,20.31c-3.15-2.66-3.15-15.47,0-18.13C-1.7,1.44-1.92-.06.37.06,4.29.25,6.75,3.34,6.5,4.5A53.21,53.21,0,0,0,6,11.25,52.7,52.7,0,0,0,6.5,18c.25,1.16-2.21,4.48-6.13,4.68C-1.92,22.78-1.7,21.05-2.57,20.31Z"/><path class="w" d="M-2.58,20.29C-5.7,17.63-5.7,4.86-2.58,2.2-1.71,1.46-1.92,0,.36.08c3.9.2,6.33,3.28,6.08,4.43a52.91,52.91,0,0,0-.5,6.74A52.28,52.28,0,0,0,6.44,18c.25,1.15-2.18,4.47-6.08,4.66C-1.92,22.75-1.71,21-2.58,20.29Z"/><path class="x" d="M-2.58,20.27c-3.1-2.65-3.1-15.4,0-18C-1.72,1.49-1.92,0,.35.11c3.87.19,6.27,3.27,6,4.42a52.51,52.51,0,0,0-.5,6.72A51.89,51.89,0,0,0,6.38,18c.24,1.15-2.16,4.46-6,4.65C-1.92,22.72-1.72,21-2.58,20.27Z"/><path class="y" d="M-2.58,20.25c-3.08-2.65-3.08-15.36,0-18C-1.72,1.51-1.91,0,.33.14c3.85.19,6.23,3.26,6,4.41a52.24,52.24,0,0,0-.5,6.7,51.61,51.61,0,0,0,.5,6.69c.24,1.15-2.14,4.45-6,4.64C-1.91,22.7-1.72,21-2.58,20.25Z"/><path class="z" d="M-2.58,20.23c-3.06-2.64-3.06-15.33,0-18,.85-.73.67-2.21,2.9-2.1,3.82.2,6.18,3.26,5.94,4.4a52.1,52.1,0,0,0-.5,6.69,51.48,51.48,0,0,0,.5,6.68c.24,1.14-2.12,4.43-5.94,4.62C-1.91,22.67-1.73,21-2.58,20.23Z"/><path class="aa" d="M-2.58,20.2c-3-2.63-3-15.28,0-17.91C-1.74,1.56-1.91.08.31.19,4.11.38,6.44,3.44,6.2,4.58a53.28,53.28,0,0,0-.49,6.67,52.63,52.63,0,0,0,.49,6.66c.24,1.14-2.09,4.42-5.89,4.61C-1.91,22.64-1.74,20.93-2.58,20.2Z"/><path class="ab" d="M-2.58,20.18c-3-2.63-3-15.24,0-17.87C-1.74,1.58-1.91.11.3.22,4.07.41,6.38,3.46,6.14,4.6a52.87,52.87,0,0,0-.49,6.65,52.35,52.35,0,0,0,.49,6.64C6.38,19,4.07,22.3.3,22.5-1.91,22.61-1.74,20.91-2.58,20.18Z"/><path class="ac" d="M-2.58,20.16c-3-2.62-3-15.21,0-17.83C-1.75,1.61-1.9.13.29.25c3.74.19,6,3.22,5.79,4.36a53,53,0,0,0-.49,6.64,52.34,52.34,0,0,0,.49,6.63C6.31,19,4,22.28.29,22.47-1.9,22.58-1.75,20.88-2.58,20.16Z"/><path class="ad" d="M-2.58,20.14c-3-2.62-3-15.17,0-17.79C-1.76,1.63-1.9.16.27.27,4,.46,6.25,3.49,6,4.63a52.28,52.28,0,0,0-.48,6.62A51.66,51.66,0,0,0,6,17.86C6.25,19,4,22.25.27,22.44-1.9,22.55-1.76,20.86-2.58,20.14Z"/><path class="ae" d="M-2.58,20.11c-3-2.6-3-15.13,0-17.73C-1.76,1.65-1.9.19.26.3,4,.49,6.19,3.51,6,4.65a55.55,55.55,0,0,0-.47,6.6A54.86,54.86,0,0,0,6,17.84C6.19,19,4,22.22.26,22.41-1.9,22.52-1.76,20.84-2.58,20.11Z"/><path class="af" d="M-2.58,20.09C-5.53,17.49-5.53,5-2.58,2.4-1.77,1.68-1.89.21.25.33c3.67.18,5.88,3.2,5.64,4.33a55.41,55.41,0,0,0-.47,6.59,54.72,54.72,0,0,0,.47,6.58c.24,1.13-2,4.36-5.64,4.55C-1.89,22.49-1.77,20.81-2.58,20.09Z"/><path class="ag" d="M-2.58,20.07C-5.51,17.48-5.51,5-2.58,2.42-1.77,1.7-1.89.24.24.35c3.64.19,5.83,3.2,5.59,4.33a54.78,54.78,0,0,0-.46,6.57,54.11,54.11,0,0,0,.46,6.56c.24,1.13-1.95,4.35-5.59,4.54C-1.89,22.46-1.77,20.79-2.58,20.07Z"/><path class="ah" d="M-2.58,20.05c-2.91-2.59-2.91-15,0-17.61C-1.78,1.73-1.89.27.23.38,3.84.57,6,3.57,5.77,4.7a54.36,54.36,0,0,0-.46,6.55,53.82,53.82,0,0,0,.46,6.54C6,18.92,3.84,22.13.23,22.32-1.89,22.43-1.78,20.76-2.58,20.05Z"/><path class="ai" d="M-2.58,20c-2.89-2.58-2.89-15,0-17.55C-1.79,1.75-1.88.3.22.41c3.59.18,5.72,3.18,5.49,4.3a54.35,54.35,0,0,0-.46,6.54,53.68,53.68,0,0,0,.46,6.53c.23,1.12-1.9,4.33-5.49,4.51C-1.88,22.4-1.79,20.74-2.58,20Z"/><path class="aj" d="M-2.59,20c-2.86-2.57-2.86-14.94,0-17.51C-1.79,1.78-1.88.32.2.43c3.57.19,5.68,3.18,5.45,4.3a56.06,56.06,0,0,0-.46,6.52,55.35,55.35,0,0,0,.46,6.51c.23,1.12-1.88,4.32-5.45,4.5C-1.88,22.37-1.79,20.71-2.59,20Z"/><path class="ak" d="M-2.59,20c-2.84-2.57-2.84-14.9,0-17.47C-1.8,1.8-1.88.35.19.46c3.54.19,5.63,3.17,5.4,4.29a55.42,55.42,0,0,0-.45,6.5,54.73,54.73,0,0,0,.45,6.49c.23,1.12-1.86,4.31-5.4,4.5C-1.88,22.35-1.8,20.69-2.59,20Z"/><path class="al" d="M-2.59,20c-2.82-2.56-2.82-14.87,0-17.43.78-.71.72-2.15,2.77-2C3.69.67,5.76,3.65,5.53,4.76a55.27,55.27,0,0,0-.45,6.49,54.58,54.58,0,0,0,.45,6.48C5.76,18.84,3.69,22,.18,22.21-1.87,22.32-1.81,20.67-2.59,20Z"/><path class="am" d="M-2.59,19.94c-2.8-2.56-2.8-14.83,0-17.39.78-.7.72-2.15,2.76-2C3.65.7,5.69,3.67,5.47,4.78A54.84,54.84,0,0,0,5,11.25a54.29,54.29,0,0,0,.45,6.46c.22,1.11-1.82,4.28-5.3,4.47C-1.87,22.29-1.81,20.64-2.59,19.94Z"/><path class="an" d="M-2.59,19.91c-2.78-2.54-2.78-14.79,0-17.33.77-.71.72-2.15,2.75-2C3.62.73,5.63,3.69,5.41,4.8A54.08,54.08,0,0,0,5,11.25a53.54,53.54,0,0,0,.44,6.44C5.63,18.8,3.62,22,.16,22.15-1.87,22.26-1.82,20.62-2.59,19.91Z"/><path class="ao" d="M-2.59,19.89c-2.76-2.54-2.76-14.75,0-17.29.76-.7.73-2.14,2.73-2C3.58.75,5.57,3.71,5.35,4.81a56.41,56.41,0,0,0-.44,6.44,55.69,55.69,0,0,0,.44,6.43c.22,1.1-1.77,4.26-5.21,4.44C-1.86,22.23-1.83,20.59-2.59,19.89Z"/><path class="ap" d="M-2.59,19.87c-2.74-2.54-2.74-14.71,0-17.25.76-.7.73-2.14,2.72-2C3.54.78,5.51,3.73,5.29,4.83a56,56,0,0,0-.44,6.42,55.25,55.25,0,0,0,.44,6.41c.22,1.1-1.75,4.25-5.16,4.43C-1.86,22.2-1.83,20.57-2.59,19.87Z"/><path class="aq" d="M-2.59,19.85c-2.72-2.53-2.72-14.68,0-17.21.75-.7.73-2.13,2.71-2C3.5.8,5.45,3.75,5.23,4.85a55.17,55.17,0,0,0-.43,6.4,54.48,54.48,0,0,0,.43,6.39c.22,1.1-1.73,4.24-5.11,4.42C-1.86,22.17-1.84,20.55-2.59,19.85Z"/><path class="ar" d="M-2.59,19.82c-2.7-2.52-2.7-14.63,0-17.15.74-.7.74-2.13,2.7-2C3.47.83,5.38,3.77,5.17,4.86a55,55,0,0,0-.43,6.39,54.33,54.33,0,0,0,.43,6.38c.21,1.09-1.7,4.22-5.06,4.4C-1.85,22.14-1.85,20.52-2.59,19.82Z"/><path class="as" d="M-2.59,19.8c-2.68-2.51-2.68-14.6,0-17.11C-1.85,2-1.85.57.1.67c3.33.19,5.22,3.12,5,4.21a54.72,54.72,0,0,0-.43,6.37,54.16,54.16,0,0,0,.43,6.36C5.32,18.7,3.43,21.82.1,22-1.85,22.11-1.85,20.5-2.59,19.8Z"/><path class="at" d="M-2.59,19.78c-2.66-2.51-2.66-14.56,0-17.07C-1.86,2-1.85.59.08.7c3.31.18,5.18,3.11,5,4.2a56.58,56.58,0,0,0-.43,6.35,56,56,0,0,0,.43,6.34c.21,1.09-1.66,4.2-5,4.39C-1.85,22.08-1.86,20.47-2.59,19.78Z"/><path class="au" d="M-2.59,19.76c-2.64-2.5-2.64-14.53,0-17C-1.87,2-1.84.62.07.73,3.35.91,5.2,3.82,5,4.91a56.19,56.19,0,0,0-.42,6.34A55.48,55.48,0,0,0,5,17.58C5.2,18.67,3.35,21.76.07,22-1.84,22.05-1.87,20.45-2.59,19.76Z"/><path class="av" d="M-2.6,19.73c-2.61-2.49-2.61-14.48,0-17,.73-.69.76-2.11,2.66-2C3.32.94,5.14,3.84,4.93,4.93a55.74,55.74,0,0,0-.42,6.32,55,55,0,0,0,.42,6.31c.21,1.09-1.61,4.18-4.87,4.36C-1.84,22-1.87,20.43-2.6,19.73Z"/><path class="aw" d="M-2.6,19.71c-2.59-2.49-2.59-14.44,0-16.93.72-.69.76-2.11,2.65-2C3.28,1,5.07,3.86,4.87,5a55.44,55.44,0,0,0-.42,6.3,54.73,54.73,0,0,0,.42,6.29c.2,1.09-1.59,4.17-4.82,4.35C-1.84,22-1.88,20.4-2.6,19.71Z"/><path class="ax" d="M-2.6,19.69C-5.17,17.21-5.17,5.28-2.6,2.8c.71-.69.76-2.1,2.64-2C3.24,1,5,3.88,4.81,5a54.92,54.92,0,0,0-.41,6.29,54.23,54.23,0,0,0,.41,6.28C5,18.61,3.24,21.68,0,21.86-1.84,22-1.89,20.38-2.6,19.69Z"/><path class="ay" d="M-2.6,19.67C-5.15,17.19-5.15,5.3-2.6,2.82c.71-.68.77-2.09,2.63-2C3.2,1,5,3.9,4.75,5a56.85,56.85,0,0,0-.41,6.27,56.26,56.26,0,0,0,.41,6.26C5,18.59,3.2,21.65,0,21.83-1.83,21.94-1.89,20.35-2.6,19.67Z"/><path class="az" d="M-2.6,19.64c-2.53-2.46-2.53-14.33,0-16.79.7-.69.77-2.09,2.61-2C3.17,1,4.89,3.92,4.69,5a56.39,56.39,0,0,0-.41,6.25,55.8,55.8,0,0,0,.41,6.24c.2,1.08-1.52,4.13-4.68,4.31C-1.83,21.91-1.9,20.33-2.6,19.64Z"/><path class="ba" d="M-2.6,19.62c-2.51-2.46-2.51-14.29,0-16.75.7-.68.77-2.09,2.6-2C3.13,1.07,4.83,3.94,4.63,5a56.14,56.14,0,0,0-.4,6.24,55.42,55.42,0,0,0,.4,6.23c.2,1.07-1.5,4.11-4.63,4.29C-1.83,21.88-1.9,20.3-2.6,19.62Z"/><path class="bb" d="M-2.6,19.6c-2.49-2.46-2.49-14.25,0-16.71.69-.68.78-2.08,2.59-2C3.09,1.09,4.76,4,4.57,5a55.68,55.68,0,0,0-.4,6.22,55,55,0,0,0,.4,6.21c.19,1.07-1.48,4.11-4.58,4.29C-1.82,21.85-1.91,20.28-2.6,19.6Z"/><path class="bc" d="M-2.6,19.58c-2.47-2.45-2.47-14.22,0-16.67.68-.68.78-2.07,2.58-2,3.07.18,4.72,3,4.53,4.11a55.23,55.23,0,0,0-.4,6.2,54.52,54.52,0,0,0,.4,6.19c.19,1.07-1.46,4.1-4.53,4.28C-1.82,21.82-1.92,20.26-2.6,19.58Z"/><path class="bd" d="M-2.6,19.56C-5,17.11-5,5.38-2.6,2.93-1.92,2.26-1.82.86,0,1,3,1.15,4.64,4,4.45,5.06a57.57,57.57,0,0,0-.4,6.19,57,57,0,0,0,.4,6.18C4.64,18.49,3,21.51,0,21.69-1.82,21.79-1.92,20.23-2.6,19.56Z"/><path class="be" d="M-2.6,19.53C-5,17.1-5,5.39-2.6,3-1.93,2.28-1.81.89,0,1c3,.17,4.63,3,4.44,4.08A56.84,56.84,0,0,0,4,11.25a56.25,56.25,0,0,0,.39,6.16C4.58,18.47,3,21.48,0,21.66-1.81,21.76-1.93,20.21-2.6,19.53Z"/><path class="bf" d="M-2.6,19.51C-5,17.08-5,5.41-2.6,3c.66-.67.79-2.06,2.54-2,3,.18,4.58,3,4.39,4.08a56.38,56.38,0,0,0-.39,6.15,55.78,55.78,0,0,0,.39,6.14c.19,1.06-1.39,4.06-4.39,4.24C-1.81,21.73-1.94,20.18-2.6,19.51Z"/><path class="bg" d="M-2.6,19.49C-5,17.07-5,5.42-2.6,3c.66-.67.79-2,2.53-1.95,3,.18,4.53,3,4.34,4.06a56.36,56.36,0,0,0-.39,6.14,55.62,55.62,0,0,0,.39,6.13c.19,1.05-1.37,4-4.34,4.22C-1.81,21.7-1.94,20.16-2.6,19.49Z"/><path class="bh" d="M-2.6,19.47C-5,17.05-5,5.44-2.6,3c.65-.67.8-2,2.52-1.94,2.94.17,4.47,3,4.29,4.05a55.51,55.51,0,0,0-.38,6.12,54.8,54.8,0,0,0,.38,6.11c.18,1.05-1.35,4-4.29,4.21C-1.8,21.68-1.95,20.14-2.6,19.47Z"/><path class="bi" d="M-2.61,19.44c-2.34-2.41-2.34-14,0-16.39C-2,2.38-1.8,1-.09,1.1c2.92.18,4.42,3,4.24,4.05a57.77,57.77,0,0,0-.38,6.1,57,57,0,0,0,.38,6.09c.18,1.05-1.32,4-4.24,4.2C-1.8,21.65-2,20.11-2.61,19.44Z"/><path class="bj" d="M-2.61,19.42c-2.32-2.4-2.32-14,0-16.35C-2,2.4-1.8,1-.1,1.13c2.89.17,4.37,3,4.19,4a57.61,57.61,0,0,0-.38,6.09,57,57,0,0,0,.38,6.08c.18,1-1.3,4-4.19,4.18C-1.8,21.62-2,20.09-2.61,19.42Z"/><path class="bk" d="M-2.61,19.4c-2.3-2.4-2.3-13.91,0-16.31.64-.66.82-2,2.49-1.93,2.87.17,4.33,3,4.15,4a56.72,56.72,0,0,0-.37,6.07A56.12,56.12,0,0,0,4,17.31c.18,1-1.28,4-4.15,4.18C-1.79,21.59-2,20.06-2.61,19.4Z"/><path class="bl" d="M-2.61,19.38C-4.89,17-4.89,5.5-2.61,3.11c.63-.66.82-2,2.48-1.93,2.84.18,4.28,3,4.09,4a58.54,58.54,0,0,0-.36,6.05,57.92,57.92,0,0,0,.36,6c.19,1-1.25,4-4.09,4.17C-1.79,21.56-2,20-2.61,19.38Z"/><path class="bm" d="M-2.61,19.35C-4.87,17-4.87,5.52-2.61,3.14c.63-.66.82-2,2.47-1.93,2.82.17,4.22,3,4,4-.25,1.51-.36,5.44-.36,6s.11,4.52.36,6a4.48,4.48,0,0,1-4,4.15C-1.79,21.53-2,20-2.61,19.35Z"/><path class="bn" d="M-2.61,19.33C-4.85,17-4.85,5.53-2.61,3.16c.62-.66.83-2,2.46-1.92,2.79.17,4.17,3,4,4-.25,1.5-.36,5.42-.36,6s.11,4.51.36,6a4.42,4.42,0,0,1-4,4.14C-1.78,21.5-2,20-2.61,19.33Z"/><path class="bo" d="M-2.61,19.31c-2.22-2.37-2.22-13.76,0-16.13.61-.66.83-2,2.45-1.92,2.76.18,4.12,3,3.94,4-.25,1.49-.35,5.4-.35,6a59.35,59.35,0,0,0,.35,6A4.39,4.39,0,0,1-.16,21.37C-1.78,21.47-2,20-2.61,19.31Z"/><path class="bp" d="M-2.61,19.29c-2.2-2.37-2.2-13.72,0-16.09.61-.65.83-2,2.43-1.91a4.24,4.24,0,0,1,3.9,4,60,60,0,0,0-.35,6,59.33,59.33,0,0,0,.35,6,4.35,4.35,0,0,1-3.9,4.11C-1.78,21.44-2,19.94-2.61,19.29Z"/><path class="bq" d="M-2.61,19.27c-2.18-2.36-2.18-13.69,0-16,.6-.65.84-2,2.42-1.9a4.19,4.19,0,0,1,3.85,4,59.63,59.63,0,0,0-.35,6,59,59,0,0,0,.35,6,4.31,4.31,0,0,1-3.85,4.1C-1.77,21.41-2,19.92-2.61,19.27Z"/><path class="br" d="M-2.61,19.24c-2.16-2.35-2.16-13.64,0-16,.59-.65.84-2,2.41-1.91a4.18,4.18,0,0,1,3.8,4c-.24,1.48-.34,5.35-.34,6s.1,4.46.34,5.94A4.29,4.29,0,0,1-.2,21.28C-1.77,21.38-2,19.89-2.61,19.24Z"/><path class="bs" d="M-2.61,19.22c-2.14-2.34-2.14-13.61,0-15.95.59-.65.84-2,2.4-1.9A4.14,4.14,0,0,1,3.54,5.31c-.24,1.48-.34,5.35-.34,5.94s.1,4.45.34,5.93A4.25,4.25,0,0,1-.21,21.25C-1.77,21.35-2,19.87-2.61,19.22Z"/><path class="bt" d="M-2.61,19.2c-2.12-2.34-2.12-13.57,0-15.91.58-.65.85-2,2.39-1.89a4.1,4.1,0,0,1,3.7,3.93c-.24,1.47-.34,5.33-.34,5.92s.1,4.44.34,5.91a4.23,4.23,0,0,1-3.7,4.07C-1.76,21.33-2,19.85-2.61,19.2Z"/><path class="bu" d="M-2.61,19.18c-2.1-2.33-2.1-13.54,0-15.87.58-.64.85-2,2.37-1.89A4.07,4.07,0,0,1,3.42,5.35c-.24,1.47-.33,5.31-.33,5.9s.09,4.42.33,5.89A4.18,4.18,0,0,1-.24,21.2C-1.76,21.3-2,19.82-2.61,19.18Z"/><path class="bv" d="M-2.62,19.15c-2.07-2.32-2.07-13.49,0-15.81.58-.65.86-2,2.37-1.89A4,4,0,0,1,3.36,5.36C3.12,6.83,3,10.66,3,11.25s.09,4.41.33,5.88a4.15,4.15,0,0,1-3.61,4C-1.76,21.27-2,19.8-2.62,19.15Z"/><path class="bw" d="M-2.62,19.13c-2-2.32-2-13.45,0-15.77.57-.64.86-2,2.36-1.88A4,4,0,0,1,3.3,5.38C3.07,6.84,3,10.66,3,11.25s.1,4.4.33,5.86a4.13,4.13,0,0,1-3.56,4C-1.76,21.24-2,19.77-2.62,19.13Z"/><path class="bx" d="M-2.62,19.11c-2-2.31-2-13.42,0-15.73.57-.64.87-2,2.35-1.88A4,4,0,0,1,3.24,5.39c-.23,1.46-.33,5.27-.33,5.86s.1,4.39.33,5.85c.16,1-1,3.84-3.51,4C-1.75,21.21-2,19.75-2.62,19.11Z"/><path class="by" d="M-2.62,19.09c-2-2.31-2-13.38,0-15.69.56-.63.87-2,2.34-1.87A3.94,3.94,0,0,1,3.18,5.41c-.23,1.46-.32,5.26-.32,5.84s.09,4.37.32,5.83c.16,1-1,3.83-3.46,4C-1.75,21.18-2.06,19.73-2.62,19.09Z"/><path class="bz" d="M-2.62,19.06c-2-2.29-2-13.34,0-15.63.55-.64.87-2,2.33-1.87A3.91,3.91,0,0,1,3.12,5.43c-.23,1.45-.32,5.24-.32,5.82s.09,4.36.32,5.81c.16,1-.93,3.83-3.41,4C-1.75,21.15-2.07,19.7-2.62,19.06Z"/><path class="ca" d="M-2.62,19c-2-2.29-2-13.3,0-15.59.55-.64.88-2,2.31-1.87A3.89,3.89,0,0,1,3.06,5.44c-.23,1.45-.32,5.23-.32,5.81s.09,4.35.32,5.8c.16,1-.91,3.81-3.37,4C-1.74,21.12-2.07,19.68-2.62,19Z"/><path class="cb" d="M-2.62,19c-1.95-2.28-1.95-13.27,0-15.55.54-.63.88-2,2.3-1.86A3.86,3.86,0,0,1,3,5.46c-.22,1.44-.31,5.21-.31,5.79S2.78,15.59,3,17c.15,1-.89,3.8-3.32,4C-1.74,21.09-2.08,19.65-2.62,19Z"/><path class="cc" d="M-2.62,19c-1.93-2.28-1.93-13.23,0-15.51.53-.63.88-1.95,2.29-1.85,2.4.16,3.42,2.85,3.27,3.84-.22,1.44-.31,5.19-.31,5.77s.09,4.32.31,5.76c.15,1-.87,3.79-3.27,4C-1.74,21.06-2.09,19.63-2.62,19Z"/><path class="cd" d="M-2.62,19c-1.91-2.28-1.91-13.19,0-15.47.53-.62.89-1.94,2.28-1.85C2,1.83,3,4.51,2.88,5.49c-.22,1.44-.31,5.18-.31,5.76s.09,4.31.31,5.75C3,18,2,20.77-.34,20.94-1.73,21-2.09,19.6-2.62,19Z"/><path class="ce" d="M-2.62,19c-1.89-2.26-1.89-13.15,0-15.41.52-.63.89-1.95,2.27-1.85C2,1.86,3,4.53,2.82,5.51c-.22,1.43-.3,5.17-.3,5.74s.08,4.3.3,5.73C3,18,2,20.74-.35,20.91-1.73,21-2.1,19.58-2.62,19Z"/><path class="cf" d="M-2.62,18.93c-1.87-2.26-1.87-13.11,0-15.37.51-.63.89-1.94,2.25-1.84C2,1.88,2.91,4.54,2.76,5.53c-.22,1.42-.3,5.15-.3,5.72s.08,4.29.3,5.71c.15,1-.8,3.75-3.13,3.92C-1.73,21-2.11,19.56-2.62,18.93Z"/><path class="cg" d="M-2.62,18.91c-1.85-2.25-1.85-13.08,0-15.33.51-.62.9-1.93,2.24-1.83,2.3.16,3.22,2.81,3.08,3.79-.21,1.43-.3,5.14-.3,5.71s.09,4.27.3,5.7c.14,1-.78,3.74-3.08,3.9C-1.72,21-2.11,19.53-2.62,18.91Z"/><path class="ch" d="M-2.62,18.89c-1.83-2.25-1.83-13,0-15.29.5-.62.9-1.92,2.23-1.83,2.28.17,3.17,2.81,3,3.79-.21,1.42-.3,5.12-.3,5.69s.09,4.26.3,5.68c.14,1-.75,3.73-3,3.89C-1.72,20.92-2.12,19.51-2.62,18.89Z"/><path class="ci" d="M-2.63,18.86c-1.8-2.24-1.8-13,0-15.23C-2.13,3-1.72,1.7-.4,1.8c2.25.16,3.12,2.8,3,3.78-.21,1.41-.29,5.1-.29,5.67s.08,4.25.29,5.66c.14,1-.73,3.72-3,3.88C-1.72,20.89-2.13,19.48-2.63,18.86Z"/><path class="cj" d="M-2.63,18.84c-1.78-2.23-1.78-13,0-15.19.5-.62.92-1.92,2.22-1.82C1.81,2,2.66,4.62,2.52,5.59c-.21,1.41-.29,5.09-.29,5.66s.08,4.24.29,5.65c.14,1-.71,3.7-2.93,3.86C-1.71,20.86-2.13,19.46-2.63,18.84Z"/><path class="ck" d="M-2.63,18.82c-1.76-2.23-1.76-12.92,0-15.15.49-.61.92-1.91,2.2-1.82,2.2.16,3,2.79,2.89,3.76-.21,1.41-.29,5.08-.29,5.64s.08,4.23.29,5.63c.14,1-.69,3.69-2.89,3.86C-1.71,20.83-2.14,19.44-2.63,18.82Z"/><path class="cl" d="M-2.63,18.8c-1.74-2.22-1.74-12.89,0-15.11.49-.61.92-1.91,2.19-1.81,2.18.16,3,2.78,2.84,3.75-.2,1.4-.28,5.06-.28,5.62s.08,4.21.28,5.61c.13,1-.66,3.68-2.84,3.85C-1.71,20.8-2.14,19.41-2.63,18.8Z"/><path class="cm" d="M-2.63,18.77c-1.72-2.21-1.72-12.84,0-15,.48-.62.93-1.91,2.18-1.81,2.15.16,2.92,2.77,2.79,3.73-.2,1.4-.28,5.05-.28,5.61s.08,4.2.28,5.6c.13,1-.64,3.67-2.79,3.83C-1.7,20.77-2.15,19.39-2.63,18.77Z"/><path class="cn" d="M-2.63,18.75c-1.7-2.2-1.7-12.81,0-15,.47-.61.93-1.9,2.17-1.81,2.12.16,2.87,2.77,2.74,3.73-.2,1.39-.28,5-.28,5.59s.08,4.19.28,5.58c.13,1-.62,3.66-2.74,3.82C-1.7,20.74-2.16,19.36-2.63,18.75Z"/><path class="co" d="M-2.63,18.73c-1.68-2.2-1.68-12.77,0-15,.47-.61.93-1.89,2.16-1.8,2.09.16,2.82,2.76,2.69,3.72C2,7.06,2,10.69,2,11.25s.07,4.18.27,5.56c.13,1-.6,3.65-2.69,3.81C-1.7,20.71-2.16,19.34-2.63,18.73Z"/><path class="cp" d="M-2.63,18.71C-4.29,16.51-4.29,6-2.63,3.78c.46-.6.94-1.89,2.15-1.79,2.07.16,2.77,2.75,2.64,3.7-.19,1.39-.27,5-.27,5.56s.08,4.16.27,5.55c.13.95-.57,3.63-2.64,3.79C-1.69,20.68-2.17,19.31-2.63,18.71Z"/><path class="cq" d="M-2.63,18.69C-4.27,16.5-4.27,6-2.63,3.81-2.18,3.2-1.69,1.92-.5,2c2.05.16,2.72,2.75,2.6,3.7-.19,1.38-.27,5-.27,5.54s.08,4.15.27,5.53c.12.95-.55,3.62-2.6,3.78C-1.69,20.66-2.18,19.29-2.63,18.69Z"/><path class="cr" d="M-2.63,18.66C-4.25,16.48-4.25,6-2.63,3.83-2.18,3.22-1.69,2-.51,2,1.51,2.2,2.16,4.78,2,5.73c-.19,1.37-.27,5-.27,5.52s.08,4.14.27,5.51c.12.95-.53,3.61-2.55,3.77C-1.69,20.63-2.18,19.27-2.63,18.66Z"/><path class="cs" d="M-2.63,18.64c-1.6-2.17-1.6-12.62,0-14.79.44-.6.94-1.88,2.11-1.78C1.47,2.23,2.1,4.8,2,5.74c-.18,1.37-.25,5-.25,5.51s.07,4.13.25,5.5c.13.94-.5,3.6-2.49,3.75C-1.69,20.6-2.19,19.24-2.63,18.64Z"/><path class="ct" d="M-2.63,18.62C-4.21,16.45-4.21,6-2.63,3.87c.43-.6,1-1.87,2.1-1.78,2,.16,2.57,2.73,2.44,3.67-.18,1.37-.25,4.94-.25,5.49s.07,4.11.25,5.48c.13.94-.47,3.59-2.44,3.75C-1.68,20.57-2.2,19.22-2.63,18.62Z"/><path class="cu" d="M-2.63,18.6c-1.56-2.16-1.56-12.55,0-14.71C-2.2,3.3-1.68,2-.54,2.12,1.4,2.28,2,4.84,1.85,5.78c-.17,1.36-.25,4.92-.25,5.47s.08,4.1.25,5.46c.13.94-.45,3.58-2.39,3.74C-1.68,20.54-2.2,19.19-2.63,18.6Z"/><path class="cv" d="M-2.64,18.57c-1.53-2.15-1.53-12.5,0-14.65.43-.6,1-1.86,2.08-1.77,1.92.15,2.48,2.71,2.35,3.64-.17,1.36-.24,4.91-.24,5.46s.07,4.09.24,5.45c.13.93-.43,3.56-2.35,3.72C-1.68,20.51-2.21,19.17-2.64,18.57Z"/><path class="cw" d="M-2.64,18.55c-1.51-2.15-1.51-12.46,0-14.61.42-.6,1-1.86,2.07-1.77,1.89.16,2.42,2.71,2.3,3.64-.17,1.35-.24,4.89-.24,5.44s.07,4.08.24,5.43c.12.93-.41,3.55-2.3,3.71C-1.67,20.48-2.22,19.15-2.64,18.55Z"/><path class="cx" d="M-2.64,18.53C-4.13,16.39-4.13,6.1-2.64,4c.42-.59,1-1.85,2.06-1.76,1.86.16,2.37,2.7,2.25,3.63-.17,1.35-.24,4.88-.24,5.42s.07,4.06.24,5.41c.12.94-.39,3.54-2.25,3.7C-1.67,20.45-2.22,19.12-2.64,18.53Z"/><path class="cy" d="M-2.64,18.51C-4.11,16.37-4.11,6.12-2.64,4c.41-.59,1-1.84,2.05-1.75,1.84.15,2.32,2.68,2.2,3.61-.17,1.35-.23,4.87-.23,5.41s.06,4.05.23,5.4c.12.93-.36,3.53-2.2,3.68C-1.67,20.42-2.23,19.1-2.64,18.51Z"/><path class="cz" d="M-2.64,18.48C-4.09,16.36-4.09,6.13-2.64,4c.4-.59,1-1.85,2-1.76,1.81.16,2.27,2.68,2.15,3.61-.16,1.34-.23,4.85-.23,5.39s.07,4,.23,5.38c.12.93-.34,3.52-2.15,3.67C-1.66,20.39-2.24,19.07-2.64,18.48Z"/><path class="da" d="M-2.64,18.46C-4.07,16.34-4.07,6.15-2.64,4c.4-.59,1-1.84,2-1.75C1.17,2.44,1.61,5,1.49,5.88c-.16,1.33-.23,4.83-.23,5.37s.07,4,.23,5.36c.12.93-.32,3.51-2.11,3.66C-1.66,20.36-2.24,19.05-2.64,18.46Z"/><path class="db" d="M-2.64,18.44C-4,16.33-4,6.16-2.64,4.05c.39-.58,1-1.83,2-1.74C1.13,2.46,1.54,5,1.43,5.89c-.16,1.34-.23,4.82-.23,5.36s.07,4,.23,5.35c.11.92-.3,3.49-2.06,3.64C-1.66,20.33-2.25,19-2.64,18.44Z"/><path class="dc" d="M-2.64,18.42C-4,16.31-4,6.18-2.64,4.07c.38-.58,1-1.83,2-1.74,1.74.16,2.12,2.66,2,3.58-.16,1.33-.22,4.8-.22,5.34s.06,4,.22,5.33c.11.92-.27,3.48-2,3.64C-1.65,20.31-2.26,19-2.64,18.42Z"/><path class="dd" d="M-2.64,18.39C-4,16.29-4,6.2-2.64,4.1c.38-.59,1-1.83,2-1.74,1.71.15,2.07,2.65,2,3.57-.16,1.32-.22,4.79-.22,5.32s.06,4,.22,5.31c.11.92-.25,3.47-2,3.63C-1.65,20.28-2.26,19-2.64,18.39Z"/><path class="de" d="M-2.64,18.37C-4,16.28-4,6.21-2.64,4.12c.37-.58,1-1.82,2-1.73C1,2.54,1.36,5,1.25,5.94,1.1,7.26,1,10.72,1,11.25s.07,4,.22,5.3C1.36,17.46,1,20-.66,20.16-1.65,20.25-2.27,19-2.64,18.37Z"/><path class="df" d="M-2.64,18.35C-4,16.26-4,6.23-2.64,4.14c.37-.58,1-1.81,2-1.72C1,2.57,1.3,5.05,1.19,6,1,7.28,1,10.72,1,11.25s.06,4,.21,5.28C1.3,17.44,1,20-.67,20.13-1.64,20.22-2.27,18.93-2.64,18.35Z"/><path class="dg" d="M-2.64,18.33c-1.31-2.08-1.31-12.09,0-14.17.36-.57,1-1.81,2-1.72C1,2.59,1.23,5.07,1.13,6,1,7.29.92,10.72.92,11.25s.06,3.95.21,5.26C1.23,17.42,1,20-.69,20.1-1.64,20.19-2.28,18.9-2.64,18.33Z"/><path class="dh" d="M-2.64,18.31c-1.29-2.08-1.29-12,0-14.13.35-.57,1-1.8,1.94-1.71C.91,2.62,1.17,5.09,1.07,6,.92,7.3.86,10.72.86,11.25s.06,3.94.21,5.25c.1.9-.16,3.42-1.77,3.57C-1.64,20.16-2.29,18.88-2.64,18.31Z"/><path class="di" d="M-2.65,18.28c-1.26-2.06-1.26-12,0-14.07.36-.58,1-1.8,1.94-1.71C.87,2.65,1.11,5.11,1,6c-.15,1.3-.2,4.71-.2,5.24s0,3.93.2,5.23c.1.9-.14,3.41-1.72,3.56C-1.63,20.13-2.29,18.86-2.65,18.28Z"/><path class="dj" d="M-2.65,18.26c-1.24-2.06-1.24-12,0-14,.35-.57,1-1.8,1.93-1.71C.83,2.67,1.05,5.13,1,6c-.14,1.3-.2,4.7-.2,5.22s.06,3.91.2,5.21c.1.9-.12,3.4-1.67,3.55C-1.63,20.1-2.3,18.83-2.65,18.26Z"/><path class="dk" d="M-2.65,18.24c-1.22-2.06-1.22-11.93,0-14,.34-.57,1-1.79,1.92-1.7C.8,2.7,1,5.15.89,6c-.14,1.3-.2,4.69-.2,5.21s.06,3.9.2,5.2C1,17.34.8,19.83-.73,20-1.63,20.07-2.31,18.81-2.65,18.24Z"/><path class="dl" d="M-2.65,18.22c-1.2-2-1.2-11.9,0-13.95.34-.56,1-1.78,1.9-1.69C.76,2.72.92,5.17.83,6.06c-.14,1.29-.2,4.67-.2,5.19s.06,3.89.2,5.18C.92,17.32.76,19.81-.75,20-1.62,20-2.31,18.78-2.65,18.22Z"/><path class="dm" d="M-2.65,18.19c-1.18-2-1.18-11.85,0-13.89.33-.57,1-1.78,1.89-1.7C.72,2.75.86,5.19.77,6.08.63,7.36.58,10.73.58,11.25s.05,3.88.19,5.16c.09.89-.05,3.37-1.53,3.52C-1.62,20-2.32,18.76-2.65,18.19Z"/><path class="dn" d="M-2.65,18.17c-1.16-2-1.16-11.82,0-13.85.32-.56,1-1.78,1.88-1.69C.68,2.78.8,5.21.71,6.09.57,7.38.52,10.73.52,11.25s0,3.86.19,5.15c.09.88,0,3.35-1.48,3.5C-1.62,20-2.33,18.74-2.65,18.17Z"/><path class="do" d="M-2.65,18.15c-1.14-2-1.14-11.78,0-13.81.32-.56,1-1.77,1.87-1.68C.65,2.8.74,5.23.65,6.11.52,7.39.46,10.73.46,11.25s.06,3.85.19,5.13c.09.88,0,3.34-1.43,3.49C-1.62,20-2.33,18.71-2.65,18.15Z"/><path class="dp" d="M-2.65,18.13c-1.13-2-1.13-11.74,0-13.77.31-.56,1-1.76,1.86-1.68C.61,2.83.68,5.25.59,6.13.46,7.4.41,10.74.41,11.25s.05,3.84.18,5.11c.09.88,0,3.33-1.38,3.48C-1.61,19.93-2.34,18.69-2.65,18.13Z"/><path class="dq" d="M-2.65,18.1c-1.11-2-1.11-11.7,0-13.71.3-.56,1-1.77,1.84-1.68C.57,2.86.61,5.26.53,6.14.4,7.41.35,10.74.35,11.25s.05,3.83.18,5.1c.08.88,0,3.31-1.34,3.46C-1.61,19.9-2.35,18.66-2.65,18.1Z"/><path class="dr" d="M-2.65,18.08c-1.09-2-1.09-11.66,0-13.67.3-.56,1-1.76,1.83-1.67C.53,2.88.55,5.28.47,6.16.34,7.43.29,10.74.29,11.25s.05,3.81.18,5.08c.08.88.06,3.31-1.29,3.45C-1.61,19.87-2.35,18.64-2.65,18.08Z"/><path class="ds" d="M-2.65,18.06c-1.07-2-1.07-11.63,0-13.63.29-.55,1-1.75,1.82-1.67C.49,2.91.49,5.3.41,6.18.28,7.44.24,10.74.24,11.25s0,3.8.17,5.06c.08.88.08,3.3-1.24,3.44C-1.6,19.84-2.36,18.61-2.65,18.06Z"/><path class="dt" d="M-2.65,18C-3.7,16-3.7,6.45-2.65,4.45c.28-.55,1-1.75,1.81-1.66C.46,2.94.43,5.32.35,6.19.23,7.45.18,10.74.18,11.25S.23,15,.35,16.3c.08.87.11,3.28-1.19,3.42C-1.6,19.81-2.37,18.59-2.65,18Z"/><path class="du" d="M-2.66,18c-1-2-1-11.56,0-13.55.29-.55,1.06-1.74,1.81-1.65C.42,3,.37,5.34.29,6.21c-.12,1.25-.17,4.53-.17,5s.05,3.78.17,5c.08.87.13,3.27-1.14,3.42C-1.6,19.78-2.37,18.57-2.66,18Z"/><path class="dv" d="M-2.66,18c-1-2-1-11.51,0-13.49C-2.38,4-1.59,2.76-.86,2.84.38,3,.3,5.36.23,6.23c-.12,1.25-.17,4.52-.17,5s.05,3.76.17,5c.07.87.15,3.26-1.09,3.41C-1.59,19.75-2.38,18.54-2.66,18Z"/><path class="dw" d="M-2.66,18c-1-2-1-11.47,0-13.45C-2.39,4-1.59,2.79-.88,2.87.34,3,.24,5.38.17,6.24.05,7.49,0,10.75,0,11.25s0,3.75.16,5c.07.86.17,3.24-1,3.39C-1.59,19.72-2.39,18.52-2.66,18Z"/><path class="dx" d="M-2.66,18c-1-2-1-11.44,0-13.41C-2.39,4-1.59,2.81-.89,2.9.31,3,.18,5.4.11,6.26,0,7.5,0,10.75,0,11.25s.05,3.74.16,5c.07.86.2,3.24-1,3.38C-1.59,19.69-2.39,18.49-2.66,18Z"/><path class="dy" d="M-2.66,17.93c-.94-2-.94-11.4,0-13.37C-2.4,4-1.58,2.84-.9,2.92c1.17.15,1,2.5.94,3.35-.1,1.24-.15,4.48-.15,5s.05,3.73.15,5c.08.85.23,3.22-.94,3.36C-1.58,19.66-2.4,18.47-2.66,17.93Z"/><path class="dz" d="M-2.66,17.9c-.92-1.95-.92-11.36,0-13.31C-2.4,4.05-1.58,2.87-.91,3c1.14.14,1,2.49.89,3.34-.1,1.24-.14,4.46-.14,5S-.12,15,0,16.2c.08.85.25,3.21-.89,3.35C-1.58,19.64-2.4,18.45-2.66,17.9Z"/></g></g></g></g></g></svg>