<svg xmlns="http://www.w3.org/2000/svg" xmlns:xlink="http://www.w3.org/1999/xlink" width="44.75" height="50.99" viewBox="0 0 44.75 50.99"><defs><style>.a{fill:url(#a);}.b{fill:#fff;}</style><linearGradient id="a" x1="22.38" y1="50.99" x2="22.38" gradientUnits="userSpaceOnUse"><stop offset="0"/><stop offset="1" stop-opacity="0"/></linearGradient></defs><title>KH_Sprite</title><rect class="a" width="44.75" height="50.99"/><path class="b" d="M33.36,23.42,22.72,15.64a.59.59,0,0,0-.69,0L11.4,23.42a.58.58,0,1,0,.69.94l10.29-7.53,10.29,7.53a.54.54,0,0,0,.34.12.59.59,0,0,0,.35-1.06Z"/><path class="b" d="M30.54,24.5a.58.58,0,0,0-.58.58v9.28H25.29V29.29a2.92,2.92,0,0,0-5.83,0v5.07H14.8V25.08a.59.59,0,0,0-1.17,0v9.86a.58.58,0,0,0,.59.58H20a.59.59,0,0,0,.59-.53v-5.7a1.75,1.75,0,0,1,3.5,0V35a.57.57,0,0,0,.58.53h5.83a.58.58,0,0,0,.58-.58V25.08A.58.58,0,0,0,30.54,24.5Z"/></svg>