<svg xmlns="http://www.w3.org/2000/svg" xmlns:xlink="http://www.w3.org/1999/xlink" width="44.75" height="50.99" viewBox="0 0 44.75 50.99"><defs><style>.a{fill:url(#a);}.b{fill:#fff;}</style><linearGradient id="a" x1="22.38" y1="50.99" x2="22.38" gradientUnits="userSpaceOnUse"><stop offset="0"/><stop offset="1" stop-opacity="0"/></linearGradient></defs><title>KH_Sprite</title><rect class="a" width="44.75" height="50.99"/><path class="b" d="M21.54,35.52a1.79,1.79,0,0,1-1.69-1.44c-.06-.31-.11-.63-.16-.95a1,1,0,0,1-.39-.37.58.58,0,0,1,0-.45.54.54,0,0,1,.5-.35A1,1,0,0,1,20,32a1,1,0,0,1,.74.86c0,.35.11.69.18,1a.51.51,0,0,0,.53.49l.9,0,.9,0a.52.52,0,0,0,.5-.45c.06-.3.11-.62.16-.92l0-.18a1,1,0,0,1,.62-.77l.88-.37a1,1,0,0,1,.34-.07.86.86,0,0,1,.52.18l.23.16.65.46a.82.82,0,0,0,.43.18.65.65,0,0,0,.44-.25c.4-.38.76-.74,1.09-1.09a.56.56,0,0,0,.07-.87c-.21-.31-.41-.58-.59-.83a.91.91,0,0,1-.11-1c.13-.31.25-.59.35-.86a.91.91,0,0,1,.78-.6q.55-.08,1.05-.18a.55.55,0,0,0,.51-.6c0-.55,0-1.1,0-1.67a.43.43,0,0,0-.32-.48c-.42-.12-.85-.2-1.26-.28a.89.89,0,0,1-.75-.6l-.34-.85a.93.93,0,0,1,.1-1l.57-.8a.64.64,0,0,0,.17-.49.55.55,0,0,1,.11-.42.52.52,0,0,1,.39-.2h0a.56.56,0,0,1,.61.52,1.69,1.69,0,0,1-.33,1.17l-.21.31-.31.45a.15.15,0,0,0,0,.11l0,.12a1.17,1.17,0,0,0,.21.52,1,1,0,0,0,.33.08l.33.05.1,0a4.43,4.43,0,0,1,.73.23,1.57,1.57,0,0,1,1,1.53v.51c0,.34,0,.7,0,1.05a1.8,1.8,0,0,1-1.43,1.78l-.28,0-.7.13-.13.19a1.23,1.23,0,0,0-.21.52.93.93,0,0,0,.26.4l.16.2a1.86,1.86,0,0,1,.42,1.63A2.23,2.23,0,0,1,30,32c-.34.39-.72.75-1.06,1.08l-.12.11a1.71,1.71,0,0,1-1.05.49l0,.06-.22,0-.28-.12a4.51,4.51,0,0,1-.66-.29,5.7,5.7,0,0,1-.65-.44l-.12-.1-.17-.19,0,.18c-.66.27-.66.27-.76,1a1.83,1.83,0,0,1-1.27,1.63,2.3,2.3,0,0,1-.6.07H21.54Z"/><path class="b" d="M15,20.09a.58.58,0,0,1-.56-.51.64.64,0,0,1,.21-.49c.39-.4.8-.82,1.23-1.22a1.62,1.62,0,0,1,1-.45l0-.06.21,0,.29.11a5,5,0,0,1,.68.29,5.72,5.72,0,0,1,.48.32,2.86,2.86,0,0,0,.3.22,1.7,1.7,0,0,0,.34-.11,2.26,2.26,0,0,1,.33-.13c.05,0,.07,0,.1-.16l0-.16A7.25,7.25,0,0,1,20,16.49a1.53,1.53,0,0,1,1.52-1h1l.59,0h0a1.8,1.8,0,0,1,1.75,1.39c.08.38.14.7.19,1v.24l.1-.16a.93.93,0,0,0,.53.19,1.22,1.22,0,0,0,.75-.35,2,2,0,0,1,1.24-.49,2,2,0,0,1,1.5.82.53.53,0,0,1,0,.77.56.56,0,0,1-.39.17.6.6,0,0,1-.39-.15l-.15-.15-.15-.15a.67.67,0,0,0-.42-.21.75.75,0,0,0-.37.14c-.3.2-.59.41-.87.61a1,1,0,0,1-.58.21.93.93,0,0,1-.4-.09L24.53,19a.89.89,0,0,1-.59-.76c-.05-.34-.1-.67-.16-1a.58.58,0,0,0-.65-.57H21.52c-.4,0-.46.21-.48.28a10.18,10.18,0,0,0-.31,1.31,1,1,0,0,1-.63.78c-.26.1-.53.21-.8.34a1.06,1.06,0,0,1-.42.09.94.94,0,0,1-.58-.21c-.27-.21-.55-.4-.79-.57a.85.85,0,0,0-.44-.18.67.67,0,0,0-.45.25c-.37.35-.74.73-1.11,1.11A.7.7,0,0,1,15,20.09Z"/><path class="b" d="M22.3,29.1c-.1,0-.2,0-.3,0a.66.66,0,0,1-.5-.23.55.55,0,0,1-.1-.41.53.53,0,0,1,.55-.49h.11a1.83,1.83,0,0,0,.33,0,2.58,2.58,0,0,0,.91-.17,2.45,2.45,0,0,0-.84-4.71,2.3,2.3,0,0,0-2.24,1.29,2.35,2.35,0,0,0,.2,2.62c.28.4.16.71-.05.86A.5.5,0,0,1,20,28a.71.71,0,0,1-.53-.33,3.39,3.39,0,0,1-.7-1.84A3.75,3.75,0,0,1,22.07,22h.26A3.67,3.67,0,0,1,25.9,25a3.62,3.62,0,0,1-3.52,4.09Z"/><path class="b" d="M17.14,33.71A1.73,1.73,0,0,1,16,33.23c-.43-.4-.85-.83-1.21-1.21a1.61,1.61,0,0,1-.47-1l-.16-.07.08-.17.12-.34c.09-.21.17-.43.28-.63a4.83,4.83,0,0,1,.44-.64l.09-.12c0-.16-.12-.31-.15-.48s-.16-.3-.5-.35a4.13,4.13,0,0,1-1.16-.3,1.55,1.55,0,0,1-.93-1.45,5.55,5.55,0,0,1,0-.59.52.52,0,0,1,.52-.54h0a.54.54,0,0,1,.59.51c0,.12,0,.23,0,.34v.13c0,.43.13.6.53.69s.61.12.92.17l.17,0a.89.89,0,0,1,.72.56l.07.19.3.69a.91.91,0,0,1-.11,1c-.21.27-.42.57-.62.86a.53.53,0,0,0,.05.79c.38.4.78.8,1.19,1.19a.57.57,0,0,0,.38.19.71.71,0,0,0,.37-.14l.51-.35.43-.31a.64.64,0,0,1,.37-.15.76.76,0,0,1,.58.31.61.61,0,0,1-.17.67c-.33.25-.69.5-1.11.77A1.74,1.74,0,0,1,17.14,33.71Z"/><path class="b" d="M12.93,25.38c-.21,0-.35-.17-.48-.33a.53.53,0,0,1-.07-.32,1.78,1.78,0,0,1,1.38-1.67l.51-.09.51-.09c.35-.69.35-.69,0-1.27a4.67,4.67,0,0,1-.39-.63.53.53,0,0,1,0-.41.52.52,0,0,1,.28-.32.54.54,0,0,1,.27-.07.57.57,0,0,1,.48.28c.23.36.48.74.74,1.12a.88.88,0,0,1,.11.92l-.06.17c-.1.23-.19.46-.28.69a1,1,0,0,1-.78.62c-.38.06-.7.1-1,.17a.56.56,0,0,0-.55.61.37.37,0,0,1-.1.31.7.7,0,0,1-.46.31h0Z"/></svg>