<svg xmlns="http://www.w3.org/2000/svg" width="133.19" height="13.3" viewBox="0 0 133.19 13.3"><defs><style>.a{fill:#f3f4f7;}</style></defs><title>KH_Sprite</title><path class="a" d="M133.19,13.3H0V0H133.19ZM75.6,10.65h2v-8h-2Zm4,0h2v-8h-2Zm4,0h2v-8h-2Zm4,0h2v-8h-2Zm-28,0h2v-8h-2Zm12,0h2v-8h-2Zm20,0h2v-8h-2Zm-28,0h2v-8h-2Zm4,0h2v-8h-2Zm60-8v8h2v-8Zm-12,8h2v-8h-2Zm-4,0h2v-8h-2Zm8,0h2v-8h-2Zm4,0h2v-8h-2Zm-20,0h2v-8h-2Zm-4,0h2v-8h-2Zm8,0h2v-8h-2Zm-12,0h2v-8h-2Zm-72,0h2v-8h-2Zm-4,0h2v-8h-2Zm-4,0h2v-8h-2Zm-12,0h2v-8h-2Zm8,0h2v-8h-2Zm-4,0h2v-8h-2Zm20,0h2v-8h-2Zm4,0h2v-8h-2Zm20,0h2v-8h-2Zm4,0h2v-8h-2Zm-8,0h2v-8h-2Zm-4,0h2v-8h-2Zm-8,0h2v-8h-2Zm4,0h2v-8h-2Z"/></svg>