<svg xmlns="http://www.w3.org/2000/svg" width="25.62" height="26.32" viewBox="0 0 25.62 26.32"><defs><style>.a{fill:none;stroke:#000;stroke-linecap:round;stroke-linejoin:round;stroke-width:0.75px;}.b{fill:#d5211e;}</style></defs><title>KH_Sprite</title><path class="a" d="M24.59,9.49A12.46,12.46,0,0,1,12.81,26h0a12.44,12.44,0,0,1,0-24.87h0a12.32,12.32,0,0,1,2.87.33"/><path class="a" d="M19.8,15c-.5,4.49-3.22,9-7,11-4.18-2.22-7.06-7.49-7.06-12.44S8.63,3.3,12.81,1.08A10.91,10.91,0,0,1,15,2.62"/><line class="a" x1="12.81" y1="1.08" x2="12.81" y2="25.95"/><line class="a" x1="22.04" y1="13.51" x2="25.22" y2="13.51"/><line class="a" x1="0.38" y1="13.51" x2="18.71" y2="13.51"/><path class="b" d="M20.38,0c-3.28,0-4.44,2.43-4.44,4.88,0,4.93,4.44,9.12,4.44,9.12s4.43-4.19,4.43-9.12C24.81,2.43,23.66,0,20.38,0Zm0,7.43A2.61,2.61,0,1,1,23,4.82,2.61,2.61,0,0,1,20.38,7.43Z"/></svg>