<svg xmlns="http://www.w3.org/2000/svg" width="15.19" height="13.5" viewBox="0 0 15.19 13.5"><defs><style>.a{fill:none;stroke:#fff;stroke-linecap:round;stroke-linejoin:round;stroke-width:0.5px;}</style></defs><title>KH_Sprite</title><path class="a" d="M9.87,8.18a2.35,2.35,0,1,1-2.4-2.3A2.36,2.36,0,0,1,9.87,8.18Z"/><path class="a" d="M3.32,11.68a1.54,1.54,0,1,1-1.57-1.5A1.53,1.53,0,0,1,3.32,11.68Z"/><path class="a" d="M14.93,11.43a1.54,1.54,0,1,1-1.57-1.51A1.54,1.54,0,0,1,14.93,11.43Z"/><circle class="a" cx="7.38" cy="1.79" r="1.54"/><line class="a" x1="3.1" y1="10.92" x2="5.51" y2="9.45"/><line class="a" x1="7.47" y1="5.88" x2="7.41" y2="3.32"/><line class="a" x1="9.58" y1="9.37" x2="12.05" y2="10.72"/></svg>