<svg xmlns="http://www.w3.org/2000/svg" width="17.38" height="13" viewBox="0 0 17.38 13"><defs><style>.a{fill:none;stroke:#fff;stroke-miterlimit:10;stroke-width:0.5px;}</style></defs><title>KH_Sprite</title><path class="a" d="M5.47,7.56V6.88l0-.54a2.62,2.62,0,0,0,0-.55,5.54,5.54,0,0,0-.92-2l0,0a.57.57,0,0,1-.08-.28v-2l0,0a.44.44,0,0,0,.08-.11.37.37,0,0,0,0-.18V.66A.4.4,0,0,0,4.35.37.45.45,0,0,0,4.06.25H2.7a.41.41,0,0,0-.37.23.41.41,0,0,0-.05.18v.5a.4.4,0,0,0,.12.29l0,0v2a.59.59,0,0,1,0,.22l0,0a7.12,7.12,0,0,0-.57.94,4.42,4.42,0,0,0-.39,1.1,3.37,3.37,0,0,0-.06.59l-.06.51c0,.25,0,.49,0,.71"/><line class="a" x1="2.31" y1="1.44" x2="4.43" y2="1.44"/><path class="a" d="M10.79,7.56c0-.21,0-.43,0-.68l-.05-.54a2.62,2.62,0,0,0-.05-.55,5.54,5.54,0,0,0-.92-2l0,0a.57.57,0,0,1-.08-.28v-2l0,0a.44.44,0,0,0,.08-.11.37.37,0,0,0,0-.18V.66A.4.4,0,0,0,9.68.37.45.45,0,0,0,9.39.25H8a.41.41,0,0,0-.37.23.41.41,0,0,0,0,.18v.5a.4.4,0,0,0,.12.29l0,0v2a.59.59,0,0,1,0,.22l0,0a8.59,8.59,0,0,0-.56.94,4.42,4.42,0,0,0-.39,1.1,2.62,2.62,0,0,0-.06.59l-.06.51c0,.25,0,.49,0,.71"/><line class="a" x1="7.64" y1="1.44" x2="9.76" y2="1.44"/><path class="a" d="M16.12,7.56c0-.21,0-.43,0-.68l-.05-.54a2.62,2.62,0,0,0,0-.55,5.54,5.54,0,0,0-.92-2l0,0A.57.57,0,0,1,15,3.44v-2l0,0a.44.44,0,0,0,.08-.11.37.37,0,0,0,0-.18V.66A.4.4,0,0,0,15,.37a.45.45,0,0,0-.29-.12H13.36A.41.41,0,0,0,13,.48a.41.41,0,0,0-.05.18v.5a.4.4,0,0,0,.12.29l0,0v2a.59.59,0,0,1-.05.22l0,0a8.59,8.59,0,0,0-.56.94A4.42,4.42,0,0,0,12,5.75a2.62,2.62,0,0,0-.06.59l-.07.51c0,.25,0,.49,0,.71"/><line class="a" x1="12.97" y1="1.44" x2="15.09" y2="1.44"/><rect class="a" x="0.25" y="7.56" width="16.88" height="5.19" rx="0.46"/><line class="a" x1="5.13" y1="10.16" x2="12.25" y2="10.16"/></svg>