<svg xmlns="http://www.w3.org/2000/svg" width="18" height="18" viewBox="0 0 18 18"><defs><style>.a{fill:#fff;}</style></defs><title>KH_Sprite</title><path class="a" d="M9,0a9,9,0,1,0,9,9A9,9,0,0,0,9,0ZM9,16.82A7.82,7.82,0,1,1,16.82,9,7.83,7.83,0,0,1,9,16.82Z"/><path class="a" d="M5.48,13a.53.53,0,0,1,.11-.28L8.14,8.82,5.87,5.27A.56.56,0,0,1,5.77,5c0-.14.22-.21.68-.21h.38c.34,0,.56.07.65.21L9,7.45,10.67,5a.39.39,0,0,1,.23-.16,1.66,1.66,0,0,1,.42,0h.34c.45,0,.68.07.68.21a.5.5,0,0,1-.11.28L9.92,8.82l2.51,3.91a.64.64,0,0,1,.09.28c0,.14-.23.21-.68.21h-.37c-.34,0-.56-.07-.65-.21L9,10.19,7.16,13a.51.51,0,0,1-.25.16,1.53,1.53,0,0,1-.41,0H6.16C5.71,13.22,5.48,13.15,5.48,13Z"/></svg>