<svg xmlns="http://www.w3.org/2000/svg" width="19" height="12.43" viewBox="0 0 19 12.43"><defs><style>.a{fill:#fff;}</style></defs><title>KH_Sprite</title><path class="a" d="M13.09,4.47l-.74.5A.63.63,0,0,0,12,4.88a.58.58,0,0,0-.59.59.59.59,0,0,0,.59.6.6.6,0,0,0,.6-.6s0-.08,0-.12l.74-.5a.24.24,0,0,0,.06-.32.24.24,0,0,0-.32-.06Z"/><path class="a" d="M16.67,6.63a.21.21,0,0,0-.21.21V8.08a.21.21,0,1,0,.41,0V6.84A.2.2,0,0,0,16.67,6.63Z"/><path class="a" d="M1.51,9.45a.2.2,0,0,0,.2-.2V.61a.2.2,0,0,1,.21-.2H16.26a.2.2,0,0,1,.2.2V4.34a.21.21,0,0,0,.21.21.2.2,0,0,0,.2-.21V.61A.61.61,0,0,0,16.26,0H1.92A.61.61,0,0,0,1.3.61V9.25A.21.21,0,0,0,1.51,9.45Z"/><path class="a" d="M13.51,9.78a.21.21,0,1,0,0,.41h1.08a.2.2,0,0,0,.2-.21.2.2,0,0,0-.2-.2Z"/><path class="a" d="M15.67,11.11H.87a.46.46,0,0,1-.46-.46.45.45,0,0,1,.46-.46H10.2a.2.2,0,0,0,.2-.21.2.2,0,0,0-.2-.2H.87a.87.87,0,0,0,0,1.74h14.8a.2.2,0,0,0,.2-.21.2.2,0,0,0-.2-.2Z"/><path class="a" d="M18.76,10.63,16.89,8.75a.81.81,0,0,0-1.14,0l-.43.43a.81.81,0,0,0,0,1.14l1.88,1.87a.76.76,0,0,0,.57.24.78.78,0,0,0,.57-.24l.42-.42a.8.8,0,0,0,0-1.14Zm-.28.85-.43.43a.43.43,0,0,1-.28.11.39.39,0,0,1-.28-.11L15.61,10a.4.4,0,0,1,0-.56L16,9a.39.39,0,0,1,.56,0l1.88,1.87a.42.42,0,0,1,0,.57Z"/><path class="a" d="M12.07,2.2a3.3,3.3,0,1,0,3.3,3.3A3.3,3.3,0,0,0,12.07,2.2Zm0,6.19A2.89,2.89,0,1,1,15,5.5,2.89,2.89,0,0,1,12.07,8.39Z"/><path class="a" d="M12.07,1.13a4.37,4.37,0,1,0,2.47,8l.15.15A.21.21,0,1,0,15,9l-.27-.27a.21.21,0,0,0-.27,0,3.91,3.91,0,0,1-2.37.79,4,4,0,1,1,4-4,3.91,3.91,0,0,1-.79,2.37.21.21,0,0,0,0,.27l.27.27a.21.21,0,0,0,.29-.29L15.68,8a4.36,4.36,0,0,0-3.61-6.84Z"/><path class="a" d="M3.68,3a.21.21,0,0,0-.2.21V6.84a.2.2,0,0,0,.2.2H7a.2.2,0,0,0,.21-.2A.21.21,0,0,0,7,6.63H7V5.09a.2.2,0,0,0-.21-.2.2.2,0,0,0-.2.2V6.63H6.19v-2a.2.2,0,1,0-.4,0v2H5.4V5.35a.2.2,0,0,0-.2-.21A.21.21,0,0,0,5,5.35V6.63H4.61V6.07a.2.2,0,0,0-.21-.2.2.2,0,0,0-.2.2v.56H3.89V3.2A.22.22,0,0,0,3.68,3Z"/></svg>