<svg xmlns="http://www.w3.org/2000/svg" width="14" height="13.55" viewBox="0 0 14 13.55"><defs><style>.a{fill:#fff;}</style></defs><title>KH_Sprite</title><path class="a" d="M6.67,8,.14,1.49A.52.52,0,0,1,0,1.16.51.51,0,0,1,.14.84l.7-.7A.51.51,0,0,1,1.16,0a.52.52,0,0,1,.33.14L7,5.65,12.51.14a.44.44,0,0,1,.64,0l.7.7a.48.48,0,0,1,.15.32.48.48,0,0,1-.15.33L7.32,8A.45.45,0,0,1,7,8.16.49.49,0,0,1,6.67,8Zm0,5.39L.14,6.87a.44.44,0,0,1,0-.64l.7-.7a.48.48,0,0,1,.32-.15.48.48,0,0,1,.33.15L7,11l5.51-5.51a.42.42,0,0,1,.64,0l.7.7a.42.42,0,0,1,0,.64L7.32,13.41a.49.49,0,0,1-.32.14A.54.54,0,0,1,6.67,13.41Z"/></svg>