<svg xmlns="http://www.w3.org/2000/svg" width="19" height="18.72" viewBox="0 0 19 18.72"><defs><style>.a{fill:#ea1f2a;}</style></defs><title>KH_Sprite</title><path class="a" d="M13.92,16.1a1.18,1.18,0,0,1-.58-.14L9.62,14a.33.33,0,0,0-.24,0L5.67,16a1.26,1.26,0,0,1-1.82-1.32l.71-4.14a.28.28,0,0,0-.07-.22l-3-2.94a1.22,1.22,0,0,1-.32-1.28,1.25,1.25,0,0,1,1-.85L6.33,4.6a.26.26,0,0,0,.19-.13L8.38.7a1.25,1.25,0,0,1,2.24,0l1.86,3.77a.26.26,0,0,0,.19.13l4.16.61a1.25,1.25,0,0,1,1,.85,1.22,1.22,0,0,1-.32,1.28l-3,2.94a.25.25,0,0,0-.08.22l.71,4.14a1.24,1.24,0,0,1-.5,1.22A1.21,1.21,0,0,1,13.92,16.1ZM9.5,13a1.19,1.19,0,0,1,.58.15l3.72,2a.24.24,0,0,0,.27,0,.25.25,0,0,0,.1-.24l-.71-4.14a1.24,1.24,0,0,1,.36-1.11l3-2.93a.27.27,0,0,0,.07-.26.26.26,0,0,0-.21-.17l-4.15-.61a1.24,1.24,0,0,1-.95-.68L9.72,1.14h0a.24.24,0,0,0-.44,0L7.42,4.91a1.24,1.24,0,0,1-1,.68L2.32,6.2a.26.26,0,0,0-.21.17.27.27,0,0,0,.07.26l3,2.93a1.27,1.27,0,0,1,.37,1.11l-.71,4.14a.23.23,0,0,0,.09.24.24.24,0,0,0,.27,0l3.72-2A1.19,1.19,0,0,1,9.5,13Z"/><path class="a" d="M14.53,2.34a.49.49,0,0,1-.3-.1.51.51,0,0,1-.11-.7l.54-.73a.5.5,0,1,1,.81.59l-.54.73A.48.48,0,0,1,14.53,2.34Z"/><path class="a" d="M4.47,2.33a.51.51,0,0,1-.41-.2L3.53,1.4A.51.51,0,0,1,3.64.7a.49.49,0,0,1,.7.11l.53.73a.49.49,0,0,1-.11.7A.52.52,0,0,1,4.47,2.33Z"/><path class="a" d="M.5,12.18A.5.5,0,0,1,0,11.83a.51.51,0,0,1,.33-.63l.86-.28a.51.51,0,0,1,.63.32.52.52,0,0,1-.32.64l-.86.28Z"/><path class="a" d="M9.5,18.72a.5.5,0,0,1-.5-.5v-.91a.5.5,0,0,1,1,0v.91A.5.5,0,0,1,9.5,18.72Z"/><path class="a" d="M18.5,12.18l-.16,0-.86-.28a.5.5,0,0,1,.31-1l.86.28a.51.51,0,0,1,.33.64A.5.5,0,0,1,18.5,12.18Z"/></svg>