<svg xmlns="http://www.w3.org/2000/svg" width="10.12" height="10.12" viewBox="0 0 10.12 10.12"><defs><style>.a{fill:#fff;}</style></defs><title>KH_Sprite</title><path class="a" d="M0,5.06A4.87,4.87,0,0,1,1.48,1.48,4.87,4.87,0,0,1,5.06,0,4.85,4.85,0,0,1,8.64,1.48a4.87,4.87,0,0,1,1.48,3.58A4.85,4.85,0,0,1,8.64,8.64a4.85,4.85,0,0,1-3.58,1.48A4.87,4.87,0,0,1,1.48,8.64,4.85,4.85,0,0,1,0,5.06Zm1,0A3.93,3.93,0,0,0,2.2,7.93,3.89,3.89,0,0,0,5.06,9.11,3.89,3.89,0,0,0,7.92,7.93,3.9,3.9,0,0,0,9.11,5.06,3.86,3.86,0,0,0,7.92,2.2,3.9,3.9,0,0,0,5.06,1,3.9,3.9,0,0,0,2.2,2.2,3.9,3.9,0,0,0,1,5.06Zm1.69,0a2.3,2.3,0,0,1,.69-1.68A2.28,2.28,0,0,1,5.06,2.7a2.28,2.28,0,0,1,1.67.69,2.3,2.3,0,0,1,.69,1.68,2.26,2.26,0,0,1-.69,1.66,2.28,2.28,0,0,1-1.67.69,2.28,2.28,0,0,1-1.67-.69A2.26,2.26,0,0,1,2.7,5.07Z"/></svg>