<svg xmlns="http://www.w3.org/2000/svg" width="14" height="13.55" viewBox="0 0 14 13.55"><defs><style>.a{fill:#fff;}</style></defs><title>KH_Sprite</title><path class="a" d="M7,5.38a.46.46,0,0,1,.32.15l6.53,6.53a.46.46,0,0,1,.15.32.5.5,0,0,1-.15.33l-.7.7a.44.44,0,0,1-.64,0L7,7.9,1.49,13.41a.52.52,0,0,1-.33.14.51.51,0,0,1-.32-.14l-.7-.7A.54.54,0,0,1,0,12.38a.49.49,0,0,1,.14-.32L6.67,5.53A.5.5,0,0,1,7,5.38ZM7,0a.49.49,0,0,1,.32.14l6.53,6.53A.5.5,0,0,1,14,7a.46.46,0,0,1-.15.32l-.7.7a.44.44,0,0,1-.64,0L7,2.51,1.49,8a.47.47,0,0,1-.33.14A.47.47,0,0,1,.84,8l-.7-.7A.49.49,0,0,1,0,7a.54.54,0,0,1,.14-.33L6.67.14A.54.54,0,0,1,7,0Z"/></svg>