<svg xmlns="http://www.w3.org/2000/svg" width="19" height="19" viewBox="0 0 19 19"><defs><style>.a{fill:#fff;}</style></defs><title>KH_Sprite</title><path class="a" d="M1.4,19A1.41,1.41,0,0,1,0,17.59V3.22a1.4,1.4,0,0,1,1.4-1.4H4.25V.39A.4.4,0,0,1,4.64,0,.39.39,0,0,1,5,.39V1.82H9.11V.39a.39.39,0,0,1,.78,0V1.82H14V.39a.4.4,0,0,1,.79,0V1.82H17.6A1.4,1.4,0,0,1,19,3.22V17.59A1.41,1.41,0,0,1,17.6,19Zm0-16.4a.62.62,0,0,0-.62.62V17.59a.63.63,0,0,0,.62.63H17.6a.63.63,0,0,0,.62-.63V3.22a.62.62,0,0,0-.62-.62H14.75V4A.4.4,0,0,1,14,4V2.6H9.89V4a.39.39,0,0,1-.78,0V2.6H5V4a.38.38,0,0,1-.39.38A.39.39,0,0,1,4.25,4V2.6Z"/><rect class="a" x="4.25" y="7.47" width="2" height="1.39"/><rect class="a" x="4.25" y="10.5" width="2" height="1.39"/><rect class="a" x="4.25" y="13.54" width="2" height="1.39"/><rect class="a" x="8.5" y="13.54" width="2" height="1.39"/><rect class="a" x="8.5" y="10.5" width="2" height="1.39"/><rect class="a" x="8.5" y="7.47" width="2" height="1.39"/><rect class="a" x="12.75" y="13.54" width="2" height="1.39"/><rect class="a" x="12.75" y="10.5" width="2" height="1.39"/><rect class="a" x="12.75" y="7.47" width="2" height="1.39"/></svg>