<svg xmlns="http://www.w3.org/2000/svg" width="19" height="19" viewBox="0 0 19 19"><defs><style>.a{fill:#ea1f2a;}</style></defs><title>KH_Sprite</title><path class="a" d="M9.5,0A9.5,9.5,0,1,0,19,9.5,9.51,9.51,0,0,0,9.5,0ZM15,2.62a9,9,0,0,1,1.29,1.26,1.41,1.41,0,0,0-.58,0,1.23,1.23,0,0,0-.8.67.22.22,0,0,1-.22.13.22.22,0,0,1-.2-.21A4,4,0,0,1,15,2.62Zm-11.5.52A8.69,8.69,0,0,1,6.07,1.42,10.36,10.36,0,0,1,8.4,3.61a.56.56,0,0,1,.1.47.6.6,0,0,1-.31.37A7.65,7.65,0,0,0,5.63,6.13a.5.5,0,0,1-.52.18,1.35,1.35,0,0,0-1.65.62c-.43.74.16,1.46.69,2.1l.17.22A3.4,3.4,0,0,1,3.08,8c-.49-.88-.81-2.43.37-4.85ZM.72,9.5A8.75,8.75,0,0,1,2.08,4.81a4.83,4.83,0,0,0,.37,3.53,4.18,4.18,0,0,0,2.1,1.83.71.71,0,0,1,.39.46l0,.13a4.36,4.36,0,0,1,0,1.45,2.56,2.56,0,0,0,1.07,2.36l.72.5a7.46,7.46,0,0,0,.27,2.87A8.8,8.8,0,0,1,.72,9.5ZM18,11a1.33,1.33,0,0,0-.5-1,1.29,1.29,0,0,0-1-.28h0a1,1,0,0,1-.78-.2,1.06,1.06,0,0,1-.42-.72,5.74,5.74,0,0,1,0-.91.35.35,0,0,0-.34-.37.36.36,0,0,0-.38.34,6.07,6.07,0,0,0,0,1,1.78,1.78,0,0,0,.7,1.2,1.75,1.75,0,0,0,1.33.34h0a.57.57,0,0,1,.47.13.6.6,0,0,1,.23.45,4.1,4.1,0,0,0,.4,1.61,8.78,8.78,0,0,1-9.23,5.6l.44-.44a.37.37,0,0,0,0-.51.35.35,0,0,0-.51,0l-.59.6a7,7,0,0,1-.27-2.94.36.36,0,0,0-.15-.34L6.5,14a1.81,1.81,0,0,1-.77-1.69,5.6,5.6,0,0,0,0-1.48,11.81,11.81,0,0,1,1.68-.31,1.06,1.06,0,0,1,.85.29,14.06,14.06,0,0,0,2.41,1.74,1.32,1.32,0,0,1,.6.88,1.28,1.28,0,0,1-.28,1c-.32.39-.71.84-1.16,1.34a.35.35,0,0,0,0,.5.31.31,0,0,0,.24.1.34.34,0,0,0,.26-.12c.46-.5.86-1,1.19-1.36a2,2,0,0,0-.51-3,13.78,13.78,0,0,1-2.28-1.64,1.78,1.78,0,0,0-1.43-.48,10.67,10.67,0,0,0-1.69.3A4,4,0,0,0,4.7,8.57c-.48-.58-.78-1-.62-1.28s.31-.42.85-.28a1.24,1.24,0,0,0,1.26-.43A6.9,6.9,0,0,1,8.49,5.1,1.28,1.28,0,0,0,9,3.18,10.75,10.75,0,0,0,6.89,1.12,8.64,8.64,0,0,1,9.5.72a8.75,8.75,0,0,1,4.86,1.47,5,5,0,0,0-.64,2.31.94.94,0,0,0,.84.9h.1a.94.94,0,0,0,.84-.53.5.5,0,0,1,.33-.29c.16,0,.53,0,1.21.45l-.5,0a1.11,1.11,0,0,0-.77.2,2.25,2.25,0,0,0-.4.36.35.35,0,0,0,0,.51.36.36,0,0,0,.24.09.4.4,0,0,0,.27-.11,1.93,1.93,0,0,1,.3-.27.36.36,0,0,1,.25-.06,4.62,4.62,0,0,0,1,0,8.75,8.75,0,0,1,.85,3.76,8.42,8.42,0,0,1-.21,1.89c0-.14,0-.28,0-.42Zm0,0"/><path class="a" d="M9.72,16.62l0-.06s0,0,0,0,0,0-.05-.05l-.06,0-.07,0a.33.33,0,0,0-.14,0l-.07,0-.06,0-.06.05,0,0a.21.21,0,0,0,0,.06.14.14,0,0,1,0,.07v.14a.25.25,0,0,1,0,.07.21.21,0,0,0,0,.06l0,.06.06,0,.06,0,.07,0h.14l.07,0,.06,0,.05,0,0-.06,0-.06a.14.14,0,0,0,0-.07.15.15,0,0,0,0-.07.2.2,0,0,0,0-.07.25.25,0,0,0,0-.07Zm0,0"/><path class="a" d="M11.22,1.61A4.25,4.25,0,0,0,8.8.94a.4.4,0,0,0-.41.21c-.13.25,0,.45.28.74a3.29,3.29,0,0,1,.85,1.47.33.33,0,0,0,.26.3l.09,0a.38.38,0,0,0,.29-.15l1.1-1.44a.34.34,0,0,0,0-.48ZM10,2.55a4.42,4.42,0,0,0-.52-.8,4.91,4.91,0,0,1,.94.24Zm0,0"/><path class="a" d="M15.25,6.51l-.07,0-.06,0H15l-.07,0-.06,0-.06,0,0,.06a.21.21,0,0,0,0,.06s0,0,0,.07v.14s0,0,0,.07l0,.06a.1.1,0,0,0,0,0,.36.36,0,0,0,.26.11h.07l.06,0,.07,0,.05-.05,0,0,0-.06s0,0,0-.07,0,0,0-.07a.36.36,0,0,0-.11-.26l-.05,0Zm0,0"/></svg>