<svg xmlns="http://www.w3.org/2000/svg" width="19" height="19" viewBox="0 0 19 19"><defs><style>.a{fill:#ea1f2a;}</style></defs><title>KH_Sprite</title><path class="a" d="M18.91,3.89,15.11.09a.33.33,0,0,0-.45,0L.09,14.66a.33.33,0,0,0,0,.45l3.8,3.8a.32.32,0,0,0,.23.09.31.31,0,0,0,.22-.09L18.91,4.34A.31.31,0,0,0,19,4.12.32.32,0,0,0,18.91,3.89ZM4.12,18.24.76,14.88,14.88.76l3.36,3.36Z"/><path class="a" d="M15.2,2.85a.95.95,0,1,0,.95.95A1,1,0,0,0,15.2,2.85Zm0,1.27a.32.32,0,0,1,0-.64.32.32,0,1,1,0,.64Z"/><rect class="a" x="12.19" y="2.97" width="0.63" height="1.34" transform="translate(1.09 9.91) rotate(-45)"/><rect class="a" x="11.4" y="3.85" width="0.63" height="1.79" transform="translate(0.07 9.68) rotate(-45)"/><rect class="a" x="10.29" y="4.87" width="0.63" height="1.34" transform="translate(-0.81 9.12) rotate(-45)"/><rect class="a" x="9.5" y="5.75" width="0.63" height="1.79" transform="translate(-1.83 8.89) rotate(-45)"/><rect class="a" x="8.39" y="6.77" width="0.63" height="1.34" transform="translate(-2.71 8.34) rotate(-45)"/><rect class="a" x="7.6" y="7.65" width="0.63" height="1.79" transform="translate(-3.73 8.1) rotate(-45)"/><rect class="a" x="6.49" y="8.67" width="0.63" height="1.34" transform="translate(-4.61 7.55) rotate(-45.01)"/><rect class="a" x="5.7" y="9.55" width="0.63" height="1.79" transform="translate(-5.63 7.32) rotate(-45)"/><rect class="a" x="4.59" y="10.57" width="0.63" height="1.34" transform="translate(-6.51 6.76) rotate(-45)"/><rect class="a" x="3.8" y="11.45" width="0.63" height="1.79" transform="translate(-7.53 6.53) rotate(-45)"/><rect class="a" x="2.69" y="12.47" width="0.63" height="1.34" transform="translate(-8.41 5.98) rotate(-45)"/><rect class="a" x="1.9" y="13.35" width="0.63" height="1.79" transform="translate(-9.43 5.74) rotate(-45)"/></svg>