<svg xmlns="http://www.w3.org/2000/svg" width="10.62" height="10.62" viewBox="0 0 10.62 10.62"><defs><style>.a{fill:#fff;}</style></defs><title>KH_Sprite</title><path class="a" d="M5.31,10.62A5.11,5.11,0,0,1,1.56,9.07,5.12,5.12,0,0,1,0,5.31,5.08,5.08,0,0,1,1.56,1.56,5.08,5.08,0,0,1,5.31,0,5.12,5.12,0,0,1,9.07,1.56a5.11,5.11,0,0,1,1.55,3.75A5.15,5.15,0,0,1,9.07,9.07,5.15,5.15,0,0,1,5.31,10.62Zm0-1a4.14,4.14,0,0,0,3-1.26,4.14,4.14,0,0,0,1.26-3,4.14,4.14,0,0,0-1.26-3A4.14,4.14,0,0,0,5.31,1a4.14,4.14,0,0,0-3,1.26A4.14,4.14,0,0,0,1,5.31a4.14,4.14,0,0,0,1.26,3A4.15,4.15,0,0,0,5.31,9.61Z"/></svg>