<svg xmlns="http://www.w3.org/2000/svg" width="10.89" height="10.72" viewBox="0 0 10.89 10.72"><defs><style>.a{fill:#fff;}</style></defs><title>KH_Sprite</title><path class="a" d="M10.12.94v9.78H0V.6H9.77c.34-.24.65-.44.92-.6l.2.36C10.67.51,10.41.71,10.12.94ZM4.72,8.18l-.3.2a5.57,5.57,0,0,0-.67.51,7.42,7.42,0,0,0-.27-.8L3.33,7.7a9.1,9.1,0,0,0-.87-1.76,1.11,1.11,0,0,0-.76-.55,1.58,1.58,0,0,1,1-.5c.37,0,.79.51,1.24,1.52L4.15,7A20.47,20.47,0,0,1,8.89,1.27H.67V10H9.43V1.51A21.06,21.06,0,0,0,6.58,4.75,15.19,15.19,0,0,0,4.72,8.18Z"/></svg>