<svg xmlns="http://www.w3.org/2000/svg" width="34.69" height="30.11" viewBox="0 0 34.69 30.11"><defs><style>.a{fill:#404040;}</style></defs><title>KH_Sprite</title><path class="a" d="M18,30.11a1.85,1.85,0,0,1-1.85-1.85,2.19,2.19,0,0,1,0-.36l.09-.44L7,24.48l-.14,0-6.17-2,1,2.43a.29.29,0,0,1,0,.19.23.23,0,0,1-.14.13H1.5c-.15,0-.22-.06-.25-.14L0,22.15a.26.26,0,0,1,.11-.32l0,0,.05,0,3-1.27h.07a.23.23,0,0,1,.12.45L.87,22l5.72,1.83V10.44l0,0v-.09l.09-.08L17.78,6V.9L16.46,2.23a.24.24,0,0,1-.18.07.23.23,0,0,1-.17-.07.25.25,0,0,1,0-.34L17.89.11a.28.28,0,0,1,.2-.11.24.24,0,0,1,.18.07l1.81,1.82a.25.25,0,0,1,0,.34.23.23,0,0,1-.17.07.24.24,0,0,1-.18-.07L18.27.77V6l11.59,4.27a.23.23,0,0,1,.15.22V23.31l4.21-1.62-2.35-.83a.26.26,0,0,1-.14-.13.21.21,0,0,1,0-.18.25.25,0,0,1,.23-.17l2.58.9.11.08,0,.09v.1L34.17,24a.26.26,0,0,1-.24.19c-.18,0-.27-.17-.24-.3L34,22.29,27.4,24.83l-7.56,3,0,.36v.12A1.84,1.84,0,0,1,18,30.11ZM18.27,15v11.4l.34.12a1.76,1.76,0,0,1,.82.55l.23.26,9.87-3.84V10.8ZM7.08,24l9.52,3.05.21-.18a1.81,1.81,0,0,1,.63-.36l.34-.12V14.94L7.08,10.8Zm11.19-9.53,10.8-4-10.8-4Zm-10.75-4,10.26,4V6.53Z"/></svg>