<svg xmlns="http://www.w3.org/2000/svg" width="18.57" height="26.37" viewBox="0 0 18.57 26.37"><defs><style>.a{fill:#bf1d2d;}</style></defs><title>KH_Sprite</title><path class="a" d="M5.39,18.47h0a8.49,8.49,0,0,1-3.47-.88h0A4.47,4.47,0,0,1,0,13.9a.25.25,0,0,1,.17-.24,3.87,3.87,0,0,1,3.72.87,5.7,5.7,0,0,1,1.75,3.68.27.27,0,0,1-.08.19A.22.22,0,0,1,5.39,18.47Zm-3.2-1.29A7.23,7.23,0,0,0,5.11,18a5.18,5.18,0,0,0-1.56-3,3.44,3.44,0,0,0-3-.82,3.89,3.89,0,0,0,1.68,3.1Z"/><path class="a" d="M6.68,11.29h0a8.53,8.53,0,0,1-3.48-.88h0A4.51,4.51,0,0,1,1.29,6.72a.25.25,0,0,1,.17-.24,3.87,3.87,0,0,1,3.72.87A5.58,5.58,0,0,1,6.93,11a.24.24,0,0,1-.25.25ZM1.8,6.9A3.92,3.92,0,0,0,3.48,10h0a7.27,7.27,0,0,0,2.92.77,5.15,5.15,0,0,0-1.55-3A3.4,3.4,0,0,0,1.8,6.9Z"/><path class="a" d="M9.35,7.46h0a.22.22,0,0,1-.18-.1A9.86,9.86,0,0,1,7.56,4h0A4.53,4.53,0,0,1,9,.07a.26.26,0,0,1,.31,0,4.39,4.39,0,0,1,1.75,3.57A5.6,5.6,0,0,1,9.53,7.39.24.24,0,0,1,9.35,7.46ZM9.2.58A4,4,0,0,0,8.06,3.93h0A8.51,8.51,0,0,0,9.38,6.81,5.22,5.22,0,0,0,10.57,3.6,3.92,3.92,0,0,0,9.2.58Z"/><path class="a" d="M13.18,18.47A.22.22,0,0,1,13,18.4a.27.27,0,0,1-.08-.19,5.7,5.7,0,0,1,1.75-3.68,3.87,3.87,0,0,1,3.72-.87.25.25,0,0,1,.17.24,4.47,4.47,0,0,1-1.9,3.69h0a8.46,8.46,0,0,1-3.47.88ZM17.32,14a3.34,3.34,0,0,0-2.3.9,5.18,5.18,0,0,0-1.56,3,7.23,7.23,0,0,0,2.92-.77h0a3.89,3.89,0,0,0,1.68-3.1A3.17,3.17,0,0,0,17.32,14Zm-.79,3.39Z"/><path class="a" d="M11.89,11.29a.24.24,0,0,1-.25-.25,5.58,5.58,0,0,1,1.75-3.69,3.87,3.87,0,0,1,3.72-.87.25.25,0,0,1,.17.24,4.5,4.5,0,0,1-1.9,3.69,8.53,8.53,0,0,1-3.48.88ZM16,6.82a3.37,3.37,0,0,0-2.3.9,5.15,5.15,0,0,0-1.55,3.05A7.27,7.27,0,0,0,15.09,10h0a3.92,3.92,0,0,0,1.68-3.1A3.27,3.27,0,0,0,16,6.82Z"/><path class="a" d="M9.35,26.37a.26.26,0,0,1-.25-.25V7.21A.26.26,0,0,1,9.35,7a.25.25,0,0,1,.25.25V26.12A.25.25,0,0,1,9.35,26.37Z"/><path class="a" d="M9.35,21.61a.25.25,0,0,1-.19-.09.26.26,0,0,1,0-.36L13,18a.25.25,0,1,1,.32.39L9.51,21.55A.23.23,0,0,1,9.35,21.61Z"/><path class="a" d="M9.35,21.61a.22.22,0,0,1-.15-.06L5.37,18.42a.26.26,0,0,1,0-.36.25.25,0,0,1,.35,0l3.83,3.13a.26.26,0,0,1,0,.36A.25.25,0,0,1,9.35,21.61Z"/><path class="a" d="M9.35,13.27a.26.26,0,0,1-.19-.1.24.24,0,0,1,0-.35l2.48-2a.25.25,0,1,1,.32.38l-2.49,2A.23.23,0,0,1,9.35,13.27Z"/><path class="a" d="M9.35,13.27a.22.22,0,0,1-.15-.06L6.5,11a.25.25,0,0,1,0-.35.24.24,0,0,1,.35,0l2.69,2.2a.24.24,0,0,1,0,.35A.26.26,0,0,1,9.35,13.27Z"/></svg>