<svg xmlns="http://www.w3.org/2000/svg" width="35.39" height="27.33" viewBox="0 0 35.39 27.33"><defs><style>.a{fill:#bf1d2d;}</style></defs><title>KH_Sprite</title><path class="a" d="M24.12,23.83a.72.72,0,0,1-.75-.77.85.85,0,0,1,.19-.55.71.71,0,0,1,.56-.23.72.72,0,0,1,.74.78.85.85,0,0,1-.19.54A.7.7,0,0,1,24.12,23.83Z"/><path class="a" d="M26.75,22.9a.71.71,0,0,1-.75-.77.85.85,0,0,1,.19-.55.71.71,0,0,1,.56-.23.72.72,0,0,1,.74.78.85.85,0,0,1-.19.54A.7.7,0,0,1,26.75,22.9Z"/><path class="a" d="M21.54,27.33l-.11,0L7.9,21.68a.33.33,0,0,1-.2-.3V18.47H1.65a.32.32,0,1,1,0-.64H7.7V15.09H5a.32.32,0,1,1,0-.64H7.7V11.71H.32a.32.32,0,0,1,0-.64H7.7V5.77l.06-.18.06-.06.06,0L21.42,0l.12,0,.12,0L35.18,5.47l.09.06.06.06,0,.08a.37.37,0,0,1,0,.08V21.38a.33.33,0,0,1-.2.3L21.67,27.3Zm.33-15.72V26.52l12.87-5.35V6.25ZM8.35,21.17l12.87,5.35V11.61L8.35,6.25v4.82H9.91a.32.32,0,0,1,0,.64H8.35v2.74h6.21a.32.32,0,1,1,0,.64H8.35v2.74h2.89a.32.32,0,1,1,0,.64H8.35Zm7.49-12.5L21.51,11l12.7-5.25L28.3,3.4Zm-7-2.9L15,8.31,27.45,3.05,21.54.67Z"/></svg>