<svg xmlns="http://www.w3.org/2000/svg" width="20.7" height="29.96" viewBox="0 0 20.7 29.96"><defs><style>.a{fill:#bf1d2d;}</style></defs><title>KH_Sprite</title><path class="a" d="M9.64,24.08a.31.31,0,0,1-.3-.3c0-.87.06-2.16.15-3.38a.3.3,0,0,1,.3-.27h0a.3.3,0,0,1,.28.32c-.09,1.18-.15,2.49-.15,3.33a.3.3,0,0,1-.3.3ZM1,20.07a.3.3,0,0,1-.3-.26c0-.15-.1-.58-.18-1s-.2-1.21-.23-1.4A13.06,13.06,0,0,1,.88,11l.24-.69C2,7.8,2.86,5.47,2.44,2.81A1.64,1.64,0,0,1,3.58,0H7.13A1.64,1.64,0,0,1,8.27,2.81a10.46,10.46,0,0,0,.29,4.32.31.31,0,0,1-.22.37A.3.3,0,0,1,8,7.28a10.94,10.94,0,0,1-.29-4.67.32.32,0,0,1,.1-.18,1,1,0,0,0,.36-.79,1,1,0,0,0-1-1H3.58a1,1,0,0,0-1,1,1,1,0,0,0,.36.79.32.32,0,0,1,.1.18c.48,2.86-.4,5.29-1.33,7.86l-.24.68a12.38,12.38,0,0,0-.61,6.12c0,.19.13.82.23,1.39s.15.91.17,1.06a.29.29,0,0,1-.25.34Zm9.22-2.45h0a.31.31,0,0,1-.26-.34A13.16,13.16,0,0,0,10,15.13a.32.32,0,0,1,.29-.31h0a.31.31,0,0,1,.3.3,14.19,14.19,0,0,1-.14,2.24A.3.3,0,0,1,10.17,17.62Zm-.24-5a.29.29,0,0,1-.29-.23,12.16,12.16,0,0,0-.38-1.22L9,10.47a.3.3,0,0,1,.56-.21l.25.69c.15.43.28.86.39,1.27a.3.3,0,0,1-.22.37Z"/><path class="a" d="M5.36,30H4.88a21.71,21.71,0,0,1-2.22-.19A3.13,3.13,0,0,1,.3,28.37,2.69,2.69,0,0,1,.23,26a12.37,12.37,0,0,0,.39-6.18l0-.21a.29.29,0,0,1,.08-.25.3.3,0,0,1,.24-.09h.21a4.91,4.91,0,0,1,2.06.6,6.64,6.64,0,0,1,1.64,1.5l.43.49A4.86,4.86,0,0,0,9.4,23.44l.18,0a.31.31,0,0,1,.23.06.28.28,0,0,1,.12.21l0,.18A8.59,8.59,0,0,0,10.48,26h0a2.69,2.69,0,0,1-.07,2.33,3.13,3.13,0,0,1-2.36,1.39A21.71,21.71,0,0,1,5.83,30Zm-4.12-10A12.82,12.82,0,0,1,.8,26.25a2.09,2.09,0,0,0,0,1.82,2.59,2.59,0,0,0,1.94,1.1c.65.1,1.63.15,2.16.18h.87c.53,0,1.51-.08,2.16-.18a2.59,2.59,0,0,0,1.94-1.1,2.09,2.09,0,0,0,0-1.82h0a9.84,9.84,0,0,1-.54-2.2,5.41,5.41,0,0,1-4.56-1.73l-.44-.51a5.89,5.89,0,0,0-1.49-1.36A4,4,0,0,0,1.24,19.94Z"/><path class="a" d="M15.44,9.19a.27.27,0,0,1-.21-.09L12.88,6.74a.31.31,0,0,1,0-.43.29.29,0,0,1,.42,0l2.35,2.37a.3.3,0,0,1,0,.42A.29.29,0,0,1,15.44,9.19Z"/><path class="a" d="M13.1,11.56a.29.29,0,0,1-.21-.09.31.31,0,0,1,0-.43l2.35-2.36a.29.29,0,0,1,.42,0,.3.3,0,0,1,0,.42l-2.35,2.37A.27.27,0,0,1,13.1,11.56Z"/><path class="a" d="M15.44,9.19H5.36a.3.3,0,1,1,0-.6H15.44a.3.3,0,0,1,0,.6Z"/><path class="a" d="M20.4,14a.27.27,0,0,1-.21-.09l-2.35-2.36a.31.31,0,0,1,0-.43.29.29,0,0,1,.42,0l2.34,2.37a.3.3,0,0,1-.21.51Z"/><path class="a" d="M18.06,16.39a.29.29,0,0,1-.21-.09.31.31,0,0,1,0-.43l2.35-2.36a.3.3,0,0,1,.42.42L18.27,16.3A.29.29,0,0,1,18.06,16.39Z"/><path class="a" d="M20.4,14h-15a.3.3,0,1,1,0-.6h15a.3.3,0,0,1,0,.6Z"/><path class="a" d="M15.44,18.83a.27.27,0,0,1-.21-.09l-2.35-2.36a.31.31,0,0,1,0-.43.3.3,0,0,1,.42,0l2.35,2.37a.31.31,0,0,1,0,.43A.32.32,0,0,1,15.44,18.83Z"/><path class="a" d="M13.1,21.2a.29.29,0,0,1-.21-.09.31.31,0,0,1,0-.43l2.35-2.36a.29.29,0,0,1,.42,0,.3.3,0,0,1,0,.42l-2.35,2.37A.27.27,0,0,1,13.1,21.2Z"/><path class="a" d="M15.44,18.83H5.36a.3.3,0,1,1,0-.6H15.44a.3.3,0,1,1,0,.6Z"/></svg>