<svg xmlns="http://www.w3.org/2000/svg" width="12.96" height="13.5" viewBox="0 0 12.96 13.5"><defs><style>.a{fill:none;stroke:#fff;stroke-linecap:round;stroke-linejoin:round;stroke-width:0.5px;}</style></defs><title>KH_Sprite</title><path class="a" d="M12.38,4.81a6.68,6.68,0,0,1,.33,2.06,6.31,6.31,0,0,1-6.23,6.38h0A6.31,6.31,0,0,1,.25,6.87,6.3,6.3,0,0,1,6.48.5h0A6.17,6.17,0,0,1,7.92.67"/><path class="a" d="M10,7.62a7.48,7.48,0,0,1-3.5,5.63A7.51,7.51,0,0,1,6.48.5a5.56,5.56,0,0,1,1.1.79"/><line class="a" x1="6.48" y1="0.5" x2="6.48" y2="13.25"/><line class="a" x1="11.1" y1="6.87" x2="12.7" y2="6.87"/><line class="a" x1="0.25" y1="6.87" x2="9.44" y2="6.87"/><path class="a" d="M10.27,6.82a7,7,0,0,1-2-4.28c0-1.15.53-2.29,2-2.29s2,1.14,2,2.29A7,7,0,0,1,10.27,6.82Z"/><path class="a" d="M11.47,2.51a1.2,1.2,0,1,1-1.2-1.22A1.22,1.22,0,0,1,11.47,2.51Z"/></svg>