<svg xmlns="http://www.w3.org/2000/svg" xmlns:xlink="http://www.w3.org/1999/xlink" width="44.75" height="36.5" viewBox="0 0 44.75 36.5"><defs><style>.a{fill:url(#a);}.b{fill:none;stroke:#fff;stroke-linecap:round;stroke-linejoin:round;stroke-width:0.75px;}</style><linearGradient id="a" x1="22.38" y1="36.5" x2="22.38" gradientUnits="userSpaceOnUse"><stop offset="0" stop-color="#bf1d2d" stop-opacity="0.8"/><stop offset="0.14" stop-color="#a31926" stop-opacity="0.68"/><stop offset="1" stop-opacity="0"/></linearGradient></defs><title>KH_Sprite</title><rect class="a" width="44.75" height="36.5"/><polygon class="b" points="13.33 10.15 33.78 10.15 33.78 27.75 10.97 27.75 10.97 10.15 13.33 10.15"/><rect class="b" x="21.26" y="14.75" width="2.1" height="2.09"/><rect class="b" x="25.43" y="14.75" width="2.1" height="2.09"/><rect class="b" x="29.61" y="14.75" width="2.1" height="2.09"/><rect class="b" x="12.92" y="18.94" width="2.1" height="2.09"/><rect class="b" x="17.09" y="18.94" width="2.1" height="2.09"/><rect class="b" x="21.26" y="18.94" width="2.1" height="2.09"/><rect class="b" x="25.43" y="18.94" width="2.1" height="2.09"/><rect class="b" x="29.61" y="18.94" width="2.1" height="2.09"/><rect class="b" x="12.92" y="23.13" width="2.1" height="2.09"/><rect class="b" x="17.09" y="23.13" width="2.1" height="2.09"/><rect class="b" x="21.26" y="23.13" width="2.1" height="2.09"/><rect class="b" x="25.43" y="23.13" width="2.1" height="2.09"/><line class="b" x1="14.02" y1="8.75" x2="14.02" y2="11.47"/><line class="b" x1="18.17" y1="8.75" x2="18.17" y2="11.47"/><line class="b" x1="22.31" y1="8.75" x2="22.31" y2="11.47"/><line class="b" x1="26.46" y1="8.75" x2="26.46" y2="11.47"/><line class="b" x1="30.61" y1="8.75" x2="30.61" y2="11.47"/></svg>