<svg xmlns="http://www.w3.org/2000/svg" width="24.29" height="26.8" viewBox="0 0 24.29 26.8"><defs><style>.a{fill:#bf1d2d;}</style></defs><title>KH_Sprite</title><path class="a" d="M11,19.82a2,2,0,0,1-.35,0,2.16,2.16,0,0,1-1.57-1.11L9,18.6l-.08,0a2.06,2.06,0,0,1-.77.14A2.17,2.17,0,0,1,7,18.44a2.2,2.2,0,0,1-1-1.56V16.8H5.9a2.2,2.2,0,0,1-2-2.8l0-.09-.08,0A2.22,2.22,0,0,1,3,10.54l0-.06,0-.07A2.16,2.16,0,0,1,2.5,8.6,2.19,2.19,0,0,1,3.6,7l.08,0,0-.08A2.21,2.21,0,0,1,5.4,4h.08V3.87A2.21,2.21,0,0,1,7.68,1.8a2.1,2.1,0,0,1,.61.09l.08,0,0-.08A2.19,2.19,0,0,1,9.92.6a2.63,2.63,0,0,1,.49,0A2.18,2.18,0,0,1,11.73,1L11.8,1,11.86,1A2.18,2.18,0,0,1,13.32.43a2,2,0,0,1,.34,0,2.2,2.2,0,0,1,1.58,1.11l0,.08.08,0a2.06,2.06,0,0,1,.77-.14,2.17,2.17,0,0,1,1.16.33,2.22,2.22,0,0,1,1,1.56v.09h.09A2.15,2.15,0,0,1,20,4.37a2.18,2.18,0,0,1,.33,1.9l0,.08.08,0a2.22,2.22,0,0,1,.84,3.33l-.05.07.05.06a2.2,2.2,0,0,1-.58,3.38l-.08,0,0,.08a2.19,2.19,0,0,1-1.75,2.95h-.08v.08A2.19,2.19,0,0,1,17.9,18a2.17,2.17,0,0,1-1.9.33l-.08,0,0,.08a2.19,2.19,0,0,1-1.51,1.23,1.91,1.91,0,0,1-.48.05,2.19,2.19,0,0,1-1.33-.44l-.07-.05-.06.05A2.18,2.18,0,0,1,11,19.82ZM9.15,18h.1a.26.26,0,0,1,.16.18,1.68,1.68,0,0,0,1.31,1.11l.26,0a1.65,1.65,0,0,0,1.28-.62.29.29,0,0,1,.21-.11.37.37,0,0,1,.21.09,1.66,1.66,0,0,0,1.21.52,1.47,1.47,0,0,0,.36,0,1.63,1.63,0,0,0,1.23-1.21.27.27,0,0,1,.15-.18.26.26,0,0,1,.24,0,1.62,1.62,0,0,0,.74.18,1.64,1.64,0,0,0,1-.31,1.67,1.67,0,0,0,.68-1.52.26.26,0,0,1,.07-.22.24.24,0,0,1,.18-.09h.11A1.6,1.6,0,0,0,20,15a1.66,1.66,0,0,0,0-1.73A.24.24,0,0,1,20,13a.29.29,0,0,1,.17-.17,1.63,1.63,0,0,0,1.11-1.3,1.65,1.65,0,0,0-.6-1.56.28.28,0,0,1-.1-.2.27.27,0,0,1,.09-.21,1.65,1.65,0,0,0-.73-2.8.29.29,0,0,1-.18-.16.24.24,0,0,1,0-.23A1.64,1.64,0,0,0,18.26,4h-.18a.3.3,0,0,1-.22-.08.27.27,0,0,1-.09-.21A1.64,1.64,0,0,0,17,2.28,1.57,1.57,0,0,0,16.13,2a1.69,1.69,0,0,0-.85.23.23.23,0,0,1-.14,0c-.18,0-.24-.11-.26-.18A1.64,1.64,0,0,0,13.58,1a1.27,1.27,0,0,0-.28,0A1.65,1.65,0,0,0,12,1.6a.29.29,0,0,1-.21.11.32.32,0,0,1-.21-.09A1.66,1.66,0,0,0,10.4,1.1a1.47,1.47,0,0,0-.36,0A1.63,1.63,0,0,0,8.81,2.35a.27.27,0,0,1-.15.18.27.27,0,0,1-.12,0l-.12,0a1.62,1.62,0,0,0-.74-.18,1.64,1.64,0,0,0-1,.31A1.68,1.68,0,0,0,6,4.19.25.25,0,0,1,6,4.4a.28.28,0,0,1-.2.09h0a1.69,1.69,0,0,0-1.45.77A1.64,1.64,0,0,0,4.3,7a.27.27,0,0,1,0,.23.29.29,0,0,1-.17.17,1.65,1.65,0,0,0-.51,2.86.25.25,0,0,1,.1.2.27.27,0,0,1-.09.21,1.68,1.68,0,0,0-.48,1.57,1.63,1.63,0,0,0,1.21,1.23.29.29,0,0,1,.18.16.24.24,0,0,1,0,.23,1.65,1.65,0,0,0,.14,1.71A1.62,1.62,0,0,0,6,16.25h.2a.29.29,0,0,1,.22.07.27.27,0,0,1,.09.21A1.64,1.64,0,0,0,7.29,18a1.57,1.57,0,0,0,.87.25h0A1.69,1.69,0,0,0,9,18,.25.25,0,0,1,9.15,18Z"/><path class="a" d="M22.6,5.51a.27.27,0,0,1-.24-.3A.26.26,0,0,1,22.64,5L24,5.1a.27.27,0,0,1,.25.3.28.28,0,0,1-.27.25Z"/><path class="a" d="M20.07,1.89a.18.18,0,0,1-.1,0,.28.28,0,0,1-.15-.36L20.39.17A.27.27,0,0,1,20.64,0l.11,0a.27.27,0,0,1,.14.36l-.56,1.34A.27.27,0,0,1,20.07,1.89Z"/><path class="a" d="M22.17,3.23a.28.28,0,0,1-.21-.1.27.27,0,0,1,0-.39l1.74-1.43a.27.27,0,0,1,.17-.06.3.3,0,0,1,.22.1.29.29,0,0,1,0,.39L22.35,3.17A.28.28,0,0,1,22.17,3.23Z"/><path class="a" d="M.27,5.65a.28.28,0,0,1,0-.55L1.63,5a.26.26,0,0,1,.3.25.25.25,0,0,1-.06.2.29.29,0,0,1-.18.1Z"/><path class="a" d="M4.22,1.89A.28.28,0,0,1,4,1.72L3.4.38A.27.27,0,0,1,3.54,0l.11,0A.27.27,0,0,1,3.9.17l.57,1.34a.28.28,0,0,1-.15.36A.18.18,0,0,1,4.22,1.89Z"/><path class="a" d="M2.12,3.23A.25.25,0,0,1,2,3.17L.2,1.74a.29.29,0,0,1,0-.39.32.32,0,0,1,.22-.1.27.27,0,0,1,.17.06L2.29,2.74a.27.27,0,0,1,0,.39A.28.28,0,0,1,2.12,3.23Z"/><path class="a" d="M15,15.27a.91.91,0,0,1-.4-.1l-2.34-1.23a.23.23,0,0,0-.14,0,.24.24,0,0,0-.15,0L9.66,15.17a.9.9,0,0,1-.4.09.83.83,0,0,1-.5-.16.86.86,0,0,1-.35-.84l.45-2.61a.3.3,0,0,0-.09-.27L6.88,9.53a.85.85,0,0,1-.22-.88.87.87,0,0,1,.7-.59L10,7.68a.32.32,0,0,0,.24-.17l1.16-2.37a.9.9,0,0,1,1.55,0l1.17,2.37a.29.29,0,0,0,.23.17l2.61.38a.86.86,0,0,1,.48,1.47l-1.89,1.85a.3.3,0,0,0-.09.27l.45,2.61a.86.86,0,0,1-.35.84A.84.84,0,0,1,15,15.27ZM9,14.35a.32.32,0,0,0,.12.31.34.34,0,0,0,.18.06.42.42,0,0,0,.15,0l2.33-1.23a.86.86,0,0,1,.41-.1.85.85,0,0,1,.4.1l2.33,1.23a.42.42,0,0,0,.15,0,.34.34,0,0,0,.18-.06.32.32,0,0,0,.12-.31l-.44-2.6a.85.85,0,0,1,.25-.77L17,9.14a.32.32,0,0,0,.07-.32.3.3,0,0,0-.25-.22l-2.61-.38a.86.86,0,0,1-.65-.47L12.43,5.38a.31.31,0,0,0-.28-.17.29.29,0,0,0-.28.17L10.7,7.75a.86.86,0,0,1-.65.47L7.44,8.6a.3.3,0,0,0-.25.22.32.32,0,0,0,.07.32L9.15,11"/><path class="a" d="M17,26.8a.3.3,0,0,1-.23-.15l-2.72-5.57a.28.28,0,0,1,.12-.37.27.27,0,0,1,.12,0,.27.27,0,0,1,.25.16L17.06,26l1.8-3a.28.28,0,0,1,.24-.13l3.47.39-2.84-5.81a.27.27,0,0,1,.12-.36.28.28,0,0,1,.13,0,.27.27,0,0,1,.24.15l3.06,6.25a.28.28,0,0,1-.25.4l-3.79-.42-2,3.24a.28.28,0,0,1-.24.13Z"/><path class="a" d="M7.9,26.8a.28.28,0,0,1-.24-.13l-2-3.24-3.77.42a.29.29,0,0,1-.25-.12.26.26,0,0,1,0-.28L4.51,17.6a.28.28,0,0,1,.25-.16.27.27,0,0,1,.12,0,.28.28,0,0,1,.13.37L2.36,23.25l3.45-.39a.29.29,0,0,1,.26.13l1.8,3,2.51-5.11a.27.27,0,0,1,.25-.16.27.27,0,0,1,.12,0,.28.28,0,0,1,.12.37L8.15,26.65a.33.33,0,0,1-.24.15Z"/><path class="a" d="M6.65,21.71a.25.25,0,0,1-.12,0,.25.25,0,0,1-.14-.16.3.3,0,0,1,0-.21L7,20.06a.27.27,0,0,1,.25-.15l.11,0a.27.27,0,0,1,.13.37l-.6,1.26A.28.28,0,0,1,6.65,21.71Z"/><path class="a" d="M18.35,21.64a.27.27,0,0,1-.24-.15l-.58-1.19a.3.3,0,0,1,0-.21.36.36,0,0,1,.14-.16l.12,0a.28.28,0,0,1,.25.15l.57,1.19a.26.26,0,0,1,0,.21.29.29,0,0,1-.13.16Z"/></svg>